/* XPM */
static char *_4937911eedc43ac94ff3899c715086cSw61mnqIa7qGvWfj[] = {
/* columns rows colors chars-per-pixel */
"63 63 3 1 ",
"  c #FFB1B1",
". c #FFB3B3",
"X c #FFB4B4",
/* pixels */
"...............................................................",
"...............................................................",
"...........................X..X................................",
"..........................X.............X......................",
"........................................XX.........X...........",
".........................X.....................................",
".........................X.....X........X......................",
".........................X.....................................",
"................................................X..............",
".........................X.....................................",
".........................X.....................................",
".........................X.....................................",
"...............................................................",
"............................... ...............................",
"............................... ...............................",
"................................ ..............................",
"............... ............... .......... . ..................",
"........................ .............. .. ........... ........",
"...............................................................",
"........... ........... ......... .............................",
"......... ................. ...  .......... ...................",
".......... ....................................................",
".............. ................................. ..............",
"................................ .......... ...................",
"....... ....... ................. .......... ..................",
"................  ................... .........................",
"...... ........ ............. .. ................... ..........",
".... ........... ....................... ...... ............ ..",
".....  . .......... . ............... .......... ....... ......",
".. ........ ...... ......... ..................................",
"........... ................ ..................................",
"... .......................... .................... .........  ",
"...... ........... .............. .. .............. ....... ...",
"... ........................... ...............................",
"............ ............. .. .................................",
"......... ..................... ........ ......................",
"..... ..................... ........... .......... ............",
" . ..... ..................... ................................",
".......... ............................. ......................",
"........................ ....... ..............................",
"................................... ...........................",
"............ ............................................ .....",
"........................................ ......................",
".............................................................. ",
".......................... ............ .............. .... ...",
".X..................... ... ...................................",
"...X.......................................... ................",
"......................................... .....................",
"..............X..XX............. ..............................",
"...............................................................",
"................................ ......... ....................",
"........................................ ......... ............",
"...............................................................",
"....................................... ......... .............",
"...............................................................",
"...............................................................",
"...............................................................",
"...............................................................",
"...............................................................",
"...............................................................",
"...............................................................",
"...............................................................",
"..............................................................."
};
