/* XPM */
static char *closed_exit1639498353[] = {
/* columns rows colors chars-per-pixel */
"63 63 87 1 ",
"  c #230100",
". c #2C0403",
"X c #300607",
"o c #3B0504",
"O c #3E0806",
"+ c #3A0608",
"@ c #330909",
"# c #3C0D0B",
"$ c #470506",
"% c #440B0A",
"& c #4A0E0D",
"* c #5A0D0D",
"= c #5D0F10",
"- c #4C1415",
"; c #531515",
": c #5B1313",
"> c #551A16",
", c #551919",
"< c #5C1A1B",
"1 c #641414",
"2 c #691615",
"3 c #621816",
"4 c #691816",
"5 c #63161A",
"6 c #681618",
"7 c #651B1A",
"8 c #6C1B1B",
"9 c #721E1D",
"0 c #6F211F",
"q c #73211F",
"w c #6F1E20",
"e c #711E20",
"r c #622122",
"t c #6D2224",
"y c #6B292A",
"u c #732323",
"i c #7A2525",
"p c #752826",
"a c #7A2926",
"s c #772728",
"d c #7A2628",
"f c #752B2C",
"g c #7C2B2C",
"h c #74332F",
"j c #7F302C",
"k c #752D30",
"l c #7D2E31",
"z c #733333",
"x c #7D3233",
"c c #822D2D",
"v c #84312F",
"b c #822F31",
"n c #833232",
"m c #893436",
"M c #883837",
"N c #873738",
"B c #8A3C3C",
"V c #9D4E4E",
"C c #9D524F",
"Z c #A25453",
"A c #A65856",
"S c #A75C59",
"D c #AC5C5B",
"F c #AC6362",
"G c #B26464",
"H c #BD6E6D",
"J c #C27272",
"K c #C47976",
"L c #C67B78",
"P c #CB7B7B",
"I c #D38484",
"U c #D88A8A",
"Y c #E69C9B",
"T c #E99C9B",
"R c #F0A09F",
"E c #EEA3A0",
"W c #F1A1A2",
"Q c #F7A9A7",
"! c #F6ABAA",
"~ c #FAADAD",
"^ c #F7B0AC",
"/ c #FCB1AF",
"( c #FCAEB0",
") c #FFB3B3",
"_ c #FFB8B6",
"` c #FFB6B8",
"' c #FFB9B9",
/* pixels */
")))))))))))))))))))))))))))))))))))))))))))))))))))))))))))))()",
")))))))))))/))))))))))()))))))))))))))))))))))))))))))))))))))(",
"))))))))))))))))))))))))))))))))))))))))))))))))))()))))))))))(",
"))))))))))))))))))))))))))))))))))))))))))))))))))))))))))))))`",
")))))))))))))))))))))))))))))))))))()))))))))))))))))))))))))))",
")))))))))))))))))))))))))))))))))))))))))))))))))))))))))))))))",
")))))))))))))))))))))))))))))))))))))))))))))))))))))))))))))))",
")))))))))))))))))))))))))))))))))))))))))))))))))))))))))))))))",
")()))()))))))))))))))))))))))))))))))))))))))))))))))))))))))))",
")))/)))))))))))))))))))))))))))))))))))))))))))))))))))))))))))",
")/))/))))))))))))))))))))))))))))))))))))))))))))))))))()))))))",
")))()))))))))))))))))))))))))))))))))))))))))))))))))))))))))))",
")()))))))))))))))))))))))))))))))))))))))))))))))))))))))))))))",
"))())))))))))))))))))))))))))))))))))))))))()))))))))))))))))))",
"/))))))))))))))))))))))))))))))))))))))))))))))))))))))))))))))",
"))))))))))))))))())))))))))))))))))))))))))))))))))))))))))))))",
")))))))))))))))))))))))````~`'!`)`)((`(`)(`)`))`)))))()))))))))",
"))))))))))))))))~'`~)`(((()')/'____``(`))`(`(`)))))))))))))))))",
"))))))))))))))))`~~'''_)``!)))_!_^/^`)`))_))`((`)))))))))))))))",
"))))))))))))))))``)/!!))!'`()//)))__()~))))``(`))))))))))))))))",
"))))))))))))))))~)))'_/_`ELVMaqgvCHQ)~_`))/_^_`))))))))))))))))",
"))))/)))))))))))`)'_!__YCp89qq4844a0ZR~~))___/)))))))))))))))))",
"))))))))))))))))`^`)))H7u12icccm2a09quJ()/)/^/__)))))))))))))))",
")))))))))))))))))`~`!F0tua9eccci4qvcq29D/))_'__^)))))))))))))))",
"))))))))))))))))`()'A8uunaa8bgbeugvvi29eG//)'~_/)))))))))))))))",
"))))))))))))))))())Pp8anavn4ubm1pjaq9ib64I)~~_~_)))))))))))))))",
"))))))))))))))))`()n2192vvjtwkk5xjw8cmbdun//'Q__)))))))))))))))",
"))))))))))))))))`(I9qniu*uxf<yyrf7tngcbd8qI/))//)))))))))))))))",
"))))))))))))))))))Z8icggl5:r,-+#;yzfllsju7S_///_)))))))))))))))",
"))))))))))))))))~`N4ccmcnxk;++X#$&r7=171u6j_Q__/)))))))))))))))",
")))))))))))))))))_86892=::,+#X @O&-;<<:7:<7F_/_~)))))))))))))))",
"))))))))))))))))`!p6a9agxxz+#. .+%<wtfpff77G)///)))))))))))))))",
")))))))))))))))))`g4vccca3>>o##o$5fs56618wn~))`/)))))))))))))))",
"))))))))))))))))`)Zqia4110vh&&o&=flflbgl5sV`)))))))))))))))))))",
")))))/)))))))))))!U722qcvvj0y<r<f6gbbllgs6I``/)))))))))))))))))",
"))))))))))))))))``!B1qvcvv4<x<z:ln=lbgbseb))/`)))))))))))))))))",
"))))))))))))))))(''I9uccqv2cs1l=nab1llbu4I)))`/))))))))))))))()",
"))))))))))))))))^`(^G82cvq9vi8l6gllb1d66G))))`/))))))))))))))))",
"))))))))))))))))'_(``Ds4q2ccd6g8ubbgeuwG`)`)))/`)))))))))))))))",
")))))))))))))))))``)/)H9qq9iewbwwguwe6J))`^_/)_/)))))))))))))))",
"))/)))))))))))))``)`))!WCj1000008e8uZY_))))))))))))))/)))))))))",
")))))))))))))))))``()`)!_TLCxy0pNVPW)))_)))))))))))))))))))))))",
"))))))))))))))))))))()``^__^^_//`)~)))~))))))))))))))))))))))))",
"))))))))))))))))()`)))))_/^^__/_)``((`_))))))))))))))))))))))))",
"))))))))))))))))))))))))/_/_`/!/))`))//))))))))))))))))))))))))",
"))))))))))))))))_)))))))/_)/))__`)/)_`)))))))))))))))))))))))))",
"))))))))))))))))_/)/))))`))))`)~~)`//)``))))))())))))))))))))))",
"))))))))))))))))//)_))))//)_())()))`_)/))))))()))))))))))))))))",
"))))))))))))))))))/))))))))))))))))))))))))))))))))))))))))()))",
")))))))))))))))))))))))))))))))))))))))))))))))))))))))))))))))",
")))))))))))))))))))))))))))))))))))))))))))))))))))))))))))))))",
")))))))))))))))))))))))))))))))))))))))))))))))))))))))))))))))",
")))))))))))))))))))))))))))))))))))))))))))))/)))))))))))))))))",
")))))))))))))))))))))))))))))))))))))))))))))))))))()))))))))))",
")))))))))))))))))))))))))))))))))))))))))))))))))))))))))))))))",
")))))))))))))))))))))))))))))))))))))))))))))))))))))))))))))))",
")))))))))))))))))))))))))))))))))))))))))))))))))))))))))))))))",
")))))))))))))))))))))))))))))))))))))))))))))))))))))))))))))))",
")))))))))))))))))))))))))))))))))))))))))))))))))))))))))))))))",
")))))()))))))))))))))))))))))))))))))))))))))))))))))))))))))))",
")))))))))))))))))))))))))))))))))))))))))))))))))))))))))))))))",
")))))))))))))))))))))))))))))))))))))))))))))))))))))))))))))))",
"))))))))))))))))))))))())))))))))))))))))))))))))))))))))))))))"
};
