/* XPM */
static char *coin1639495189[] = {
/* columns rows colors chars-per-pixel */
"63 63 115 2 ",
"   c #DE0C0F",
".  c #E30606",
"X  c #EC0203",
"o  c #E00907",
"O  c #E7060C",
"+  c #ED060A",
"@  c #E40B0B",
"#  c #EB0A0C",
"$  c #F50202",
"%  c #FC0101",
"&  c #F40906",
"*  c #FD0906",
"=  c #F50509",
"-  c #FC0509",
";  c #F20A0C",
":  c #FD090A",
">  c #E1110D",
",  c #EC100E",
"<  c #E50A10",
"1  c #ED0B11",
"2  c #F30B10",
"3  c #FB0C12",
"4  c #E51314",
"5  c #EC1213",
"6  c #E71A1C",
"7  c #EB1B1B",
"8  c #F4111A",
"9  c #F31D1F",
"0  c #FF201E",
"q  c #FA1D22",
"w  c #ED2224",
"e  c #EB2925",
"r  c #EC2E2E",
"t  c #F22222",
"y  c #F2252A",
"u  c #F22D2D",
"i  c #F3302E",
"p  c #F8312E",
"a  c #F12F30",
"s  c #FA2D32",
"d  c #F33433",
"f  c #FE3434",
"g  c #F43837",
"h  c #FC3937",
"j  c #FE3538",
"k  c #F53B3C",
"l  c #FE3B3C",
"z  c #FF3E42",
"x  c #FD4344",
"c  c #FE4B47",
"v  c #FF4C4C",
"b  c #FF514F",
"n  c #FF4D52",
"m  c #FF5454",
"M  c #FF5856",
"N  c #FF5D5C",
"B  c #FF615F",
"V  c #FF5F61",
"C  c #EF6D6D",
"Z  c #FF6564",
"A  c #FE6A66",
"S  c #F6656C",
"D  c #FF6669",
"F  c #F36C6C",
"G  c #FE6C6B",
"H  c #EE726D",
"J  c #F5716E",
"K  c #FB716E",
"L  c #F56E72",
"P  c #FF6E71",
"I  c #E77776",
"U  c #EE7373",
"Y  c #E67877",
"T  c #ED7A75",
"R  c #EE7678",
"E  c #ED7C7C",
"W  c #F37373",
"Q  c #FC7273",
"!  c #F37A76",
"~  c #F37578",
"^  c #F47B7B",
"/  c #F97B7B",
"(  c #F4817D",
")  c #F47E80",
"_  c #ED8E8D",
"`  c #F58483",
"'  c #FB8483",
"]  c #F48986",
"[  c #F98986",
"{  c #F58788",
"}  c #FE8489",
"|  c #F28C8A",
" . c #FD8C8C",
".. c #FF8E90",
"X. c #FE9493",
"o. c #F59893",
"O. c #FF9A96",
"+. c #FF9698",
"@. c #FF9B9A",
"#. c #FFA09F",
"$. c #FF9EA1",
"%. c #FFA4A4",
"&. c #FFA9A6",
"*. c #FFA7A9",
"=. c #F7AEAF",
"-. c #FFADAC",
";. c #F6B0AE",
":. c #FFB3AF",
">. c #FEAEB1",
",. c #F7B3B2",
"<. c #FEB3B3",
"1. c #F6B8B3",
"2. c #FDB9B6",
"3. c #FEB5B8",
"4. c #FFBABC",
/* pixels */
"<.<.<.3.>.<.<.<.<.<.<.<.<.<.>.<.3.3.3.3.3.3.<.3.<.<.<.<.<.:.<.<.<.3.3.3.3.>.>.<.<.<.<.<.,.<.<.,.<.2.2.:.:.2.:.:.:.2.2.<.<.<.<.",
"3.<.3.>.<.>.<.<.<.<.<.,.<.<.<.<.3.3.3.>.<.<.<.3.<.3.<.<.2.:.:.<.<.<.<.<.3.>.>.<.<.<.<.<.2.<.<.2.1.:.:.<.,.:.:.2.,.<.:.,.<.<.<.",
"<.<.<.3.>.<.<.<.<.<.<.<.<.<.<.>.<.<.>.<.2.2.2.1.<.<.<.<.:.2.2.<.2.<.<.<.<.<.<.:.:.<.<.<.2.:.<.<.<.<.<.<.2.:.<.,.<.<.<.<.<.<.<.",
"<.3.3.>.<.<.<.<.<.<.<.<.<.<.<.<.<.:.<.<.:.:.:.2.<.,.<.<.,.<.<.<.:.<.:.<.<.<.:.<.<.:.<.:.:.<.:.:.<.<.<.<.:.<.<.<.<.<.<.<.<.<.<.",
"<.<.<.<.3.3.>.3.,.<.<.<.<.>.<.<.:.:.:.:.:.:.:.:.:.<.<.<.<.<.<.:.:.:.:.:.<.<.<.<.,.2.,.<.:.:.:.2.>.<.>.<.<.<.<.<.<.<.<.<.<.<.,.",
"<.<.<.<.<.>.3.<.3.3.<.3.3.<.<.<.:.:.:.:.:.:.:.:.:.:.<.<.<.<.<.<.:.:.:.<.:.<.1.<.<.<.<.<.<.<.:.:.<.<.<.<.<.<.>.<.<.<.<.<.<.<.2.",
"1.<.<.<.>.3.>.3.3.<.1.<.<.<.<.<.:.:.:.:.:.:.:.:.:.2.<.>.>.3.<.>.:.:.<.<.<.<.3.,.<.<.<.<.<.:.:.:.<.3.3.<.>.3.<.<.<.<.<.<.<.<.:.",
"<.<.<.>.3.>.3.<.<.<.3.<.<.<.<.<.<.<.2.<.2.2.:.2.:.:.<.>.3.<.<.>.<.<.<.<.<.<.3.3.<.3.3.<.<.<.<.:.<.<.<.<.3.<.<.<.<.<.<.<.:.2.2.",
"<.<.<.<.>.3.<.<.3.,.,.,.,.2.:.<.3.3.3.3.<.<.<.<.2.<.<.<.<.<.<.<.<.<.3.3.3.,.3.4.3.3.<.<.2.2.1.;.<.<.<.,.<.2.<.1.<.3.>.<.<.<.:.",
"<.<.<.<.3.<.3.<.3.,.<.2.2.:.:.:.3.>.3.3.3.<.<.:.:.<.<.<.:.,.3.3.3.>.>.3.4.3.<.=.3.<.<.<.<.:.:.2.<.<.<.,.,.1.<.3.<.<.>.<.<.<.:.",
"<.<.<.<.<.<.<.3.,.:.,.:.:.-.<.<.>.>.<.>.-.<.<.-.:.:.<.<.2.2.2.,.3.3.<.<.=.<.<.<.>.-.<.<.:.:.:.:.:.:.:.2.2.,.,.2.3.<.<.<.<.<.<.",
"<.<.<.<.<.<.3.<.2.2.<.:.-.<.-.*.>.*.%.+.+.@.-.-.:.:.:.:.:.,.1.3.<.3.<.<.<.-.-.%.@...X.O.#.-.-.:.:.:.:.:.<.2.2.2.<.3.>.<.:.<.:.",
"<.<.<.<.<.<.<.<.<.:.-.<.-.%.+.} ~ L F L W C U ^  .+.%.<.<.:.,.<.-.:.<.:.#. .^ J ~ P F Q W ^  .@.#.-.:.-.:.:.,.<.<.3.<.<.<.<.:.",
"<.<.<.<.<.<.<.<.:.-.<.-.O.` ~ Q G G G G A G G A F /  .$.:.<.<.-.<.&.@. .T H G G D D D G G S F ~ ' O.-.-.:.<.<.,.<.<.<.>.<.<.<.",
"<.<.<.<.3.3.<.<.<.<.-.+./ L L P Z N n x x m Z D D G ~ ^  .*.<.<.-.X.T J J K Z Z m x z n V P G D F ^ X.%.:.:.<.:.3.3.<.<.<.<.<.",
"<.<.<.<.<.<.<.<.:.&. .C F Q V x 7 @ o @ @ @ 6 w v D P S L  .%.%.' W G K B c e 4 @ @ @ O   6 z D P S U  .&.-.:.2.<.>.3.>.<.<.<.",
"<.3.>.>.3.3.<.<.:.X.F A Z b 7 # = $ $ $ $ $ $ & . 9 x D P P ^ ~ K A Z x 7 . + $ * $ $ % $ + 2 q M A K H O.-.3.3.3.3.3.3.:.<.<.",
":.<.>.3.3.>.3.<.o.T A A h , & $ % % % % % % % % * & . s V G G Z G N p @ & : % % % % % % % % % : # d A A U @.>.3.3.<.3.<.<.<.<.",
"<.<.<.3.3.>.<.-.E K Z M @ X $ % % % % % % % % % % $ = @ u N P D m t . # $ $ % % % % % $ $ * % $ X @ m A Q R $.>.>.<.<.<.1.1.<.",
"<.<.>.3.>.3.<.O.! K Z w # $ * % % % % % % % % % % * $ 1 @ 6 v m 5 2 + = - % % % % % % $ % $ % % * . 6 V P Q +.>.<.3.<.<.1.1.<.",
"<.,.<.<.:.2.-.( J Z l + - $ % % % % % % % % % % % % % $ $ & @ 0 $ - $ % - - % % % % $ $ $ % % % % * X j D P ) >.>.,.<.2.1.,.,.",
":.2.<.<.1.:.#.Q K N @ 3 $ % % % % % % % % % % % % * % % * $ * X - $ % - % % % % $ $ % % $ % % % % % : O D A P $.>.<.<.<.<.<.2.",
"1.4.>.:.:.:.+.F G v + $ % % * % % % % % % % % % * $ % * % $ % * $ : % % % % % % % % * % % % % % % % % + v Q S @.:.1.:.<.>.<.<.",
",.<.>.:.2.-. .G A z 2 % % % $ * % % % % % % % % % * % % % % % % % % % * % % % % % % % % % % % % % % % # x A P  .:.:.<.:.<.-.<.",
",.4.<.-.<.:.' K Z i + % % % $ % % % % % % % % % % % % % % % % % % $ % % % % % % % % % % % % % % % % % + d Z Q  .-.:.:.<.<.<.<.",
"<.<.<.<.:.:.' K A u + % % % % % % % % % % % - % % % - % % % % % % % % % % % % % % % % % % % % % % % % # r Z P ' :.1.:.:.<.<.<.",
"<.<.<.<.:.-. .K A g + - % % % $ % % % % % % % % - % % % % % % % % % % % % % % % % % % % % % $ % % % * # k P L  .:.:.,.<.<.<.<.",
"<.<.<.<.:.:.O.J G v O = % $ * % % % % % % % % % % % = % % % % % % % % % % % % % % % % % % % $ % % % $ @ v G L +.:.2.<.<.,.<.<.",
"<.<.<.,.:.:.%.U G Z < + * $ % % % % % % % % % % % % % % % % % % % % % % % % % % % % % % % $ % $ % $ X 4 V F W %.>.<.<.<.<.,.<.",
"<.<.<.>.,.2.&.^ F G y + : $ % % % % % % % % % % % % % % % % % % % % % % % % % % % % % % % % % - % * . u Z Q E -.>.<.<.<.2.<.,.",
"<.<.3.3.<.<.:.X.L G v 5 = % % % % % % % % % % % % % % % % % % % % % % % % % $ % % % % % % % % % % $ > v Z Q ..-.>.3.<.3.<.<.<.",
"<.<.<.<.3.-.<.%.~ G G w + % % % % % % % % % % % % % % % % % % % % % % % % $ % % % % % % % % % % % # e Z Q ~ *.>.>.3.>.<.<.1.<.",
"<.3.<.<.<.<.:.-.X.W G M 4 X : % % % % % % % % % % % % % % % % % % % % % % % % % % $ % % $ % * $ + 4 m G L ..-.<.<.3.<.3.<.:.<.",
"<.<.<.3.>.<.<.-.%.E K Z v 5 + % $ % % % % % % % % % % % $ % % % % % $ % % % % % % % % % * % $ & 4 x N D ' %.<.<.3.<.<.<.<.:.:.",
"<.<.<.<.<.<.<.<.:.@.U K Z x @ $ % * % % % % % % % % % $ % % % % % % % % % % $ $ % % % $ * % X # j D A Q +.-.<.,.<.3.<.<.>.<.<.",
"<.<.<.>.<.<.<.<.:.-.X.C G B h > $ $ $ % % % % % % $ % $ % % % % $ - % % % * $ & % % % % % $ , p D G Q  .-.>.<.2.<.<.<.<.:.<.<.",
"<.<.:.<.<.<.<.<.:.<.&.` K K B h # $ = - % % % $ % $ % $ $ * % % % % % % $ $ % % % $ % - = 1 j Z Q F  .-.:.<.;.2.1.<.<.<.<.<.<.",
"<.<.<.<.<.<.<.<.<.-.:.:.( J A B j # X $ $ % % % % * % $ $ $ % % - % % $ $ * % * % % % X < l Z G J ] -.-.:.<.;.<.<.<.<.-.>.<.<.",
":.:.:.:.:.<.<.<.4.=.2.:.&.( ! K Z f < $ $ $ % % % % % % % $ % % % - % $ % % % % % - - 1 g Z P F { %.<.<.,.<.,.<.<.<.:.<.<.<.<.",
":.:.:.:.:.<.<.<.,.4.:.:.:.-.] H A N j # ; $ $ % % % * % % * % % % % $ % % % % % % $ 2 l A G F ' -.<.<.3.,.,.4.,.<.<.<.:.<.<.<.",
":.:.:.:.<.:.<.<.3.<.3.3.>.<.%. .K K B d # $ - % % % % % % % % % % % % % $ % % % $ ; l A P L ` -.>.3.<.3.3.,.3.<.:.<.:.:.<.<.<.",
"2.2.:.:.:.<.<.<.,.3.,.>.3.3.<.%.} J A A s # $ - $ % % % % % % % % % % % % % $ $ 3 l Z G L ) <.-.<.3.3.3.3.3.<.<.<.<.:.<.<.<.2.",
",.:.:.2.:.<.<.<.3.3.>.3.<.<.<.<.&.[ Q G D d + $ * $ % % % % % % % - % % - - $ 2 l Z P G ` :.-.<.<.3.3.3.3.3.<.<.<.<.:.:.<.<.,.",
",.2.2.:.:.:.<.<.3.3.3.3.<.:.:.<.<.-.` Q G D s + ; $ % % % % % % % % % % - $ 8 l A G F / <.:.<.,.<.<.<.<.>.3.>.3.<.:.:.:.<.<.<.",
"<.<.<.2.:.:.:.<.>.<.3.<.3.<.<.<.3.-.>.{ Q G A d # X - - $ % % % % $ * - $ 1 z G Q F ` <.-.:.<.<.2.:.<.<.3.3.3.<.<.<.:.:.:.<.<.",
"3.<.<.<.<.:.<.:.<.<.<.,.<.<.<.<.3.>.<.<.` Q K B f 1 X $ % % % % % % $ X 1 z S F W ) <.:.-.<.2.:.:.:.:.<.<.3.<.<.<.<.:.:.<.:.<.",
"3.3.<.<.<.:.<.<.<.<.<.<.:.2.<.,.3.3.<.:.-.[ K G B f # $ * % % * % % $ # j D Q F ` <.:.:.:.<.2.-.:.:.:.<.<.<.<.<.<.<.<.:.<.<.:.",
"3.3.<.<.:.:.<.<.<.<.<.2.<.,.<.2.3.<.3.<.:.-. .F A Z j @ $ % $ % % X # l Z A L } >.:.2.,.,.<.<.<.:.:.:.<.<.3.<.2.<.<.:.2.:.<.:.",
"<.<.<.<.<.<.<.<.<.<.<.<.<.<.<.<.:.<.<.:.:.:.%.X.! A A g   X * % X , j Z Q W ] -.<.<.<.<.:.:.:.:.2.:.:.<.<.<.<.<.<.<.<.<.<.<.<.",
"<.<.<.<.<.<.<.<.<.<.:.<.<.<.<.<.:.<.<.<.<.<.:.&.| J A A i , X X , f Z A F ] -.<.<.<.<.:.:.:.:.:.<.<.<.<.<.<.<.<.>.<.<.<.<.<.<.",
"<.<.<.<.>.<.<.<.<.<.<.<.<.<.<.<.<.2.<.<.>.<.<.-.&. .K A A p 4 @ l D A Q ' -.:.<.<.<.<.<.:.:.<.:.<.<.<.<.:.<.<.<.<.<.<.<.<.<.<.",
"<.>.<.<.<.<.<.<.<.<.<.>.<.<.<.<.<.<.<.<.<.>.>.<.<.&.[ J A A d l Z A P / -.-.:.<.<.<.<.<.<.<.<.<.<.<.<.<.<.<.<.<.<.<.<.<.<.<.<.",
"<.<.<.<.<.<.<.<.<.<.<.<.<.<.<.<.3.>.<.3.3.3.3.<.<.-.:.' W G G Z K C ` -.-.,.,.2.<.<.3.3.<.,.3.3.<.<.<.:.<.<.<.<.<.<.<.:.<.<.<.",
"<.<.<.<.<.<.<.<.<.<.<.<.<.<.<.<.3.<.3.<.3.3.3.3.,.<.-.-.[ W J Q U ` -.:.-.:.4.,.<.,.<.<.<.>.3.3.<.<.<.<.<.<.<.<.<.<.<.<.<.<.<.",
"<.<.>.<.<.<.<.<.<.<.<.<.>.<.<.<.<.<.3.,.>.3.3.3.<.4.<.-.:.] I Y | <.<.<.,.4.1.<.<.:.<.<.<.3.3.3.<.<.<.<.<.<.<.<.<.<.<.<.<.<.<.",
"<.<.<.<.<.<.<.<.<.<.<.<.<.<.<.<.>.<.3.3.3.<.3.,.3.=.<.<.-.-._ _ -.:.<.<.<.,.1.2.<.<.<.>.<.<.1.3.<.<.<.<.<.<.<.<.<.<.>.<.<.<.<.",
"<.<.<.<.<.<.<.<.<.<.<.<.<.<.<.<.<.:.<.<.:.<.<.<.2.<.<.<.<.>.:.-.<.<.<.<.3.<.1.<.<.:.:.:.<.<.<.3.<.<.<.<.<.<.<.<.<.<.<.<.<.<.<.",
"<.<.<.>.>.<.<.<.<.<.<.<.<.<.<.:.<.:.<.:.2.:.<.<.<.<.<.<.>.<.<.:.<.<.<.<.<.<.<.<.:.:.:.:.<.<.<.2.<.<.<.<.<.<.<.<.>.<.<.<.>.<.<.",
"<.<.<.<.<.<.<.:.<.>.<.<.<.<.<.<.:.:.:.:.:.2.:.<.<.<.<.<.<.<.<.<.:.<.<.<.3.>.<.>.:.:.:.:.<.,.3.<.<.<.<.<.<.<.<.<.<.<.<.<.<.<.<.",
"<.<.<.<.<.<.<.<.<.<.<.<.<.<.<.<.<.:.2.:.:.:.<.:.:.<.<.<.<.<.<.<.<.<.<.<.<.<.<.<.:.:.:.:.<.<.<.<.<.<.<.<.<.<.<.<.<.<.<.<.<.<.<.",
"<.<.>.<.<.<.<.<.<.<.<.<.<.<.<.<.<.<.<.<.<.<.:.:.:.:.:.<.<.<.<.<.:.:.:.<.<.<.<.<.<.<.<.<.<.<.<.3.<.<.<.<.<.<.<.<.<.<.<.<.<.<.<.",
"<.<.<.<.<.<.<.<.<.<.<.<.:.<.<.>.<.<.<.<.<.:.2.:.:.:.<.:.<.<.<.<.:.:.:.<.<.<.<.<.<.<.<.<.<.<.<.3.<.<.<.<.<.<.>.<.<.<.<.<.<.<.<.",
"<.<.<.<.<.<.<.<.<.<.<.<.<.<.<.<.<.3.3.<.<.2.:.:.:.:.<.<.<.<.<.<.:.:.<.<.3.3.3.3.<.<.3.<.<.<.<.<.<.<.<.<.<.<.<.<.:.<.<.>.<.<.<."
};
