/* XPM */
static char *_4804563972d448eaee9cab012c1ba43zo4TW6OwcxHWMwHG[] = {
/* columns rows colors chars-per-pixel */
"63 63 142 2 ",
"   c #FDAFAE",
".  c #FCB3AE",
"X  c #F9B9AF",
"o  c #FFAFB3",
"O  c #FFAFB8",
"+  c #EABAB6",
"@  c #EFB7BA",
"#  c #EDBBBC",
"$  c #F5B4B4",
"%  c #FEB3B3",
"&  c #F7B8B1",
"*  c #FCB9B3",
"=  c #F4B6B9",
"-  c #FDB4B9",
";  c #F4BABB",
":  c #FCB9BA",
">  c #E2C0BF",
",  c #F5C1BF",
"<  c #EDBEC0",
"1  c #F5BCC1",
"2  c #F8BDC2",
"3  c #E4C2C1",
"4  c #EDC4C2",
"5  c #F1C3C6",
"6  c #F2C4C7",
"7  c #F3C3C3",
"8  c #F9C2C2",
"9  c #F6C5C8",
"0  c #F3C9CA",
"q  c #F5C9C8",
"w  c #F5CBCD",
"e  c #F4CBCB",
"r  c #FAC8C9",
"t  c #F8CCCB",
"y  c #F9D0CE",
"u  c #FCD1CE",
"i  c #FACDD0",
"p  c #F9CFD0",
"a  c #FBCED1",
"s  c #F7D5D4",
"d  c #FFD0D3",
"f  c #FFD3D4",
"g  c #FDD3D7",
"h  c #FCD5D4",
"j  c #FED8D7",
"k  c #FCD9D5",
"l  c #FFD6D9",
"z  c #FFDAD9",
"x  c #FFDADA",
"c  c #FADCDA",
"v  c #FBDDDB",
"b  c #FFD8DC",
"n  c #FFDADC",
"m  c #FFDCDE",
"M  c #FFDDDE",
"N  c #FEDADA",
"B  c #FFDFE0",
"V  c #FFDEE0",
"C  c #FFE0E0",
"Z  c #FFE1E1",
"A  c #FFE2E2",
"S  c #FFE3E2",
"D  c #FFE2E3",
"F  c #FFE4E3",
"G  c #FFE3E4",
"H  c #FFE6E7",
"J  c #FFE7E5",
"K  c #F7E9E6",
"L  c #FEE9E7",
"P  c #FFE9E9",
"I  c #FFEAE8",
"U  c #FFEAEA",
"Y  c #FFEDEC",
"T  c #FFF3EF",
"R  c #FFF3F1",
"E  c #FFF3F2",
"W  c #FFF4F0",
"Q  c #FFF5F2",
"!  c #FFF6F2",
"~  c #FFF5F4",
"^  c #FFF5F5",
"/  c #FFF7F4",
"(  c #FFF6F5",
")  c #FFF7F5",
"_  c #FFF5F6",
"`  c #FFF7F6",
"'  c #FFF6F7",
"]  c #FFF6F4",
"[  c #FAFBF6",
"{  c #FCF8F5",
"}  c #FFF8F6",
"|  c #FFF9F6",
" . c #FFF8F7",
".. c #FAFCF7",
"X. c #FEFAF5",
"o. c #FFF7F8",
"O. c #FFF7FA",
"+. c #FFF7F9",
"@. c #F6FFFD",
"#. c #FBFBF9",
"$. c #FFF8F8",
"%. c #FFF8F9",
"&. c #FFF9F9",
"*. c #FFFAF8",
"=. c #FFFBF8",
"-. c #FFFBF9",
";. c #FFF8FA",
":. c #FFFBFA",
">. c #FCFDF8",
",. c #FFFDF8",
"<. c #FFFDF9",
"1. c #FFFEF9",
"2. c #FCFCFA",
"3. c #FFFCFA",
"4. c #FFFDFA",
"5. c #FFFCFB",
"6. c #FDFFFA",
"7. c #FFFEFA",
"8. c #FFFFFA",
"9. c #FFFEFB",
"0. c #FAFEFD",
"q. c #FBFFFD",
"w. c #FBFFFE",
"e. c #FBFFFF",
"r. c gray99",
"t. c #FDFDFD",
"y. c #FEFCFD",
"u. c #FFFCFD",
"i. c #FFFDFD",
"p. c #FFFEFD",
"a. c #FFFFFD",
"s. c #FDFCFF",
"d. c #FCFDFF",
"f. c #FFFDFE",
"g. c #FEFCFF",
"h. c #FFFDFF",
"j. c #FDFEFF",
"k. c #FCFFFF",
"l. c #FFFEFF",
"z. c #FEFFFF",
"x. c white",
"c. c #FEFEFE",
/* pixels */
"% % % % - $ - % O % o   o . X . % O O % % $ * * * . . % . * . * . % . * . % % . * & $ % % % O O . X % .   o % % % $ - - % - % ",
"% % - % $ - - % % % % % . % . . % % % % % . $ % . % % . % . . % % . % . . % . % * * % % % % O % . . . . % % O O % % % $ % % % ",
"% % - % . % % % . % % % % . . . % % % % % % % % % % . % % . % % o % . % % . * . % % % % % % % . . . % % % % %   % % % % % % % ",
"% % O % % % % % % % % % % % O % . & . % %       . % % . . % % o o o % . . % . % .     . % . & * - % % % % % % % % % % o - % % ",
"% % % % % . % . % % % . % - O % * * % % % % o % % % % - % % % % % % % % % . % % % o o . % % * * O O - - % * . % % . % % % O % ",
"- - % % % o   % % % * - - - O O $ & & .   . % % % % % % % % % * % * * $ % % % % % % % % & . & $ o O - - - . % % % . . % % % % ",
"O % % % % % % . % % O - - = = 2 = ; ; ; ; ; $ $ % % % $ & % & & & & * % - % - - $ $ = ; ; ; : ; 1 = = - - % % . . % % % - O - ",
"O % % % % . % % % % $ = @ @ 5 i N v C C z t 7 ; ; = - % $ & % & . & * % - $ = ; = 4 t b C v v b i 5 + ; $ - - % % % . % % % % ",
"-   % - % % % % $ : ; # w H o.:.O.O.o.o.:. .E U t 7 = - - .   % % % o - $ = 7 t L E :.:.o.:.O.O.o.^ G 0 # ; : . % * % % - . . ",
"- - % % % % - - $ ; t A W ,.5.:.s.a.a.a.a.a.:.^ ^ U a ; $ - - o o - - $ ; d U  ._ :.a.a.s.s.a.a.o.:.:.o.A q # = $ - % % % % % ",
"& % * % O % - = # j W :.5.5.s.a.a.a.a.0.a.a.a.s.s.:.^ F r $ $ - - $ $ r A ^  .5.s.a.a.a.a.0.a.a.a.5.5.:.,.W z ; = O % % % % * ",
"& * . % - % = 1 F W ,.5. .a.a.r.0.0.0.0.a.0.a.a.a.^  .,.E g ; = $ # g E  . . .a.a.a.0.a.0.a.0.0.0.5.5.[ 5.5. .A 1 = - - o * * ",
"* * % % - - 2 b :.:.a.0.0.0.s.a.a.a.a.a.a.s.s.a.0.0.#.5.:.{ c > 3 v ^ :.5.r.0.s.a.r.s.s.a.a.a.a.a.a.a.0.0.6.:.^ g 1 $ O % % % ",
". . % $ $ = g _  .a.@.@.@.0.a.s.a.a.s.a.a.a.a.0.0.0.a.:. .5. .K K ^ a. .#.a.a.@.0.a.a.a.a.a.a.a.s.a.0.@.@.@.a.:.E a = $ $ % . ",
"  . % * @ 0 H :.a.a.@.@.0.a.a._ 5.5.5.5.0.a.0.a.a.a.s.a.a.a.5.5.a.a.a.a.a.s.s.a.a.0.a.0.5.5.5.a.:.a.a.r.@.0.0.s.O.H q # $ % . ",
". . % % ; v ^ 5.a.0.0.0.a.r.s.a.5.5.5.5.a.0.0.a.a.s.s.a.a.a.0.0.a.0.s.a.s.a.a.a.a.0.0.a.5.[ 5.a.a.s.s.a.0.@.0.a.s._ z ; - % . ",
". % O - 4  .:.a.a.a.@.0.a.5.5.5.5.a.a.a.a.a.0.a.a.a.a.a.a.a.a.a.0.a.a.a.a.a.s.a.a.a.a.a.a.a.a.a.a.a.s.a.0.@.a.a.a. . .4 - % % ",
"& * % - e  .:.a.a.a.0.0.a.5.5.6.a.a.a.a.a.a.a.a.a.a.a.a.a.a.a.a.a.a.a.a.a.a.a.a.a.a.a.a.a.a.a.a.a.5.:.s.0.0.a.s.a.,.,.e $ % * ",
"& $ - - c :.5.a.a.a.0.0.a.:.5.5.a.a.a.a.a.a.a.a.a.a.a.a.a.a.a.a.a.a.a.a.a.a.a.a.a.a.a.a.a.a.a.a.a.5.s.s.a.@.a.a.a.5.:.N - % $ ",
"& % - $ L 5.5.a.a.a.0.a.s.s.5.6.a.a.a.a.a.a.a.a.a.a.a.a.a.a.a.a.a.a.a.a.a.a.a.a.a.a.a.a.a.a.a.a.0.5.s.a.a.0.a.a.a.5.5.H = % % ",
"% % % = T ,.6.0.a.a.0.a.s.s.5.6.a.a.a.a.a.a.a.a.a.a.a.a.a.a.a.a.a.a.a.a.a.a.a.a.a.a.a.a.a.a.a.a.a.5.a.a.a.0.a.a.0.6.5.T = O % ",
"% % % = W ,.6.@.0.a.a.a.s.s.a.a.0.a.a.a.a.a.a.a.a.a.a.a.a.a.a.a.a.a.a.a.a.a.a.a.a.a.a.a.a.a.a.0.0.5.s.s.a.a.a.0.@.0.5.W = - - ",
"% % O = T ,.0.@.0.a.a.a.s.s.a.a.a.a.a.a.a.a.a.a.a.a.a.a.a.a.a.a.a.a.a.a.a.a.a.a.a.a.a.a.a.a.a.a.0.a.5.a.a.a.a.0.@.@.5.T 1 O - ",
"% % - ; Y ,.0.@.0.a.a.a.s.a.a.0.a.a.a.a.a.a.a.a.a.a.a.a.a.a.a.a.a.a.a.a.a.a.a.a.a.a.a.a.a.a.a.a.a.a.a.s.a.a.a.a.@.6. .T = O % ",
"O % - $ H  .6.@.0.a.a.s.s.a.a.0.a.a.a.a.a.a.a.a.a.a.a.a.a.a.a.a.a.a.a.a.a.a.a.a.a.a.a.a.a.a.a.a.0.a.s.a.s.a.a.a.@.6. .L ; - - ",
"% % - $ g  .5.6.a.a.a.s.s.a.a.a.a.a.a.a.a.a.a.a.a.a.a.a.a.a.a.a.a.a.a.a.a.a.a.a.a.a.a.a.a.a.a.a.a.a.a.a.s.a.a.a.6.,. .s - - % ",
"-   % $ 4 { ,.6.a.a.a.a.a.a.a.a.a.a.a.a.a.a.a.a.a.a.a.a.a.a.a.a.a.a.a.a.a.a.a.a.a.a.a.a.a.a.a.a.a.a.a.a.a.a.a.a.5.,. .5 = - % ",
"% . % - # Y  .,.a.a.a.a.a.a.a.a.a.a.a.a.a.a.a.a.a.a.a.a.a.a.a.a.a.a.a.a.a.a.a.a.a.a.a.a.a.a.a.a.a.a.a.a.a.s.a.a.5. .T # - - o ",
". % O % $ l  .5.a.a.a.a.0.a.a.a.a.a.a.a.a.a.a.a.a.a.a.a.a.a.a.a.a.a.a.a.a.a.a.a.a.a.a.a.a.a.a.a.a.a.a.0.a.s.a.a.5. .j ; - % . ",
". %   % ; 7 T ,.5.a.a.a.a.a.s.a.a.a.a.a.a.a.a.a.a.a.a.a.a.a.a.a.a.a.a.a.a.a.a.a.a.a.a.a.a.a.a.a.a.a.0.a.a.a.a.:.:.T 9 - % % . ",
"X * o o = @ s  .5.5.a.a.0.0.s.s.a.a.a.a.a.a.a.a.a.a.a.a.a.a.a.a.a.a.a.a.a.a.a.a.a.a.a.a.a.a.a.s.a.s.0.0.a.a.a.5. .s ; - O % . ",
". . . O - $ , L 5.5.a.0.0.a.a.s.a.s.a.a.a.a.a.0.a.a.a.a.a.a.a.a.a.a.a.a.a.s.a.a.a.a.a.a.a.a.a.a.a.s.a.0.0.5.5.:.Y + = - % % . ",
"* % . o o % ; 4 { X.5.6.@.@.a.s.s.s.a.a.0.0.0.0.a.a.a.a.a.a.0.0.0.a.a.a.s.a.a.a.0.0.0.0.a.a.a.s.s.a.0.@.0.5.X.! , , - . o % . ",
"% . % % o % - ; u ! ,.[ a.a.a.s.s.s.a.a.0.@.0.0.a.a.s.a.a.a.0.0.@.0.a.a.a.s.a.a.6.0.0.@.a.a.s.s.s.a.a.a.[ ,.T e , & . % % % % ",
". % % . % % $ $ , c T ,.s.a.a.a.a.s.a.a.a.0.0.a.a.a.a.a.a.a.a.a.a.0.a.a.a.a.a.a.a.0.0.a.a.s.a.a.0.a.a.5.5.T s + = % o % % % % ",
". % . % % % $ - & + j  .:.:.a.0.0.a.a.a.a.a.a.a.a.a.a.a.a.a.s.a.a.a.a.a.a.a.a.a.a.a.a.a.a.a.a.a.a.a.:.:.^ j # * & % . % % % % ",
"% % % & % % - % = - 1 g _ :.[ a.0.a.a.a.s.a.a.a.a.a.a.a.a.a.a.s.s.a.a.a.a.a.a.a.a.a.a.s.a.a.0.0.0.[ 5.^ l 1 $ - % % % % % * - ",
"% % % * $ * % % O - - 1 g ^ ,.,.0.a.a.a.a.s.s.a.a.a.a.0.a.a.a.s.a.s.s.a.a.0.a.a.s.s.a.a.a.a.0.a.,.,.{ j ; - - o % % $ % $ * % ",
"% % % * % % % o O O - - + c { { a.a.a.a.a.s.a.a.a.a.a.a.a.a.a.s.a.a.a.a.a.a.a.a.a.a.s.a.a.a.a.a.,.{ b # - - o o % % % * % * % ",
"% % % * * % % % o O % $ = , u { s.s.a.a.a.a.a.a.a.a.a.a.a.a.a.a.a.a.a.a.a.a.a.a.a.a.a.a.a.a.a.s.{ g # = - - O o % % % * % % % ",
"% % % % % % % o o o % % $ = , t o.o.s.a.a.a.0.0.a.a.a.a.a.a.0.0.6.0.a.a.a.a.a.a.a.0.a.a.a.s.o.o.g 8 $ $ : % o % . % % % O - % ",
"O % O % % % % % % o % - % $ $ 8 s ^ :. .5.a.6.0.a.a.s.s.a.0.0.0.@.0.0.a.s.s.a.a.a.0.a.a.^ :.o.b 2 $ % $ - % . . % . % % % % % ",
"% % % % % % % % % * % $ % % o $ # c W 5.5.5.5.a.a.s.a.a.a.a.@.@.@.0.0.a.a.a.s.a.0.a.a. .5.^ V < $ % % - * % . % . % o % % O O ",
"% O % o o % % % * % . % % % O % = + g W ,.5.5.6.a.a.a.a.a.0.0.@.0.0.a.a.a.s.a.a.a.a.:. .^ b # = % - - % - * * . . % % % O % O ",
"% % % - O % % % % * * % % % % % % = # u W  . .5.a.a.a.a.a.a.a.a.a.a.a.a.a.a.a.a.a.^ :.o.z 7 ; - % o % o . . % % % % o % % % - ",
"% - % O % O % % . % * % . .   % % - $ # s E :.s.s.a.a.a.a.a.s.a.a.a.a.a.a.a.a.a.5.:.^ b # $ - %   % % % * % . . % % o % O % - ",
"- % % % % - % % o % % % % . . .   . - = + l ^ :.a.a.0.a.a.s.s.s.s.s.a.a.0.a.a.a.:.o.V # = % o % % * % - % % . . % % % % - % % ",
"% % - % % O % % % % % % . % % % % . % - ; # s o.s.a.0.0.a.a.s.s.s.s.a.0.0.0.a.s.o.b 1 = $ % %   % % % * . . % % % % % % % % % ",
"% % % % % % % % % % % % % % % % % % % o O $ 2 t X.X.,.6.@.a.a.s.s.s.a.0.0.5. .{ h 8 % % - % % % % % % % % % % . % % %   % % % ",
"% % % % % % o % % % % % % . o % % . % % % o - , k X.X.[ a.a.a.a.s.s.a.a.[ 5.X.k 7 - o O % % . - % % % % % % % o % % % % % % % ",
"% % % % % % % % % % % % % % % % % % . % % % * $ ; s T :.5.a.a.0.s.a.a.o.5.{ N , $ $ % % % % % % % % % % % % % % % % % % % % % ",
"% % % % % % % % o % % % % % % % - % % % % - $ $ ; + g ^ :. .6.@.0.a.s.:.^ z + = : - - $ % % % % % % % % % % % % % % % % % % % ",
"% % % % % % % % % % % % % % % % % % % % % % $ - $ - ; g { ,.,.[ 6.[ :.:.b 1 - - % - % % . % % % % % % % % % % % % % % % % % % ",
"% % % % % % % % % % % % % % % %   % * * * * % % O - - = h { X.X.,.5.W z 1 - - - o % * & * % % o % % % % % % % % % % % % % % % ",
"% % % % % % % % % . % % % o % % o $ % * * % % o O O - $ # k X.X.{ X.N # = % O O % - - $ * * % . % % . % o % % % % o % % % % % ",
". % % % o % % % % % % % % % % % % % % $ . - % % o O - * ; # u ! ! k # = O O O o % % % & % % % - % % % % % % % % % . % % % % % ",
"% % % % % % % % % % % % % % . % % % % % % % % % % o % % $ $ 7 u u , = & % o o % % % % % % % % % % % % % % % % % % % % % o % % ",
"% % o % % % . o % % % % % % % % % % % % % % % % % o % % % % $ : : . % $ - % % % % % % % % % % O % % % o % % o % % % % % % % % ",
"% % % % % % % % % % % % o % % % % % % % % % % % % . $ - - % % o o % % * $ % % % % % % % % % % % % . % % % % % % % % % % % % % ",
"% % % % % % % % % % % % % % % % % % % % o % % % & * * % % - % o % % - % & . & * % % o % % % % % % % % % % % % . % % . % % % . ",
"% % . % % % % % % % % % % % % % % % % % % % % % $ - % * . % o o o . % . . % * * % % % % o % % % % % % % % % % % % % % % % % % ",
"% % % % % o % % % % . % % % % % % % % % % % % o . % * % % % . % .   . . . % % % % % % % % % % . % % % % % o % % % % % % % % % ",
"% % % % % % % % % % o % % % % % % % % % % % % % % % % % % % % - % % % * * % % . % % % % % % % % % % % % % % % % % o % % % % % "
};
