/* XPM */
static char *_21e6927706a4a3b849a956ca1b88800rV4hVZYGfb3DcUfz[] = {
/* columns rows colors chars-per-pixel */
"63 63 237 2 ",
"   c #2A0000",
".  c #220000",
"X  c #330000",
"o  c #4C0003",
"O  c #78131F",
"+  c #700914",
"@  c #5C5B5C",
"#  c #57585B",
"$  c #7A4C55",
"%  c #6A595A",
"&  c #73545B",
"*  c #7B545B",
"=  c #7A595E",
"-  c #76585C",
";  c #6D4F57",
":  c #5B5C61",
">  c #635D64",
",  c #6A5D64",
"<  c #725C61",
"1  c #7B5C62",
"2  c #785760",
"3  c #5B6667",
"4  c #636365",
"5  c #6B646A",
"6  c #696368",
"7  c #75676C",
"8  c #820F1E",
"9  c #8E172B",
"0  c #A71934",
"q  c #8E2533",
"w  c #B9223E",
"e  c #BC3E53",
"r  c #D13351",
"t  c #854E5A",
"y  c #894A56",
"u  c #964857",
"i  c #83525C",
"p  c #8A525D",
"a  c #805157",
"s  c #90515D",
"d  c #82474D",
"f  c #BB4A58",
"g  c #865862",
"h  c #955663",
"j  c #B6586A",
"k  c #846168",
"l  c #BA6979",
"z  c #AD6876",
"x  c #C7536E",
"c  c #DD4D72",
"v  c #C45773",
"b  c #D75774",
"n  c #D45069",
"m  c #EC5672",
"M  c #ED5873",
"N  c #EC5B7B",
"B  c #E65677",
"V  c #F45B75",
"C  c #F45D7B",
"Z  c #F25774",
"A  c #E74A6C",
"S  c #CA6B7B",
"D  c #D6677C",
"F  c #C1727F",
"G  c #E5627A",
"H  c #ED657C",
"J  c #EC6B7C",
"K  c #E66779",
"L  c #F4637C",
"P  c #FC657D",
"I  c #F56A7D",
"U  c #FB697E",
"Y  c #F16176",
"T  c #977C84",
"R  c #BC7586",
"E  c #A67C88",
"W  c #C76C81",
"Q  c #D56D84",
"!  c #DB6C84",
"~  c #D96782",
"^  c #C57385",
"/  c #CC7485",
"(  c #C9798A",
")  c #D37084",
"_  c #D4758A",
"`  c #D97788",
"'  c #CB7C90",
"]  c #DD7C92",
"[  c #D47E93",
"{  c #E46C83",
"}  c #EC6C84",
"|  c #E96985",
" . c #F56581",
".. c #FD6582",
"X. c #F46C83",
"o. c #FD6C83",
"O. c #F56E88",
"+. c #FC6D89",
"@. c #E47284",
"#. c #EB7186",
"$. c #E4758B",
"%. c #EB738A",
"&. c #EC7B8D",
"*. c #E47988",
"=. c #F47284",
"-. c #FC7185",
";. c #F4738B",
":. c #FD748B",
">. c #F57A8D",
",. c #FB7A8D",
"<. c #EA7D92",
"1. c #E57C92",
"2. c #FE7691",
"3. c #F57D94",
"4. c #FC7B92",
"5. c #F57C96",
"6. c #98868C",
"7. c #8B9295",
"8. c #96979D",
"9. c #838A8D",
"0. c #A9858D",
"q. c #B7828E",
"w. c #B68895",
"e. c #A8949B",
"r. c #B4939C",
"t. c #919FA0",
"y. c #A79DA4",
"u. c #B89CA8",
"i. c #92A2A6",
"p. c #97A5AB",
"a. c #9BB1B8",
"s. c #ACA5AA",
"d. c #B2A3AA",
"f. c #A2AFB0",
"g. c #B8A9B2",
"h. c #A6B3B5",
"j. c #AAB7BA",
"k. c #B6B4B9",
"l. c #C3818E",
"z. c #C88997",
"x. c #D48D9A",
"c. c #D98696",
"v. c #D9919C",
"b. c #C9929B",
"n. c #E38294",
"m. c #E88699",
"M. c #F28499",
"N. c #F58396",
"B. c #E38A97",
"V. c #CA9AA8",
"C. c #D89CA8",
"Z. c #DE8FA2",
"A. c #EB91A4",
"S. c #EC9DAE",
"D. c #E298A8",
"F. c #F29BAE",
"G. c #F693A4",
"H. c #EF90A6",
"J. c #DBB4BE",
"K. c #D4A5B3",
"L. c #ECA1AC",
"P. c #EBA4B3",
"I. c #E6AEBA",
"U. c #FDAAB5",
"Y. c #FBAAB6",
"T. c #A9BDC5",
"R. c #B4BEC0",
"E. c #CDBEC3",
"W. c #FCB8C4",
"Q. c #B3C2C3",
"!. c #B3C4CB",
"~. c #B9C7CB",
"^. c #B9CDD4",
"/. c #BED8DD",
"(. c #BED4DA",
"). c #ACC1C9",
"_. c #BEDBE1",
"`. c #C4C9CC",
"'. c #C7CED2",
"]. c #D2CAD2",
"[. c #C4D1D5",
"{. c #C3D6DC",
"}. c #CBD5DB",
"|. c #C4D9DD",
" X c #CADADE",
".X c #CFD3D4",
"XX c #D4D3D6",
"oX c #D3D5DA",
"OX c #D3D9DC",
"+X c #DCD8DC",
"@X c #FEC8D5",
"#X c #F4CCD3",
"$X c #C5DCE2",
"%X c #CADDE3",
"&X c #CAD9E3",
"*X c #D3DCE4",
"=X c #D9DBE2",
"-X c #EADCE1",
";X c #FFDCE6",
":X c #CBE1E5",
">X c #CDE2E9",
",X c #C5E0E5",
"<X c #D2E4E7",
"1X c #DAE2E5",
"2X c #D2E4EA",
"3X c #D4E9ED",
"4X c #DAEBEE",
"5X c #DAE5EA",
"6X c #DCEBF0",
"7X c #D5E9F1",
"8X c #E4E4E9",
"9X c #FCECED",
"0X c #FFE4EB",
"qX c #E4EEF3",
"wX c #FEEDF3",
"eX c #F8EBF2",
"rX c #E4F2F4",
"tX c #ECF4F7",
"yX c #F4F5F4",
"uX c #FDF4F5",
"iX c #FDFAF7",
"pX c #FEF5FA",
"aX c #F6FDFD",
"sX c #FEFEFA",
"dX c #FFFAFE",
"fX c #FAFFFE",
"gX c #FFFCFD",
"hX c #FFFFFD",
"jX c #FFFDFF",
"kX c #FCFFFF",
"lX c #FEFEFE",
"zX c #FFFEFF",
"xX c white",
"cX c #FEFFFF",
"vX c #FCFEFD",
"bX c #FEFEFE",
"nX c #F5F8F8",
/* pixels */
"xXxXxXxXxXxXxXxXvXvXvXvXvXvXvXvXvXvXdXvXvXvXvXvXvXpXiX= $ * p y * - uXsXvXvXdXvXxXvXvXxXvXdXvXvXvXvXxXxXxXxXxXvXxXxXxXxXxXxXxX",
"xXxXxXxXxXxXxXxXvXxXxXvXvXvXxXxXvXvXvXvXvXvXvXvXdXpXuX& V.L.S.D.l.* 1 uXvXvXvXvXvXaXsXxXvXvXvXvXvXvXxXxXxXxXxXvXxXxXxXxXxXxXxX",
"xXxXxXxXxXxXxXxXxXxXxXxXxXxXxXvXvXaXvXvXvXvXxXxXdXdX= i z.A.G.$.] ' $ dXdXvXvXvXvXxXvXxXxXxXvXaXvXxXxXxXxXxXxXvXxXxXxXxXxXxXxX",
"xXxXxXxXxXxXxXxXxXxXxXxXxXxXxXxXaXvXxXvXxXxXxXxXdX9X* x.A.M.| ;.;._ h pXuXaXaXvXvXxXxXsXxXxXaXaXvXxXxXxXxXxXxXvXxXxXxXxXxXxXxX",
"xXxXxXxXxXxXxXxXxXxXxXxXxXxXxXvXaXvXxXxXxXxXvXvXsX- @Xc.N.;.o.+.:.! y wXvXvXyXvXxXxXxXxXxXxXvXvXxXxXxXxXxXxXxXvXxXxXxXxXxXxXxX",
"xXxXxXxXxXxXxXxXxXxXxXxXxXxXxXxXvXxXvXvXxXvXaXvXdX= L.n.N.-.o.o.X.#.v.$ dXvXvXvXxXxXxXxXvXsXsXvXvXxXxXxXxXxXxXvXxXxXxXxXxXxXxX",
"xXxXxXxXxXxXxXxXxXxXxXxXxXxXxXxXxXsXvXvXxXaXaXaXiX* L.&.N.-.L -.;.%.l i wXvXvXpXxXvXxXxXvXxXsXsXvXxXxXxXxXxXxXvXxXxXxXxXxXxXxX",
"xXxXxXxXxXxXxXxXxXxXxXxXxXxXxXxXxXsXvXvXvXvXaXvXxX* D.&.,.U :.U =.K ( p & dXvXvXxXvXxXxXxXsXxXsXvXxXxXxXxXxXxXxXxXxXxXxXxXxXxX",
"xXxXxXxXxXvXvXvXxXxXxXxXxXxXxXxXvXvXdXdXvXxXvXvXuX* x.1.>.-.I -.O.=.S x.* dXdXxXvXvXxXxXpXvXvXvXxXvXvXxXxXxXnXxXxXxXxXxXxXvXvX",
"xXxXxXxXvXvXvXvXxXxXxXxXxXxXxXxXvXnXvXvXdXxXeXxXpXi u M.} o.:.U P H >./ p & uXvXnXxXsXaXxXvXvXdXxXnXxXnXxXiXxXsXxXxXxXxXxXxXvX",
"xXxXxXxXvXvXvXvXxXxXxXxXxXxXxXxXvXaXvXpXvXdXsX9X* u A.5.-.P U U +.o.| $.F t 1 uXvXnXaXsXsXxXpXvXvXxXvXnXxXxXsXsXxXxXxXxXxXvXvX",
"vXvXxXxXvXvXxXvXxXxXxXxXxXxXxXxXvXaXvXvXdXdXuXi y A.#.:.+.-.-.-.o.:. .O.<.^ t * & uXiXsXnXvXvXvXvXvXdXxX4 # xXxXxXxXxXxXvXvXvX",
"xXvXvXvXvXvXvXvXxXxXxXxXxXxXxXxXxXvXyXxXiX9X* y B.N.2...+.P I -.o.:.:.:.;.$.W ' i < % sXaXaXdXpXvXnXxX6 XX4 xXnXxXvXvXvXvXxXvX",
"vXvXxXvXvXxXxXxXxXxXxXxXxXxXxXxXxXxXvXuXuX- t Z.M.O.+...P o.,.J ,.:.:.2.2.%.$.) / Y.= sXyXvXvXvXdXvX@ @ XX8XiXiXvXvXvXvXvXvXxX",
"vXvXvXvXvXxXxXxXxXxXxXxXxXxXxXvXpXvXpXuX* p c.m.%.+.o.+.-.U -.U -.>.+.4.O.4.X.;.{ ) @X1 pXxXnXdXvXxX> 8X+X.X4 @ vXvXvXvXvXvXvX",
"vXxXvXvXxXxXxXxXxXxXxXxXxXxXxXxXxXvXpX* y v.m.%.=.+.o.o.o.U -.U -.-.,.;.O.2.O.+.O.D ` a < vXvXvXvXpX4 OXOX1X+X4 vXvXvXvXxXxXvX",
"xXvXxXxXxXxXxXxXxXxXvXvXvXxXsXxXvXpX0Xt u M.>.O.o.X.X.o.o.o.o.o.U -.-.,.:.:.:.:.O.| D L.2 vXdXvXvX> 8X5X$X>X X3 5 vXxXvXaXvXxX",
"vXvXxXxXxXxXxXxXxXxXvXxXxXxXxXxXvXpX* s G.%.;.o.-.=.=.X.+...o.-.U U -.I =.U -.-.:.%.#./ t 1 dXdXdX, =X*X,X_.>X}.# vXvXsXvXnXvX",
"vXvXxXxXxXxXxXxXxXxXvXvXxXxXsXxXpX< g c.n.,.o.o.o.-.-.o.o.o.o.o.-.U I I U U -.:.X.:.%./ I.1 wXvXvX, OX%X>X,X(.%X> 5 vXvXvXvXvX",
"vXxXxXxXxXxXxXxXxXxXvXvXxXxXsXdXvX& z.S.&.;. .o.o.-.X.-.+.o.o.o.-.U I I -.-.-.:.+.4.;.Q b.2 < dXvX> =X:X/.,X,X&XoX> vXsXsXaXxX",
"xXxXxXxXxXxXxXvXxXxXvXxXxXxXxXdXwX2 Z.1.%.O.o.o.o.o.-.o.o.o.o.o.U P U I o.o.+.-.-.4.;.` ' ;X1 pXvX> =X7X/./.3X:XXX, dXvXsXaXxX",
"xXxXxXxXxXxXvXvXxXxXxXxXxXxXdXdXwXh A.N.4.I U o.o.o.o.-.o.o.o.o.P P U I P o.o.o.-.2.2.<.l @X; dXvX> =X*X:X_.,X{.XX# vXvXnXvXvX",
"xXxXxXxXxXxXxXvXxXxXxXxXxXxXsXdXpX$ m.5.O.+.O.-.o.o.-.o.o.o.o.U P P P I I P o.+.+.4.2.%./ W.1 pXxX4 =X&X$X_.>X2XoX> vXuXxXsXvX",
"xXxXxXxXxXxXvXvXxXxXxXxXxXxXvXiX0Xi G.5.O.I -.U o...o.o.o.o.U U P I o.X.I P o.-.+.-.2.$.W P.1 dXxX# 8X=X X$X,X%XOX> vXxXnXxXvX",
"vXxXvXvXxXvXxXxXxXxXxXxXxXvXsXdX9Xa m.>.=.-.-.I U U o.o.o.o.P P U o.I I o.P U o.O.-.;.%.Q P.= dXxXvX3 *X%X/.>X%X XsXsXsXxXsXxX",
"vXvXvXvXxXxXxXxXxXxXxXxXxXvXdXdX9Xi H.4.:.:.N.-.o.o.o.o.o.U P U U U  .U I o.o.+.-.,.:.%.Q P.* dXxXnX7 =X&X$X$X$XOX# xXxXxXiXxX",
"xXxXxXxXxXxXxXxXvXxXxXxXxXvXvXdX9X* A.3.>.,.,.>.-.o.o.o.U U U P P o.X.I o.o. .-.-.4.4.%.Q L.= sXxXvX: =X5X%X$X:X<X5 dXsXxXxXxX",
"xXxXxXxXxXxXxXxXxXvXxXxXxXvXvXvX9X* A.3.>.,.>.;.:.:.-.o.U U P P P I P P X.P o.o.-.4.4.>.! S.* sXxXvX> 8X*X[.:X{.# xXiXxXsXsXyX",
"xXxXxXxXxXxXxXxXvXvXxXxXvXvXvXdX9X* A.N.4.>.3.>.,.:.-.U U U P P P I U o.o.o...-.:.,.,.;.~ F.* iXvXxXnX5 =X&X&X&XrXaXiXsXsXyXxX",
"xXxXxXvXvXvXvXvXxXxXvXxXvXvXvXvX9X- A.N.>.4.4.>.,.,.-.U P P U U P P ..I P U P o.-.N.,.%.~ F.2 dXvXvXdX, =X}.{. X3 vXsXyXsXxXxX",
"vXvXvXvXxXvXvXvXvXxXxXxXvXvXvXvXwXt A.5.5.:.>.>.,.,.U U P P I I P U U P P P P o.-.,.,.#.{ F.= iXsXvXvX, -X&X<X|.3 sXxXsXxXsXxX",
"vXvXxXvXvXvXvXvXaXvXvXvXvXxXvXxXwX2 C.A.m.1.<.&.,.,.U I P U U I P o... .o. .P o.o.>.;.J D F.= sXiXdXnX5 4 oX.X XtXvXdXiXxXsXsX",
"vXxX.Xk.}.=XtX4XqXtXqXtXqX7X5X5XXXd.r.e.w.R x.] 5.2. .X.I Y o.P I o. ...X.I o.P P o.J #.D F.& dXiXxXxXvX> oXoX> 4 aXxXvXdXsXdX",
"vXvX~.7.t.7.i.i.p.p.p.p.p.i.i.i.8.8.y.y.s.u.V.' m.<.S J #.I U P } { K %.X.I P o.P P L } D S.2 vXxXnXnXxX> +X].> vXvXvXvXxXpXsX",
"vXxXoXj.{.^.~.~.T.T.~.R.!.!.!.R.Q.`.'.oX].V.V.z.b.    + @.I ..+.*.    X J O.P P U P P } D L.* uXxXxXvXxX# > XX5 vXxXnXpXvXpXvX",
"xXaXOXk.tXqX7X2X*X*X7X&X<X>X%X%X,X%X&X8X&Xy.V.r.b.. .   %..... .n.X   X b o.L U U U o.X.D F.* dXyXxXaXtXxX> ].> vXdXvXdXdXvXvX",
"xXvX=Xj.qX2X%X<X>X%X%X$X&X%X&X{.{.{.$X6X[.k.J.z.C.o X q %.L ....;.9 o q K o.P o.U Y U =.@.F.* iXsXnXvXvXvX=XE., vXeX> xXvXvXxX",
"aXaX8Xj.qX4X>X7X>X&X>X(.$X%X,X{.$X(.&X3X[.K.E.' ` n.*.#.X....... .O.%.{ :.L o.Y U I I -.K n.h uXdXvX`.yX% y.6.y.> 5 6 vXvXvXvX",
"xXxXtXf.<X2X<X>X>X*X*X!.(.%X>X|.&X&X&X7X[.g.K.' n.G X.X. .....+.+. .| | | X.P P U U K I #.J d - pX% < < 2 w.0.u.< 6.8XpXpXvXvX",
"nXxXaXh.<X<X>X2X>X>X2XT.^.%X>X$X$X&X%X2X}.g.V.' @.;.X.X.} ;.O.O.} #.%.X.;.Y U P Y U -.I =.J l.p $ g ;XI.z.R R R E.< uXiXvXdXvX",
"xXaXxXj.|.4X>X:X>X>X>XT.T.7X>X,X%X%X_.2X[.k.K.( K n *.J S S D S S D N.x K I U P U U U U J ;.! _ L.W.W.F.] _ [ R @X% sXsXxXiXvX",
"xXvXvXQ.[.3X:X>X$X>X7XT.T.7X>X$X,X/.$X3X`.d.b._ 1.9 G.Y.Y.U.Y.Y.W.@XY.0 M -.P U U U I U J ` Q _ ( l ^ / ! $.] R * dXyXsXsXdXvX",
"vXvXvX`.~.3X|.>X7X,X>XT.T.,X&X,X>X|.,X3X~.y.q.c.N.D 8 f n.G.S.L.v.j O e :.-.P P U U N.J S y p p $ p l.R ' / Z.R = iXsXiXsXsXpX",
"vXxXsX1Xj.4X:X,X^.T.T.a.p.T.a.^.>X:X$X<XR.d.' 1.J ,.f + 8 O + + O O 9 I Y L P U U U U N.F p wX#X#X= * a y Z.h h - iXiXnXsXxXvX",
"pXxXxXtXh.3X3X|.$X(.(.T.T.(.(.&X:X:X}.*Xk.r.l.n.>.-.J n w w 0 0 0 r Y U I -.Y o.o.:.+.| / d pXpXdXuXdXuXuXk ; J.uXsXsXsXpXvXvX",
"xXsXvXaXj.[.3X X%X>X2X^.T.7X>X>X X:X.X.Xd.0.n.n.>.J J J Z A r r A U P P I -.-.U -.+.+.%.F t pXvXvXvXxXdXiX-X< < sXiXaXaXvXnXvX",
"xXxXvXaX XQ.2X>X%X%X%X(.T.>X&X$X|.|.OXQ.e.q.B.N.N.U U I o.o.+...o.Y U U I K U o.o.:.O.%.^ g eXvXvXvXvXvXxXdX5 wXxXvXsXxXvXpXvX",
"xXvXvXvXrXj.2X>X7X>X>X^.T.7X&X$X|./.OXk.0.z.B.N.U -.I I Y o.C ..P U U U I U o.o.-.O.+.<.W $ dXpXvXdXvXvXvXxXpXvXvXxXxXxXvXxXaX",
"vXaXvXaXaX~.!.4X<X<X3X/.).>X:X|.(.:X`.e.q.c.&.,.:.=.I I I U P P P P U I U U U P U -.=.@.F i pXpXvXvXvXxXvXvXvXvXvXvXvXvXvXvXvX",
"aXvXvXaXaXtXp. X<X<X>X/.^.:X>X|. XOXs.0.z.] >.,.:.=.=.I P P P P P P I I I U P U U -.=.n.F p pXdXdXvXxXxXxXxXvXvXvXvXxXvXvXvXxX",
"vXvXxXvXvXvX.Xf.4X$X<X,X,X:X,X XOXE.6.q.v.<.4.2.:.-.+...........P ..P U P P P P -.-.4.D / t wXvXvXvXvXxXxXxXvXxXxXxXxXxXxXxXxX",
"xXxXxXxXvXnXxXj.h.rX,X3X/.:X:X<X`.e.0.z.1.N.:.2.+.o. .........P P P o.P P P P P o.o.+.| S t dXdXvXvXxXxXxXxXxXxXxXxXxXxXxXxXxX",
"vXvXvXvXxXnXvXaXh.j.4X<X2X{.3X`.y.E z.B.$.4.:.2.-.+.o... .X.+. .o.O.X.I U U U U o. . .%.W s wXxXxXvXxXxXxXxXxXxXxXxXxXxXxXxXxX",
"vXvXdXdXxXxXnXvXaXt.j.4X<X5X~.7.T w.' <.3.4.:.:.+.o..... .L H H L Y L H L L P I P  .+.| Q s pXxXvXvXvXxXxXxXxXxXvXvXvXxXvXvXvX",
"vXvXvXvXvXvXxXtXaXaXf.i.5XR.7.8.k b.` >.,.-.-.-.L V Z Z Z m B m m m m m M M M M C C  .O.~ d wXvXvXvXvXvXvXvXvXvXvXvXvXvXvXxXvX",
"dXpXvXvXuXvXxXxXaXaXiXk.7.9.8.-Xt / D O.Y Y Y G L C Z Z m V Z Z Z m Z M Z M M M m m B B ~ u 2 vXdXvXvXvXvXvXvXvXvXxXvXvXvXvXxX",
"xXxXsXsXvXvXxXxXxXvXaXxX`.s.eXpXv.b G  .o.o.=.=.-.I L L C  .Z C V L L V A  . . .Z A Z A ~ l $ pXvXvXvXvXxXxXxXxXvXxXvXvXvXvXvX",
"sXvXxXxXvXvXxXxXxXxXvXvXdXvX, 2 z D N :.-.,.-.#.>.I L V  .Z  .C V C L C  . . .A  . . . .b l g % dXvXvXvXvXvXvXvXxXxXxXxXxXxXxX",
"vXvXvXvXvXxXxXxXnXvXnXvXdXpX5 & z ] ~ G L -.;.:.+...C C Z  .N N C C C C  . . .B  .A A c v / g < dXvXvXvXxXvXvXvXxXxXxXxXxXxXxX",
"vXvXvXvXvXxXxXxXvXxXxXdXxXwXvX< a R n.1.{  .H H  .....C  . . . .C Z C C A  .c ~ c ~ | ~ v h $ wXdXvXvXvXvXvXvXvXxXvXvXvXvXvXvX",
"vXvXxXvXvXvXxXxXvXvXvXnXdXvXwXdX- i p ' _ *.>.| | B  .B c c c c A A c c c c c c x e W j R t wXdXvXvXvXxXxXxXvXxXvXvXvXvXvXvXxX",
"xXxXvXvXvXvXvXvXxXnXvXvXvXvXvXvXdXpX1 $ p c.] Q ~ ! ~ ~ ~ x x v b x x j v v x W W ' S.@Xt ; pXdXvXvXxXvXxXxXvXvXxXxXxXxXxXxXxX",
"xXxXxXvXvXvXvXvXvXvXvXvXvXnXvXvXdXvXeXpX1 $ a i t * i p u y y t t t t t t t t t $ 2 $ ; eXpXpXvXvXvXvXvXvXvXvXvXxXxXxXxXxXxXxX"
};
