/* XPM */
static char *enemy_1_1639494803[] = {
/* columns rows colors chars-per-pixel */
"63 63 238 2 ",
"   c #340000",
".  c #3B0000",
"X  c #290000",
"o  c #430000",
"O  c #6F0B17",
"+  c #760519",
"@  c #7B0920",
"#  c #792228",
"$  c #871624",
"%  c #961B2F",
"&  c #A91331",
"*  c #B01632",
"=  c #872431",
"-  c #923841",
";  c #B62D48",
":  c #C12942",
">  c #E43C5F",
",  c #9A444B",
"<  c #955857",
"1  c #BC4557",
"2  c #B0555E",
"3  c #BC5062",
"4  c #CA4D63",
"5  c #DC4D6D",
"6  c #D64C68",
"7  c #C55467",
"8  c #D4556D",
"9  c #DD5874",
"0  c #E04B6C",
"q  c #EB486D",
"w  c #ED556E",
"e  c #E3586C",
"r  c #F0536E",
"t  c #EA4B71",
"y  c #EC5473",
"u  c #E35B74",
"i  c #ED5A74",
"p  c #ED5D7B",
"a  c #E65576",
"s  c #F25673",
"d  c #F25B75",
"f  c #F35D7B",
"g  c #FB5E7B",
"h  c #F55977",
"j  c #F24969",
"k  c #DD616F",
"l  c #DC6D7C",
"z  c #DA6575",
"x  c #CF6975",
"c  c #E3647C",
"v  c #EC647C",
"b  c #E36B7C",
"n  c #EC6B7E",
"m  c #E86476",
"M  c #F56376",
"N  c #F5647C",
"B  c #FC657D",
"V  c #F56A7E",
"C  c #FB697E",
"Z  c #F2717F",
"A  c #B87D8A",
"S  c #A77D8B",
"D  c #F95E81",
"F  c #DF6D80",
"G  c #DB7787",
"H  c #D07A8E",
"J  c #E46D82",
"K  c #EC6D83",
"L  c #E76885",
"P  c #F46380",
"I  c #FD6682",
"U  c #F46C82",
"Y  c #FC6C83",
"T  c #FE6D89",
"R  c #F56F88",
"E  c #E57282",
"W  c #EB7385",
"Q  c #EE748B",
"!  c #E67B8A",
"~  c #EC7C8C",
"^  c #E87888",
"/  c #F47185",
"(  c #FB7185",
")  c #F47389",
"_  c #FD748B",
"`  c #F37A8D",
"'  c #FC798E",
"]  c #F07C87",
"[  c #EA7D93",
"{  c #FE7492",
"}  c #F57D90",
"|  c #FD7C92",
" . c #98888B",
".. c #9D8D93",
"X. c #968C94",
"o. c #97999B",
"O. c #8F8E93",
"+. c #A5848B",
"@. c #BA878E",
"#. c #A78C94",
"$. c #A4939A",
"%. c #A7999A",
"&. c #B5959C",
"*. c #B08491",
"=. c #ACA39A",
"-. c #AD9CA3",
";. c #A099A0",
":. c #BB9CA4",
">. c #95A2A9",
",. c #99A4A8",
"<. c #99B4B6",
"1. c #A8A5A9",
"2. c #BAA7A9",
"3. c #A4ABB2",
"4. c #AAACB1",
"5. c #A7B6B9",
"6. c #B6B5B7",
"7. c #B0B0AE",
"8. c #CC818E",
"9. c #C88996",
"0. c #DA8697",
"q. c #C8969A",
"w. c #C3928D",
"e. c #EB838E",
"r. c #E5848F",
"t. c #F2818F",
"y. c #E28394",
"u. c #EC8392",
"i. c #E38995",
"p. c #EC8A95",
"a. c #EF899F",
"s. c #F48594",
"d. c #FC8394",
"f. c #F38A96",
"g. c #FE8699",
"h. c #F48C9A",
"j. c #FE8C9D",
"k. c #F5929C",
"l. c #FC939E",
"z. c #EC929B",
"x. c #C89BA4",
"c. c #FE94A2",
"v. c #FC9BA6",
"b. c #FF9DA9",
"n. c #F595A0",
"m. c #EB95A2",
"M. c #C6A2A8",
"N. c #D6A7A8",
"B. c #C8B1A9",
"V. c #D8B9B7",
"C. c #CDADB4",
"Z. c #E7AAAB",
"A. c #FFA4AC",
"S. c #FDADAE",
"D. c #F6ABA9",
"F. c #FEB3AE",
"G. c #F6B1AD",
"H. c #FFA5B2",
"J. c #F3AEB4",
"K. c #FFADB4",
"L. c #FFAEB9",
"P. c #ECB4BB",
"I. c #E5BBBE",
"U. c #ECBBBC",
"Y. c #E3B3BA",
"T. c #F6B4B4",
"R. c #FFB3B3",
"E. c #F5B8B7",
"W. c #FEB9B4",
"Q. c #F5B6BA",
"!. c #FEB4BA",
"~. c #F4B9BA",
"^. c #FEB9BA",
"/. c #E9AEB0",
"(. c #B4C0B6",
"). c #F7C0BD",
"_. c #ABBFC6",
"`. c #D6BCC5",
"'. c #E6BCC3",
"]. c #ECBCC3",
"[. c #E7BBC6",
"{. c #FEB4C1",
"}. c #F3BAC1",
"|. c #FCBAC3",
" X c #F4B8C4",
".X c #ADC6C9",
"XX c #B7C4C6",
"oX c #BACBD3",
"OX c #BDD6DB",
"+X c #BDDCDD",
"@X c #B7D3D6",
"#X c #AFCED0",
"$X c #D8C9C6",
"%X c #C2D5DB",
"&X c #C4DBDD",
"*X c #CBDCDD",
"=X c #C6D6D7",
"-X c #D5DBDC",
";X c #D9DDDD",
":X c #D6D6D6",
">X c #D1CDCE",
",X c #E5C3CB",
"<X c #E9C5C7",
"1X c #F8C2C9",
"2X c #EACAD3",
"3X c #FFCAD5",
"4X c #EDD9D6",
"5X c #E3DBDC",
"6X c #E8D5D7",
"7X c #F7D3DA",
"8X c #F9D0CE",
"9X c #CBE0DE",
"0X c #C6E1DD",
"qX c #D6E0DF",
"wX c #E6E0DE",
"eX c #C3D6E1",
"rX c #C4DCE3",
"tX c #CBDCE4",
"yX c #CBDDE9",
"uX c #C8DBE6",
"iX c #D2DCE3",
"pX c #D4DEE8",
"aX c #E4DCE2",
"sX c #F7DEE5",
"dX c #C5E2E5",
"fX c #CCE1E5",
"gX c #CBE3EA",
"hX c #CEEAEC",
"jX c #CFE8E4",
"kX c #D4E4EC",
"lX c #DAE5EB",
"zX c #D4E8ED",
"xX c #D9E5E6",
"cX c #D4E6F2",
"vX c #D5ECF1",
"bX c #E9E5E5",
"nX c #F7E5E7",
"mX c #F7E7F1",
/* pixels */
"R.R.R.R.R.R.R.R.R.R.R.R.R.F.R.R.R.R.R.F.R.F.R.F.W.R.R.!.L.c.s.s.K.R.K.^.K.R.!.K.R.R.R.R.W.F.R.R.R.K.R.F.W.F.F.F.R.R.R.R.R.R.F.",
"R.R.R.R.R.R.R.R.R.R.R.R.R.R.R.R.R.R.R.R.F.R.F.R.R.R.R.S.r.c.c.c.u.k.K.K.K.K.R.R.R.R.R.R.R.R.R.R.K.R.R.R.F.T.W.F.R.R.R.R.R.F.R.",
"R.R.R.R.R.F.R.R.R.R.R.R.R.R.R.R.R.R.R.R.R.F.R.F.R.R.S.i.u.c.g.) E ! K.K.R.K.R.R.R.R.R.W.R.R.R.R.R.K.R.E.F.T.F.F.R.R.R.R.R.R.F.",
"R.R.R.R.R.R.R.R.R.R.R.R.R.R.R.R.R.R.R.R.F.W.F.F.R.R.K.u.j.} Q K / W h.R.R.^.^.K.R.R.R.T.R.R.K.K.R.!.R.R.F.W.F.W.!.R.R.!.R.R.R.",
"R.R.R.R.R.R.R.R.R.R.R.R.R.R.R.R.R.R.R.R.R.R.R.R.R.S.A.l.` ) R _ T K G K.R.R.^.R.R.F.W.T.R.R.K.F.E.R.R.R.W.R.R.R.R.R.R.K.R.R.R.",
"R.R.R.R.R.R.R.R.R.R.F.R.F.R.R.R.R.R.R.R.R.R.R.R.^.F.k.s.} ' T T T U l K.R.J.!.R.R.R.F.T.W.R.R.K.R.R.R.R.R.R.R.R.R.R.!.R.!.R.R.",
"R.R.R.R.R.R.R.R.R.R.R.R.K.R.R.R.R.R.F.R.R.T.F.R.K.R.k.Q | R I I I I n K.^.T.R.R.R.R.R.R.G.R.R.R.F.R.R.R.R.R.R.R.R.R.R.R.R.R.R.",
"R.R.F.R.R.R.R.R.R.R.R.R.R.R.R.R.R.R.R.R.W.R.W.R.K.K.[ s._ T T I I V K b.K.R.J.R.R.R.R.W.R.R.R.R.F.F.R.R.!.!.R.R.R.F.K.F.R.R.R.",
"R.R.F.R.R.R.R.R.R.R.R.R.R.R.R.R.R.R.W.R.T.R.^.K.!.H.s.] _ Y Y Y T B v E R.K.R.^.R.R.R.R.R.R.R.F.F.F.R.R.!.!.R.R.R.R.F.F.F.F.W.",
"R.R.R.R.R.R.R.F.R.R.R.R.R.R.R.R.R.G.R.^.T.R.R.K.K.l.` ' _ T T I I Y v J v.K.!.R.R.R.W.S.R.^.S.W.F.W.F.R.R.^.R.!.R.R.F.F.F.F.F.",
"R.R.R.K.R.R.R.R.R.R.R.R.R.F.R.R.W.T.R.R.K.R.^.K.b.t.` _ ( Y Y I Y T v b ~ A.S.^.S.^.S.R.R.F.R.R.F.R.R.E.}.E.T.^.R.F.F.F.F.F.R.",
"R.R.R.R.R.R.R.R.F.K.R.R.R.R.R.R.R.W.R.F.K.^.K.b.s.` | _ Y T Y T Y _ ( _ c b s.A.R.R.R.K.^.R.G.R.R.F.E.U.8X].~.!.R.F.F.F.F.F.R.",
"R.R.R.R.R.R.R.R.R.R.R.R.R.R.R.R.F.R.R.R.^.H.k.s.} { _ Y Y Y C ( | _ Y ' / W n b H.K.R.S.F.^.F.R.R.R.U.<XwX8X<XQ.R.R.F.F.F.R.R.",
"R.R.R.R.R.R.R.R.R.R.R.R.F.R.R.R.R.R.R.R.R.l.~ } | T Y Y ( T V ( _ _ | | _ U U v W v.R.^.T.F.^.S.R.E.I.4X:XwX,XU.!.R.R.R.F.W.R.",
"R.R.R.R.R.R.R.R.R.R.R.R.R.R.R.R.R.K.R.K.v.u.} | _ T I Y ( Y Y Y ( _ _ _ _ _ T Y k Z A.^.T.R.K.^.L.Q.,X5X:XwX6X X!.!.K.R.T.E.R.",
"R.F.R.R.R.R.R.F.R.R.R.R.R.R.R.R.R.K.^.S.u.~ | R Y T Y T Y C ' V ( _ _ _ ( T Y ( _ z G A.^.S.R.K.!.~.4XqXqX9XbX<X XL.!.R.R.R.L.",
"R.R.R.R.R.R.R.R.R.R.R.R.R.R.R.R.R.K.L.u.j.g./ ( T Y Y Y Y ( ( Z ( ( Y ( ( ( ( ( ( / b p.L.L.J.R.Q. X6X-XyXkXeXaX,XP.R.!.R.R.K.",
"R.R.R.R.R.R.R.R.R.R.R.R.R.R.R.R.R.!.v.d.g._ Y ( _ Y Y Y Y C ( C ( ( Y Y C C Z ( _ n n K K.L.R.E.Q.<X5XiXtXyXeXiX6X<XQ.R.R.R.R.",
"R.R.R.R.F.R.R.R.R.R.F.R.R.R.R.R.!.^.u.g.| U ( R T Y Y Y ( C ( Z U Y C C C C ( ( ( U / l c.K.^.E.~.,X5XiXtXyXrX*XaX7X~.R.R.K.!.",
"R.R.R.R.R.R.R.R.R.R.R.R.R.R.R.R.K.K.! j.' U _ Y Y Y Y T C ( ( C ( Y C C C ( ( ( ( { ) J ! K.K.E.U.7X;XyXpXyXtXuX:X4XE.R.R.R.R.",
"F.R.R.R.F.R.R.R.R.R.R.R.R.R.K.R.R.H.u.g.( T ) Y Y Y Y Y ( Y C ( Y C C B C C C ' ) | _ Q l K.S.E.I.4X-XtXpXuXyX&X=X6XE.G.W.R.R.",
"R.R.R.R.R.R.K.R.R.R.R.F.R.R.R.F.K.n.h.| R ( Y Y Y Y Y Y Y ( ( Z V C C B C C Z ( _ | _ K F H.!.T.U.nXqX*XpXtXyXuX=X6XU.F.R.F.^.",
"R.R.R.R.R.R.R.R.R.R.R.R.R.R.R.R.K.u.j.} R Y U T Y Y T Y C Y C C C C C B C C ( ( _ | ( Q ^ A.^.T.E.nXxXtXkXuXgXdXqX$XE.F.R.F.R.",
"R.R.R.R.R.R.R.R.R.R.R.R.R.R.R.R.L.u.j.| ( Y Y _ ( ( Y Y Y ( C C C C C B C C C C ( _ Q ) F n.K.R.Q.nXqX*XyXeXdX9X:X$XE.W.R.R.R.",
"R.R.R.R.K.R.R.F.R.R.R.R.R.R.R.R.K.e.j.` Y _ _ Y Y Y Y Y C C C C B Y B B C C C ( U ' _ K E h.K.!.E.<XbX9XrXrXrXyX>X'.Q.R.R.R.T.",
"R.R.R.R.R.R.R.R.R.R.R.R.K.R.F.R.L.[ j.' _ _ _ ( ( ( T Y Y C C C C Y B B C C C ( T _ { K E h.K.R.!. XbXqXdX@XrXiX6XI.E.K.R.R.R.",
"F.R.R.R.R.R.R.R.R.R.R.R.R.R.R.K.L.u.j.| _ ' ' ' ( ( ( Y Y C C C Y I B B C B C ( ( | | ) W h.K.R.K.|.sXxXgX#XfX-X6X}.R.K.F.R.R.",
"R.R.R.R.R.R.R.R.R.R.R.R.R.R.R.R.L.e.j.| ' _ _ ' _ ( T C B B C B C C B B B B Z C ( | { ) E f.K.R.K.E.,XbXfX@XfX:X7X}.!.K.R.R.R.",
"R.R.R.R.R.R.R.R.R.R.R.R.R.R.R.K.K.u.j.| _ _ ' _ ' _ Y Y B C B B B C B B B V V ( T | | ) E f.K.R.K.E. XnX9XOXfX:X7X~.K.R.F.W.R.",
"R.R.R.R.R.R.R.R.R.R.R.R.R.R.R.R.L.u.j.} ' ' ' ' ' _ U C C B B C C B B B B C V ( _ | { K b f.R.R.R.^.~.sX-X=X*X-X2X~.E.R.F.R.R.",
"R.R.R.R.R.R.R.F.R.R.R.R.R.R.R.R.!.e.j.| ) ' ' ' ' ( U Y B C C B C Y C B C C C ( ( { | K b f.R.R.R.T.|.7XqX=X*X*X,X~.R.R.S.R.R.",
"R.R.E.E.E.Q.Q.E.E.E.E.E.E.T.Q.!.!.0.m.0.y.r.e.e.' ' Y Y I B B C C C C C C C V Y R _ ( K b s.K.R.W.G.|.1XbX=X*X:X,XQ.R.F.F.R.W.",
"L.^./.B.V.$X'.[.,X].I.).`.'.'.'. X@.&.$.#.S 9.y.} _ U I I I I B B B I R V V T B C C U N m d.R.J.F.F.E.].bX=X9X:XU.^.R.F.F.W.F.",
"K.~.V.1.,.o.$.-.$.$.$.%.%.%.-.-.:.-.3.>.,.o.x.0.u.Q F Q Y B B C I U W z n T d C I V Y M v d.K.R.S.R.R.].mX*XlX:XP.R.R.F.F.F.F.",
"G.E.$X(.9X=X_.3.4.7.4.7.6.5.(..XoX=XrXOX=X1.M.q.0.-   , b Y B C l x   # K C I I B I I d b f.K.W.R.R.!.P.6X5X>X6X|.^.R.F.G.F.R.",
"^.V.$X7.jXzXlXlXtX*XfX*X9X9XdX&X+X+XuXgXpX;.x.9.0.. X   Z B B C W o   . b C B B V Y g Y b k.K.R.R.^.J. X,XsX:XsX].J.W.F.R.R.R.",
"E.Q.2X7.bXzXkXkXkXfXfX=XfX*XdXOX+X+XyXcXyX1.[.0.` 1 o 2 W C C M m l o = K Y B I B T g Y b p.W.G.R.^.}.'.`.mX:XbX<XJ.E.R.E.R.K.",
"L.T.'.%.lXvXkXkXzXtXtXOXfXtXdXOX+XrXyXcXuX1.[.0.Q b ^ E v T M Y T N W Q v U Y I C I I B Z ^ ^.R.R.T.N.].2X..X...`.N.E.R.R.R.!.",
"L.!.].%.bXzXyXcXkXyXrXOXpXyXgXuXrXeXeXcXuX-.N.y.) U R P ( N B B Y D T v R v Y g I B C V U n l.R.K.E.V.&.2.#.:.*.%.=.).W.R.S.E.",
"K.^.].&.xXzXyXzXzXtXdX@XuXuXgXrXOXuXuXcXuX1.x.G J U v R R U B B P Y U Y Y B Y B B C V Y N V W L.K.K.~.:.x.A A H V.B.).D.R.^.^.",
"R.E.~.2.-XhXhXgXyXdXdX#X@XyXyXgXrX&X+XhXuX4.M.8.G 8 ^ F ! F W J G G ! 1 I I B I U V Y V N V m V f.l.K.i.G L L G !.Q.R.R.R.R.R.",
"R.T.Q.C.-XfXgXdXdXdXdX.X#XyXyXrXdX*X%XzXOX-.@.8.Q % |.7X{.H.b.b.^.3X3X$ N I g Y V N ( U n / V V Z Z l E L { R L L.R.K.R.F.F.R.",
"R.F.E.I.>X9XgXtXgXyX+X.XXXtXpXtXfX&X%XlX=X7.A G ) K + = [ H.{.|.z., O 1 I g Y M Y ( ( n b W W n n z l F J L K J L.!.R.F.R.F.T.",
"F.F.^.].7.qXfXfX%X5.<.<.>.>.>.5.tXtX-XpX.X7.H ^ U U 8 + + @ + + $ $ $ n B I g Y / ( ( U ^ k.H.H.A.A.S.K.H.G F v.!.R.R.R.F.W.F.",
"F.F.E.U.1.xXfXtXtXgXdX@X_.pXkXrXdXgXeXiX,.%.0.` _ ( U 5 ; : & & * : M I C Y B Y _ _ ( n l p.K.!.R.K.^.K.R.R.< T.K.K.E.R.F.R.F.",
"F.F.R. X2.xXzXyXfXdXdX+X<.eXuX+XrXuXuXuX,...y.{ Y _ N Y D q > j j I I B C V V T Y _ ( K l p.L.!.K.^.D.K.E./.w.Z.R.!.E.R.R.R.R.",
"R.R.L.|.`.XXcXyXuXtXdX+X5.fXgXuXeXeXyXoX,.#.y.| ( C Y B I Y M B B I B N C C V ( Y T T K J p.L.K.!.R.L.^.R.T.^.J.R.E.E.W.R.K.K.",
"F.!.K.{.,X;.pXkXlXfXdXdX_.tXdX&XyXeXeX3.;.9.u._ ' Y M Y B g Y B Y M C C C V ( C ( T I U b u.L.L.R.R.R.R.R.^.J.^.^.R.E.T.R.K.R.",
"E.R.L.L.].V.>XpXtXzXdXgX.XtXtX%XuX%XOX,.S 0.} { Z Z C B C B I C I B C C U B U Y T T Y Y n u.R.R.R.R.R.R.R.R.R.R.R.R.R.R.R.R.R.",
"T.R.|.R.{.I.#.xXvXdXgXgX.XgX&XgX%XuX3. .9.a.} | ' Z C B B B U I B B C C V V B Y ( ( ( U n e.R.W.R.R.R.R.R.R.R.R.R.R.R.R.R.R.R.",
"T.W.K.R.R.U.,X&.;XvXgXgXeXgXdX+XdX.XX.*.0.Q ) | ( C C B C C Y Y B C C C C C Y Y ( ( Y n b r.R.T.E.R.R.R.F.R.R.R.R.R.R.R.R.R.R.",
"K.R.R.G.E.P.1XM.6.-XfXhXdX+XhXrX=Xo.+.0.[ { { _ Z C V V C B B B I B C C B M V V ( ( Y n b e.R.T.R.R.R.R.R.R.R.R.R.R.R.R.R.R.R.",
"F.W.F.F.R.^.Z.|.:.C.fXfXfXfXrXOXo.#.H [ { { { { _ Y C V C I B B B B B C M B B B C Y Y N v e.!.R.R.R.R.R.R.R.R.R.R.R.R.R.R.R.R.",
"S.F.D.W.F.R.1XJ.P.:.6.*XzXfXoXo. .@.G { { T { { ( T C B B M g g d d M M M B B B V B I N n } !.R.R.R.R.R.R.R.R.R.R.R.R.F.F.R.R.",
"F.F.R.F.W.D.R.R.Q.'.=.=.qX6.O.#.P.G p { { _ { v N d i w w w w r r r w r r s s s h f f v v [ L.L.R.R.F.R.R.R.R.R.R.R.R.R.R.R.R.",
"R.R.F.F.F.R.S.R.T.I.).2.%.O.#.'.L.z B B v K 9 P N f i i y d i i d d i s s s s s y i h i p ` L.K.R.R.R.R.R.R.R.R.R.R.R.R.R.R.R.",
"R.R.R.K.F.F.F.F.R.E.~.'.V.M.Y.^.l m w d / n ' ) _ Y f f f d N p i m v i a a D a f a y P a c u.{.R.R.R.R.R.R.R.R.R.R.R.R.R.R.R.",
"!.!.R.R.R.F.F.R.R.W.T.E.~./.E.K.k e C ( ] ' _ ( _ T N f g f N v v v P v D L D P P p P P 9 u 3 H.K.R.R.R.R.R.R.F.R.R.R.R.R.R.R.",
"!.!.R.R.F.R.F.F.F.W.T.R.^.R.W.A.k Z m e n _ _ T Y I p f D f P a p p P p D D D D P a 5 5 6 c 7 L.R.R.R.R.R.R.R.R.R.R.R.R.R.R.R.",
"!.!.R.!.R.R.F.F.G.W.R.K.K.S.R.S.] m ' d.V v w d T Y f h h p P D D D p p D t 5 a 6 5 a p L 1 h.K.R.R.R.R.R.R.R.R.R.R.R.R.R.R.R.",
"!.K.R.R.R.F.R.F.T.W.R.R.K.S.F.R.A.v.z b ' / ' R a a y y t 5 5 0 q q t t t t 0 6 8 7 l 8 3 A.R.^.R.R.R.R.R.R.R.R.R.R.R.R.R.R.F.",
"^.R.R.F.F.F.F.R.W.R.K.^.K.R.F.F.^.S.H.!.c.b z 9 b n P P p 5 5 5 0 0 0 5 5 5 6 1 3 x h.H.K.L.R.T.R.R.R.R.R.R.R.R.R.F.K.R.R.R.R.",
"R.R.F.F.F.F.R.R.T.R.K.R.F.W.F.R.D.^.R.^.^.K.L.R.v.h.) v u 9 9 z F [ a.c.H.{.H.{.{.K.K.K.R.!.T.R.R.R.R.R.R.R.R.R.R.R.R.R.R.R.R."
};
