/* XPM */
static char *_0a293af57ba4058f8fbe8166a0ec608qliqQ6uFyZbxSDXb[] = {
/* columns rows colors chars-per-pixel */
"63 63 131 2 ",
"   c #010001",
".  c #0D0000",
"X  c #090909",
"o  c #140000",
"O  c #1A0000",
"+  c #200000",
"@  c #F7A6A5",
"#  c #F5ADAD",
"$  c #FDADAD",
"%  c #F5B3AE",
"&  c #FEB3AF",
"*  c #F7AFB0",
"=  c #FEAFB2",
"-  c #FFAFBA",
";  c #EFB7B6",
":  c #ECBBB7",
">  c #EFB7B8",
",  c #EDBCBE",
"<  c #F5B5B5",
"1  c #FFB3B7",
"2  c #FFB2B5",
"3  c #FBB5B5",
"4  c #F8B7B5",
"5  c #FAB6B5",
"6  c #F9B5B6",
"7  c #F9B4B7",
"8  c #FBB5B7",
"9  c #F8B6B7",
"0  c #FAB6B7",
"q  c #FCB4B5",
"w  c #FFB4B4",
"e  c #FFB5B4",
"r  c #FEB4B5",
"t  c #FFB5B5",
"y  c #FCB6B4",
"u  c #FDB6B4",
"i  c #FFB6B5",
"p  c #FDB5B6",
"a  c #FCB4B7",
"s  c #FFB4B6",
"d  c #FFB5B6",
"f  c #FFB5B7",
"g  c #FCB6B6",
"h  c #FDB7B7",
"j  c #FFB7B6",
"k  c #FEB6B7",
"l  c #FFB6B7",
"z  c #FEB3B2",
"x  c #F0B8B7",
"c  c #F5B8B7",
"v  c #FBB8B0",
"b  c #FCB8B7",
"n  c #FFB8B7",
"m  c #FEB9B6",
"M  c #F1B6B8",
"N  c #F2B6B8",
"B  c #F2B5BA",
"V  c #F3B5BA",
"C  c #F6B5B9",
"Z  c #F4B6B9",
"A  c #F7B7B8",
"S  c #F5B4BA",
"D  c #F5B7BA",
"F  c #F7B6BA",
"G  c #F5B3BD",
"H  c #F6B3BC",
"J  c #F3B4BC",
"K  c #F2B5BC",
"L  c #F1B6BC",
"P  c #F5B4BC",
"I  c #F4B7BC",
"U  c #F5B7BC",
"Y  c #F7B6BC",
"T  c #F5B6BE",
"R  c #F4B7BE",
"E  c #F4B7BF",
"W  c #F7B6BE",
"Q  c #FFB1B8",
"!  c #FFB2B8",
"~  c #FEB3B8",
"^  c #FFB0BA",
"/  c #FFB1BA",
"(  c #FEB3BA",
")  c #F8B6B8",
"_  c #FAB5BA",
"`  c #F8B6BA",
"'  c #FDB5B8",
"]  c #FFB4B8",
"[  c #FFB4B9",
"{  c #FFB5B9",
"}  c #FCB6B8",
"|  c #FEB6B9",
" . c #FCB7BA",
".. c #FFB0BC",
"X. c #FEB2BA",
"o. c #F1B9B8",
"O. c #F3B9B8",
"+. c #F2BBB8",
"@. c #F1B9BA",
"#. c #F3B8BA",
"$. c #F4B8B8",
"%. c #F0B9BC",
"&. c #F1B9BC",
"*. c #F3B8BC",
"=. c #F1BABD",
"-. c #F1B8BE",
";. c #F2BBBE",
":. c #F8BABB",
">. c #FCB8B9",
",. c #FFB8B9",
"<. c #FFB9B9",
"1. c #FFB9BA",
"2. c #FFBABA",
"3. c #FFBABB",
"4. c #FDBDBB",
"5. c #FFB8BC",
"6. c #FFBBBC",
"7. c #FFBCBC",
"8. c #FFBDBC",
"9. c #FEBAB9",
"0. c #FFBCC0",
"q. c #F3F3F3",
"w. c gray97",
"e. c #F8F8F8",
"r. c #F9F9F9",
"t. c gray98",
"y. c #FBFBFB",
"u. c gray99",
"i. c #FDFDFD",
"p. c #FEFEFE",
"a. c white",
/* pixels */
"2 2 y & y & = 2 2 2 2 2 6 6 y 2 2 & 2 & & & 2 & 2 & & & 2 & & y & & y & 2 & y & & & & 2 & & 2 & y 2 2 q Q ' 2 2 2 & & & & & y ",
"& 2 2 y 2 & & 2 & 2 & = q 6 2 y & y 2 2 y 2 2 & 2 y 2 y & 2 2 2 2 2 2 & 2 y & 2 2 2 2 y 2 y y 2 & y q 2 ' 2 2 y & & & & & & & ",
"= 2 2 y y & 2 2 2 & $ 2 y 5 y 2 2 y y y q q q q y 2 y 2 2 y y 2 q q y 2 y 2 y 2 2 y y 2 q q q q y & y y y 2 2 y & & & & v y 2 ",
"2 2 q q 2 2 2 & y & 2 & y & & y y 2 y 2 q q q y 2 y 2 y y 2 y y q 2 y y 2 y 2 y y y 2 y q q q y & & & & y y & 2 2 & & & & y 2 ",
"Q Q q q 2 2 y y y & 2 & & & & & & & & y & & 2 & & y & 2 & & & y & y & 2 & y y & & 2 y & y & & & & & & y y y y & & & y & & 2 y ",
"2 2 ' q 2 2 5 5 6 y y & & y & & & & y & y & & & 2 & & & 2 & & & y & & & & & & 2 & & & & 2 & & & & & & 2 2 2 2 y y & & 2 2 y 2 ",
"q q 6 q 2 2 6 < ` ' Q Q 2 2 2 2 2 y 2 & 2 & y y y & y & y y 2 & y & 2 y 2 & Q y 2 & y y & y 2 2 2 = 2 2 Q Q 2 q 2 2 2 & y & 2 ",
"y q 6 q Q ' @.: : *.*.$.N F F < c c c c c c c c c c c c c @.c c c c c c @.c L 0.c c c c c c c c < ` E *.*., *.F 6 y y 2 2 y 2 ",
"2 2 & q 2 ` O . . o . . . .   X . . o X . . o o . . . . . . . . . . . . . . . . . . o X . . o . . X .     . o O + +.< q & 2 & ",
"& & y q Q $.o .                                               X X                                             o O , c u & 2 & ",
"& v & q ' U o                                                                                                 o O , c 5 & & & ",
"& & & q Q *.o           X                                                                           X   X     . O , < y 2 & & ",
"& & & n Q E .       X             X       .                               .     X                     X       o O , < 6 y 2 & ",
"& v y q Q E .           X                           .   X           .                 .     .   X             . o , F q y 2 2 ",
"& v & ' ..0.                                                                                                  . O , > ` 2 & 2 ",
"& y y q Q 0.              .                                                                                   . o 0.N ` y 2 & ",
"y 2 & y 2 @..                                                                                                 . . , 6 Q 5 2 2 ",
"2 2 & y y @..                                                                                                   o 0.7 2 z 5 & ",
"2 q & 2 2 c .                   X                                                     X     X                   o 0.< 2 z 5 & ",
"Q q & y y c .                         X                                                   X                   . . , a 2 z 5 & ",
"' ' 2 y 2 c .                       p.p.p.p.p.p.p.p.p.p.p.p.p.p.p.p.p.p.p.p.p.p.p.p.p.p.p.  X                   . 0.; a z 5 & ",
"2 q & y y @..                       p.p.p.p.p.p.p.p.p.p.p.p.p.p.p.p.p.p.p.p.p.p.p.p.p.p.t.X                     o , S 2 2 5 & ",
"2 y & 2 2 @.X                       p.p.p.p.p.p.p.p.p.p.p.p.p.p.p.p.p.p.p.p.p.p.t.p.p.p.p.                      o , a 2 6 5 2 ",
"2 2 & y 2 L o                       p.p.t.p.p.p.p.p.p.p.p.p.p.p.p.p.p.p.p.p.p.p.p.p.p.p.p.  X                   o , a 2 z z & ",
"q q & 2 & x .                       p.p.p.p.p.p.p.p.p.p.p.p.p.p.p.p.p.p.p.p.p.p.p.p.p.p.p.                      . , S 2 6 5 & ",
"Q ' & & $ x .                       p.p.p.p.p.p.p.p.p.p.p.p.p.p.p.p.p.p.p.p.p.p.p.p.p.p.p.                      . 0.a 2 2 y & ",
"q q 2 2 z c .                       p.p.p.p.p.p.p.p.p.p.p.p.p.p.p.p.p.p.p.p.p.p.p.p.p.p.p.                      o , Q ' 5 5 & ",
"Q q & & z ; .             X         p.p.p.p.p.p.p.p.p.p.p.p.p.p.p.p.p.p.p.p.p.p.p.p.p.p.p.                    . . 0.6 q z 5 & ",
"Q q & & * ; .                       p.p.p.p.p.p.p.p.p.p.p.p.p.p.p.p.p.p.p.p.p.p.p.p.p.p.p.                      o , Q 2 2 y & ",
"' q $ & 2 ; .                       p.p.p.p.p.p.p.p.p.p.p.p.p.p.p.p.p.p.p.p.p.p.p.p.p.p.p.                      o , 6 2 5 y & ",
"Q q & 2 z c .                       p.p.p.p.p.p.p.p.p.p.p.p.p.p.p.p.p.p.p.p.p.p.p.p.p.p.p.                      o , a y 2 5 & ",
"' q $ z z ; .                       p.p.p.p.p.p.p.p.p.p.p.p.p.p.p.p.p.p.p.p.p.p.p.p.p.p.p.                    . o , a 2 2 y y ",
"Q ' 2 y y c .                       p.p.p.p.p.p.p.p.p.p.p.p.p.p.p.p.p.p.p.p.p.p.p.p.p.p.p.                    . o , Q q 2 % & ",
"q q & y 2 c .                       p.p.p.p.p.p.p.p.p.p.p.p.p.p.p.p.p.p.p.p.p.p.p.p.p.p.p.                      o , Q q 5 2 & ",
"2 q & 2 y c .                       p.p.p.p.p.p.p.p.p.p.p.p.p.p.p.p.p.p.p.p.p.p.p.p.p.p.p.                      . 0.` 2 5 5 & ",
"q 2 & y 2 @..                       p.p.p.p.p.p.p.p.p.p.p.p.p.p.p.p.p.p.p.p.p.p.p.p.p.p.p.                      o , 6 2 2 5 & ",
"2 q & y 2 c .                       p.p.p.p.p.p.p.p.p.p.p.p.p.p.p.p.p.p.p.p.p.p.p.p.p.p.p.                    . o , 7 2 q q & ",
"' q & 2 2 c .                       p.p.p.p.p.p.p.p.p.p.p.p.p.p.p.p.p.p.p.p.p.p.p.p.p.p.p.                      . 0.6 Q q y 2 ",
"Q q 2 y & ; .                       p.p.p.p.p.p.p.p.p.p.p.p.p.p.p.p.p.p.p.p.p.p.p.p.p.p.p.                      . , 7 2 q y & ",
"' q & y y c .                       p.p.p.p.p.p.p.p.p.p.p.p.p.p.p.p.p.p.p.p.p.p.p.p.p.p.p.                      o , 7 2 q y & ",
"q 2 & y 2 c .                       t.p.p.p.p.p.p.p.p.p.p.p.p.p.p.p.p.p.p.p.p.p.p.p.p.p.p.                    .   0.a 2 z z 2 ",
"2 2 & 2 y @..                       p.p.p.p.t.p.p.p.p.p.p.p.p.p.p.p.p.p.p.p.p.p.p.t.p.t.p.X                     . 0.< 2 5 5 & ",
"q q & y 2 c .                   X   p.p.p.p.p.p.p.p.p.p.p.p.p.p.p.p.p.p.p.p.p.p.q.p.p.p.y.  X                   o , a 2 z 5 & ",
"Q ' & y y ; .                     X p.p.p.p.q.p.p.p.p.p.p.p.p.p.p.p.p.p.p.p.p.p.p.p.p.p.p.                      o , < 2 a z & ",
"q q 2 y y c .           X           p.p.p.y.p.p.p.p.p.p.p.p.p.p.p.p.p.p.p.p.p.p.u.p.p.y.p.                    . o , N a 5 y & ",
"Q q & y 2 @..                       p.p.p.p.p.p.p.p.p.p.p.p.p.p.p.p.p.p.p.p.p.p.p.t.p.y.p.  X                   o 0.a 2 2 y & ",
"q 2 & y 2 @.X                     X                   X     X         X           X       X                     . 0.< 2 y y & ",
"q 2 & y Q L o                       X     X                                                                     . , 7 2 2 & & ",
"& y & q 2 Y o                                                                                                 . o , c q 2 & 2 ",
"v & 5 q Q E .           X                                                                                       o , c q 2 2 & ",
"v v % n ( U .       X     X                                                                         .         . o , F q & & % ",
"& v v n ..U .           .                                                                                     . o , < q 2 & & ",
"& & 2 ' Q 0..                                                                                                 . o , c q = & & ",
"& 2 2 ' ..U .                                                                                                   o , x 2 = = & ",
"& 2 2 q Q *.o                                                                                                 . o , < q 2 2 2 ",
"$ & 6 >.Y *.o                                                                                                 . o , c q y 2 2 ",
"$ n z 6 ( *.o .                                                                                               . o , ; 4.$ $ >.",
">.@ >.< 7 N O o o o o . . . . . X o . . . . . . . . . . . . . . X . . o . . . . . . . . . . . . X . o X . . o O O > 4.# >.n % ",
"$ q 2 n Q 6.; *.> , L L L J S S ; c > > x ; ; ; ; ; N ; ; ; ; ; > ; > > x ; ; ; ; ; N ; x ; ; ; N L :.$.0.K N x :.6 # >.$ $ 6.",
"y & # 5 Q * 6.< 7 ..Q Q Q Q - 2 2 2 q Q 2 & y 2 y 2 2 y 2 2 2 2 q 2 q Q & 2 y 2 y 2 2 y 2 y 2 2 Q Q Q Q - ..Q 6 & n >.$ 2 2 2 ",
"y $ 4.v 5 q z b ` a 2 2 5 5 5 2 2 & & & 2 & & 2 & & & & & & & & 2 & 2 & & & & 2 & & & & & & & & a z 2 2 2 2 6 4 b % $ & q q % ",
"& n % 5 u 2 q y a 2 2 2 v % v & 2 & & & 2 & & & & 2 2 & & 2 y & 2 & & & & 2 & & & 2 2 & & 2 2 & % 5 2 y 2 q 6 v % 4.& & & 2 y ",
"& 2 & & & & $ n 2 & & = 5 v & & y 2 2 2 2 y 2 2 2 2 2 y 2 2 2 2 y 2 2 y 2 2 2 2 2 2 2 y 2 2 2 y & & & y 2 2 y & v & & & 2 $ 2 "
};
