/* XPM */
static char *_637768701078[] = {
/* columns rows colors chars-per-pixel */
"63 63 171 2 ",
"   c #92042B",
".  c #990F33",
"X  c #9D1738",
"o  c #A21E3F",
"O  c #A4213F",
"+  c #AC2F4B",
"@  c #B1354F",
"#  c #B63C55",
"$  c #B83D56",
"%  c #FC3C44",
"&  c #BC445B",
"*  c #B9495E",
"=  c #BF4B60",
"-  c #A85A6D",
";  c #BE5567",
":  c #B25268",
">  c #BF5669",
",  c #BD5C6E",
"<  c #AD5B70",
"1  c #BB5D71",
"2  c #B66477",
"3  c #BA6275",
"4  c #B76779",
"5  c #BD6779",
"6  c #BA6B7E",
"7  c #B26A7D",
"8  c #C04C5F",
"9  c #FC454D",
"0  c #F7525A",
"q  c #FC525A",
"w  c #C14D61",
"e  c #C55266",
"r  c #C9576A",
"t  c #C45D6E",
"y  c #CB5C6D",
"u  c #C55E70",
"i  c #CE5F70",
"p  c #FC5D64",
"a  c #C1606F",
"s  c #C46273",
"d  c #CC6373",
"f  c #C2697B",
"g  c #C3657A",
"h  c #D16474",
"j  c #D16977",
"k  c #D56B7A",
"l  c #D86E7B",
"z  c #D7707B",
"x  c #DA727E",
"c  c #FC676D",
"v  c #B87184",
"b  c #B97B8C",
"n  c #B67485",
"m  c #BA7F92",
"M  c #C36D80",
"N  c #C47282",
"B  c #C87A87",
"V  c #C77B8C",
"C  c #C87C8D",
"Z  c #DD7581",
"A  c #DF7984",
"S  c #E07783",
"D  c #E27C85",
"F  c #E47F88",
"G  c #F97A81",
"H  c #B68596",
"J  c #BA8292",
"K  c #BA8895",
"L  c #BC8B9B",
"P  c #BC929D",
"I  c #BD8EA0",
"U  c #BE93A4",
"Y  c #BE9AA7",
"T  c #BFA5AD",
"R  c #C7808E",
"E  c #C9818F",
"W  c #D6808E",
"Q  c #C98292",
"!  c #CB8F9D",
"~  c #C08292",
"^  c #D08191",
"/  c #E6828B",
"(  c #E9858D",
")  c #EB888F",
"_  c #ED8C93",
"`  c #F19196",
"'  c #F4959A",
"]  c #F7999D",
"[  c #F89B9E",
"{  c #CD94A1",
"}  c #C99DA8",
"|  c #D093A0",
" . c #D29EA8",
".. c #FA9EA1",
"X. c #D5A4AE",
"o. c #C1A3B1",
"O. c #CBA6B0",
"+. c #C2ABB5",
"@. c #C9ACB7",
"#. c #C2ADB8",
"$. c #D6A6B1",
"%. c #D9ABB6",
"&. c #C6B4BF",
"*. c #CAB0BA",
"=. c #DDB5BE",
"-. c #FDA2A4",
";. c #FDA6A8",
":. c #FDAAAC",
">. c #FDAFB1",
",. c #FDB3B4",
"<. c #FDB7B8",
"1. c #FDBABC",
"2. c #C6B8C5",
"3. c #CABDC7",
"4. c #C7BEC9",
"5. c #C9BFCA",
"6. c #C6B6C3",
"7. c #D5B6C1",
"8. c #D8B7C1",
"9. c #DFBAC4",
"0. c #D3BAC5",
"q. c #E1BDC6",
"w. c #FCBFC0",
"e. c #CAC4CD",
"r. c #CBCAD2",
"t. c #CECFD8",
"y. c #CFD4DC",
"u. c #D1D4DC",
"i. c #E2C0C6",
"p. c #E4C5CC",
"a. c #E5C9CF",
"s. c #FDC4C5",
"d. c #FDCACB",
"f. c #E7C9D1",
"g. c #E8CDD4",
"h. c #FCCFD0",
"j. c #EAD1D7",
"k. c #EAD4DA",
"l. c #EDDADF",
"z. c #FDD5D6",
"x. c #FDD9DA",
"c. c #D1DAE2",
"v. c #DEDFE4",
"b. c #EFDDE1",
"n. c #F0DEE2",
"m. c #FEDEE0",
"M. c #D4E4EB",
"N. c #DBEAEF",
"B. c #DDE5EA",
"V. c #D7ECF2",
"C. c #D8EFF4",
"Z. c #D9F1F7",
"A. c #DBF5FA",
"S. c #DCFAFF",
"D. c #E4EBEF",
"F. c #FEE3E4",
"G. c #F4E7EA",
"H. c #F5E9EC",
"J. c #FEEFEF",
"K. c #F1E2E6",
"L. c #E0ECF0",
"P. c #F6EEF0",
"I. c #FAEFF1",
"U. c #EDF5F7",
"Y. c #E3FAFE",
"T. c #EBFDFF",
"R. c #FAF3F4",
"E. c #F2F7F9",
"W. c #FBF7F8",
"Q. c #F4FDFF",
"!. c #FFFFFF",
/* pixels */
"-.-.-.-.-.-.-.-.-.-.-.-.-.-.-.-.-.-.-.-.-.-.-.-.-.-.-.-.-.-.-.-.-.-.-.-.-.-.-.-.-.-.-.-.-.-.-.-.-.-.-.-.-.-.-...-.-...-.-.-.-.",
"-.-.-.-.-.-.-.-.-.-.-.-.-.-.-.-.-.-.-.-.-.-.-.-.-.-.-.-.-.-.-.-.-.-.-.-.-.-.-.-.-.-.-.-.-.-.-.-.-.-.-.-.-.-.-.-.-.-.-.-.-.-.-.",
"-.-.-.-.-.-.-.-.-.-.-.-.-.-.-.-.-.-.-.-.-.-.-.-.-.-.-.-.-.-.-.-.-.-.-...-.-.-.-.-.-.-.-.-.-.-.-.-.-.-.-.-.-.-.-.-.-.-.-.-.-.-.",
"-.-.-.-.-.-.-.-.-.-.-.-.-...-.-.-.-.-.-.-.-.-...-.-.-.-.-.-.-.-.-.-.-.-.-.-.-.-.-.-.-.-.-.-.-.-.-.-.-.-.-.-.-.-.-.-.-.-.-.-.-.",
"-.-.-.-.-.-.-.-.-.-.-.-.-.-.-.-.-.-.-.-.-.-.-.-.-.-.-.-.-.-.-.-.-.-.-.-.-.-.-.-.-.-.-.-.-.-.-.-.-.-.-.-.-.-.-.-.-.-.-.-.-.-.-.",
"-.-.-.-.-.-.-.-.-.-.-.-.-.-.-.-.-.-.-.-.-.-.-.-.-.-.-.-.-.-.-.-.-.-.-.-.-.-.-.-.-.-.-.-.-.-.-.-.-.-.-.-.-.-.-.-.-.-.-.-.-.-.-.",
"-.-.-.-.-.-.-.-.-.-.-.-.-.-.-.-.-.-.-.-.-.-.-.-.-.-.-.-.-.-.-.-.-.-.-.-.-.-.-.-.-.-.-...-.-.-.-.-.-.-.-.-.-.-.-.-.-.-.-.-.-.-.",
"-.-.-.-.-.-.-.-.-.-.-.-.-.-.-.-.-.-.-.-.-.-.-.-.-.-.-.-.-.-.-...-.-.-.-.-.-.-.-.-.-.-.-.-.-.-.-.-.-.-.-.-.-.-.-.-.-.-.-.-.-.-.",
"-.-.-.-.-.-.-.-.-.-.-.-.-.-...-.-.-.-.-.-.-.-.-.-.-.-.-.-.-.-.-.-.-.-.-.-.-.-.-.-.-.-.-.-.-.-.-.-.-.-.-.-.-.-.-.-.-.-.-.-.-.-.",
"-.-.-.-.-.-.-.-.-...-.-.-.-.-.-.-.-.-.-.-.-.-.-.-.-.-.-.-.-.-.-.-.-.-.-.-.-.-.-.-.-.-.-.-.-.-.-.-.-.-.-.-.-.-.-.-.-.-.-.-.-.-.",
"-.-...-.-.-.-.-.-.-.-.-.-.-.-.-.-.-.-.-.-.-.-.-.-.-.-.-.-.-.-.-.-.-.-.-.-.-.-.-.-.-.-.-.-.-.-.-.-.-.-.-.-.-.-.-.-.-.-.-.-.-.-.",
"-.-.-.-.-.-.-.-.-.-.-.-.-.-.-.-.-.-.-.-.-.-.-.-.-.-.-.-.-.-.-.) ) ] -.-.-.-.-.-.-.-.-.-.-.-.-.-...-.-.-.-.-.-.-.-.-.-.-.-.-.-.",
"-.-.-.-.-.-.-.-.-.-.-.-.-.-.-.-.-.-...-.-.-.-.-.-.-.-.-.-.-.-.w o h -.-.-.-.-.-.-.-.-.-.-.-.-.-.-.-.-.-.-.-.-.-.-.-.-.-.-.-.-.",
"-.-.-.-.-.-.-.-.-.-.-.-.-.-.-.-.-.-.-.-.-.-.-.-.-.-.-.-.-.-.-.&   r -.-.-.-.-.-.-.-.-.-.-.-.-.-.-.-.;.-.-.-.-.-.-.-.-.-.-.-.-.",
"-.-.-.-.-.-.-.-.-.-.-.-.-.-.-.-.-.-.-.-.-.-.-.-.-.-.-.-.-.-./ O $ $ ' -.-.-.-.-.-.-.-.-.-.-.>.d.-.-.d.>.-.-.-.-.-.-.-.-.-.-.-.",
"-.-.-.-.-.-.-.-.-.-.-.-.-.-.-.-.-.-.-.-.-.-.-.-.-.-.-.-.-./ * # + l -.-.-.-.-.-.-.-.-.-.-.-.:.x.:.:.z.:.-.-.-.-.-.-.-.-.-...-.",
"-.-.-.-.-.-.-.-.-.-.-.-.-.-.-.-.-.-.-.-.-.-.-.-.-.-.-.-.] w _ ' D ' -.-.-.-...' ` ` ` ] -.-.-.,.;.,.d.-.,.h.;.-.-.-.-.-.-.-.-.",
"-.-.-.-.-.-.-.-.-.-.-.-.-.-.-.-.-.-.-.-.-.-.-.-.-.-.-.;.D y ;.-.-.-.;...( k s g B B N s s h D ' -.:.-.:.z.<.-.-.-.-.-.-.-.-.-.",
"-.-.-.-.-.-.-.-.-.-.-.-.-.-.-.-.-.-.-.-.-.-.-.-.-.-.-.-.k k -.-.-.-.) t V 9.K.R.!.W.W.R.n.q.| f s / ..;.:.-.-.-.-.-.-.-.-.-.-.",
"-.-.-.-.-.-.-.-.-.-.-.-.-.-.-.-.-.-.-.-.-.-.-.-.-.-.-.-.S i ;.-.-.l f f.!.!.!.!.!.!.!.!.!.!.!.R.f.C t F -.-.-.-.-.-.-.-.-.-.-.",
"-.-.-.-.-.-.-.-.-.-.-.-.-.-.-.-.-.-.-.-.-.-.-...-.-.-.-.` w ` -.j J P.!.!.!.!.!.!.!.!.!.!.!.!.!.!.!.g.C s ` -.-.-.-.-.-.-.-.-.",
"-.-.-.-.-.-.-.-.-.-.-.-.-.-.-.-.-.-.-.-.-.-.-.-.-.-.-.-.-.l i l J U.!.!.!.!.!.!.!.!.!.!.!.!.!.!.!.!.!.W.8.s / -.-.-.-.-.-.-.-.",
"-.-.-.-.-.-.-.-.-.-.-.-.-.-.-.-.-.-.-.-.-.-.-.-.-.-.-.-.-...w < N.!.!.!.!.!.!.!.!.!.!.!.!.!.!.!.!.!.!.!.!.b.N z -.-.-.-.-.-.-.",
"..-.-.-...-.-.-.-.-.-.-.-.-.-.-.-.-.-.-.-.-.-.-.-.-.-.-.-.-.u e.T.!.!.!.!.!.!.!.!.!.!.!.!.!.!.!.!.!.!.!.!.!.P.V k -.-.-.-.-.-.",
"-.-.-.-.-.-.-.-.-.-.-.-.-.-.-.-.-.-.-.-.-.-.-.-.-.-.-.-.-./ b S.Q.!.!.!.!.!.!.!.!.!.!.!.!.!.!.!.!.!.!.!.!.!.!.R.V z -.-.-.-.-.",
"-.-.-.-.-.-.-.-.-.-.-.-.-.-.-.-.-.-.-.-.-.-.-.-.-.-.-.[ Z * e.S.Q.!.!.!.!.F.R.W.H.!.!.!.!.!.!.!.!.!.!.!.!.!.!.!.I.N F -.-.-.-.",
"-.-.-.-.-.-.-.-.-.-.-.-.-.-.-.-.` ( _ ..-.-.-.-.-.-.' s Q 7 V.Y.!.!.!.!.x.q G | %.!.!.!.!.!.!.!.!.!.!.!.!.!.!.!.!.n.3 ` -.-.-.",
"-.-.-.-.-.-.-.-.-.-.-.-.-.-.] d f ! B t ) -.-.-.-...s =.a.P S.Y.!.!.!.!.d.% 0 f i.!.!.!.!.!.!.!.!.!.!.!.!.!.!.!.!.!.=.j -.-.-.",
"-.-.-.-.-.-.-.-.-.-.-.-.-.-.d  .W.!.!.g.5 x -.-.-.D Q !.O.#.S.Y.!.!.!.!.R...<.n.q.W.!.!.!.!.!.!.!.!.!.!.!.!.!.!.!.!.W.f ` -.-.",
"-.-.-.-.-.-.-.-.-.-.-.-.-./ V W.Q.T.Q.!.H.R s ) ' a g.!.P r.S.T.!.!.!.!.!.!.!.!.!.!.!.!.!.!.!.!.!.!.!.!.!.!.!.!.!.!.!.X.Z ;.-.",
"-.-.-.-.-.-.-.-.-.-.-.-...u j.T.y.6.M.T.!.W.9.R 5 : H.!.U c.S.Y.!.!.!.!.!.W.G.W.!.!.!.!.!.!.!.!.!.!.!.!.!.!.!.!.!.!.!.f.d -.-.",
"-.-.-.....-.-.-.-.-.-.-.D Q Q.&., d 3 e.Y.!.!.!.B.} W.Q.V.A.S.T.!.!.!.!.!.i. .W.!.!.!.!.!.!.!.!.!.!.!.!.!.!.!.!.!.!.!.b.s -.-.",
"-._ d s g d A ] -.;.-.[ a k.D.; ' -.` , 2.Y.Q.!.S.Z.Q.Q.y.C.S.Y.!.!.!.!.!.$.$.W.!.!.!.!.!.!.!.!.!.!.!.!.!.!.!.!.!.!.!.b.d -.-.",
"` # + 1 ! 7.{ s j F D t X.Q.J Z -.-.-.` , Y M.S.N.T E.Q.H c.S.S.!.!.!.!.!.R.f.W.!.!.!.!.!.!.!.!.!.!.!.!.!.!.!.!.!.!.!.f.d -.-.",
"..` ' ` l 5 *.v.8.{ | p.Q.e.t ..-.-.-.-.[ z 3 b K - D.Y.H y.S.S.Q.!.!.!.!.!.!.!.!.!.!.!.!.!.!.!.!.!.!.!.!.!.!.!.!.!.!.$.Z -.-.",
"-.-.-.-.;.` d b u.Y.T.T.y.4 ) -.-.-.-.-.-.-.[ ) / ; r.S.2.c.S.S.T.!.!.!.!.,.;.I.b.W.!.!.!.!.!.!.!.!.!.!.!.!.!.!.!.!.W.N _ -.-.",
"-.-.-.-.-.-.-./ a v L J 3 / -.-.-.-.-.-.-.-.-.-.;./ b Z.S.S.S.S.Y.!.!.!.F.q 9 W X.W.!.!.!.!.!.!.!.!.!.!.!.!.!.!.!.!.p.u -.-.-.",
"-.-.-.-.-.-.-.-.-._ F ( ] -.-.-.-.-.-.-.-.-.-.-.-.-.d Y V.T A.S.S.Q.!.!.I.c p ^ $.W.!.!.!.!.!.!.!.!.!.!.!.!.!.!.!.R.N ) -.-.-.",
"-.-.-.-.-.-.-.-.-.-.-.-.-.-.-.-.-.-.-.-.-.-.-.-.-.-.] d n - c.S.S.S.!.!.!.m.m.I.a.R.!.!.!.!.!.!.!.!.!.!.!.!.!.!.!.} h -.-.-.-.",
"-.-.-.-.-.-.-.-.-.-.-.-.-.-.-.-.-.-.-.-.-.-.-.-.-.-.-.-./ * Y S.S.S.T.!.!.!.!.!.!.!.!.!.!.!.!.!.!.!.!.!.!.!.!.!.7.t ..-.-.-.-.",
"-.-.-.-.-.-.-.-.-.-.-.-.-.-.-.-.-.-.-.-.-.-.-.-.-.-.-.-.-.' 3 M.S.S.S.Q.!.!.!.!.!.!.!.!.!.!.!.!.!.!.!.!.!.!.!.0., ' -.-...-.-.",
"-.-.-.-.-.-.-.-.-.-.-.-.-.-.-.-.-.-.-.-.-.-.-.-.-.-.-.-.-.-.r H S.S.S.Y.Q.!.!.!.!.!.!.!.!.!.!.!.!.!.!.!.!.Q.@., ` -.-.-.-.-.-.",
"-.-.-.-.-.-.-.-.-.-.-.-.-.-.-.-.-.-.-.-.-.-.-.-.-.-.-.-.-.) * r &.S.S.S.Y.Q.!.!.!.!.!.!.!.!.!.!.!.!.!.Q.D.L s ' -.-.-.-.-.-.-.",
"..-.-.-.-.-.-.-.-.-.-.-.-.-.-.-.-.-.-.-.-.-.-.-.-.-.-.-.-.e ) ' , 4.S.S.S.S.T.!.!.!.!.!.!.!.!.!.!.Q.U.3.2 z ..-.-.-.-.-.-.-.-.",
"-.-.-.-.-.-.-.-.-.-.-.-.-.-.-.-.-.-.-.-.-.-.-.-.-.-.-.-./ r -.-.` 1 o.A.S.S.S.S.T.T.T.Q.Q.Q.T.T.A.e.b d _ -.-.-.-.-.-.-.-.-.-.",
"-.-.-.-.-.-.-.-.-.-.-...-.-.-.-.-.-.-.-.-.-.-.-.-.-.-.-.l k -.-.-.' d v 4.V.S.S.S.S.S.S.S.C.y.o.6 s ( ..-.-.-.-.-.-.-.-.-.-.-.",
"-.-.-.-.-.-.-.-.-.-.-.-.-.-.-.-.-.-.-.-.-.-.-.-.-.-.-.-.x h -.-.-.-.-.) d 2 J U o.#.o.{ J 4 s x ` -.-.:.,.-.-.-.-.-.-.-.-.-.-.",
"-.-.-.-.-.-.-.-.-.-.-.-.-.-.-.-.-.-.-.-.-.-.-.-.-.-.-.-._ w [ -.] -.-.-.-.] ) S x x x S ) ] -.-.-.>.:.:.z.s.-.-.-.-.-.-.-.-.-.",
"-.-.-.-.-.-.-.-.-.-.-.-.-.-.-.-.-.-.-.-.-.-.-.-.-.-.-.-.-.h d h @ F -.-.-.-.;.-.-.-.-.;.-.-.;.d.-.1.d.-.>.1.-.-.-.-.-.-.-.-.-.",
"-.-.-.-.-.-.-.-.[ -.-.-.-.-.-.-.-.-.-.-.-.-.-.-.-.-.-.-.-.[ y X w e ' -.-.-.-.-.-.-.-.-.-.-.,.z.-.:.x.:.-.-.-.-.-.-.-.-.-.-.-.",
"-.-.-.-.-.-.-.-.-.-.-.-.-.-.-.-.-.-.-.-.-.-.-.-.-.-.-.-.-.-.-.& . & ] -.-.-.-.-.-.-.-.-.-.-.>.<.-.-.1.:.-.-.-.-.-.-.-.-.-.-.-.",
"-.-.-.-.-.-.-.-.-.-.-.-.-.-.-.-.-.-.-.-.-.-.-.-.-.-.-.-.-.-.-.&   h -.-.-.-.-.-.-.-.-.-.-.-.-.-.-.-.-.-.-.-.-.-.-.-.-.-.-.-.-.",
"-.-.-.-.-.-.-.-.-.-.-.-.-.-.-.-.-.-.-.-.-.-.-.-.-.-.-.-.-.-.-.l d ) -.-.-.-.-.-.-.-.-.-.-.-.-.-.-.-.-.-.-.-.-.-.-.-.-.-.-.-.-.",
"-.-.-.-.-.-.-.-.-.-.-.-.-.-.-.-.-.-.-.-.-.-.-.-.-.-.-.-.-.-.-.[ -.-.-.-.-.-.-.-.-.-.-.-.-.-.-.-.-.-.-.-.-.-.-.-.-.-.-.-.-.-.-.",
"-.-.-.-.-.-.-...-.-.-.-.-.-.-.-.-.-.-.-.-.-.-.-.-.-.-.-.-.-.-.-.-.-.-.-.-.-.-.-.-.-.-.-.-.-.-.-.-.-.-.-.-.-.-.-.-.-.-.-.-.-.-.",
"-.-.-.-.-.-.-.-.-.-.-.-.-.-.-.-.-.-.-.-.-.-.-.-.-.-.-.-.-.-.-.-.-.-.-.-.-.-.-.-.-.-.-.-.-.-.-.-.-.-.-.-.-.-.-.-.-...-.-.-.-.-.",
"-.-.-.-.-.-.-.-.-.-.-.-.-.-.-.-.-.-.-.-.-.-.-.-.-.-.-.-.-.-.-.-.-.-.-.-.-.-.-.-.-.-.-.-.-.-.-.-.-.-.-.-.-.-.-.-.-.-.-.-.-.-.-.",
"-.-.-.-.-.-.-.-.-.-.-.-.-.-.-.-.-.-.-.-.-.-.-.-.-.-.-.-.-.-.-.-.-.-.-.-.-.-.-.-.-.-.-.-.-.-.-.-.-.-.-.-.-.-.-.-.-.-.-.-.-.-.-.",
"-.-.-.-.-.-.-.-.-.-.-.-.-.-.-.-.-.-.-.-.-.-.-.-.-.-.-.-.-.-.-.-.-.-.-.-.-.-.-.-.-.-.-.-.-.-.-.-.-.-.-.-.-.-.-.-.-.-.-.-.-.-.-.",
"-.-.-.-.-.-.-.-.-.-.-.-.-.-.-.-.-.-.-.-.-.-.-.-.-.-.-.-.-.-.-.-.-.-.-.-.-.-.-.-.-.-.-.-.-.-.-...-.-.-.-.-.-.-.-.-.-.-.-.-.-.-.",
"-.-.-.-.-.-.-.-.-.-.-.-.-.-...-.-.-.-.-.-.-.-.-.-.-.-.-.-.-.-.-.-.-.-.-.-.-...-.-.-.-.-.-.-.-.-.-.-.-.-.-.-.-.-.-.-.-.-.-.-.-.",
"-.-.-.-.-.-.-...-.-.-.-.-.-.-.-...-.-.-.-.-.-.-.-.-.-.-.-.-.-.-.-.-.-.-.-.-.-.-.-.-.-.-.-.-.-.-.-.-.-.-.-.-.-.-.-.-.-.-.-.-.-.",
"-.-.-.-.-.-.-.-.-.-.-.-.-.-.-.-.-.-.-.-.-.-.-.-.-...-.-.-.-.-.-.-.-.-.-.-.-.-.-.-.-.-.-.-.-.-.-.-.-.-.-.-.-.-.-.-.-.-.-.-.-.-."
};
