/* XPM */
static char *_7227d43df574a0a83e3b5f53f9c6301UM9lyIykyN9kkzg3[] = {
/* columns rows colors chars-per-pixel */
"63 63 191 2 ",
"   c #020201",
".  c #0B0001",
"X  c #010804",
"o  c #090905",
"O  c #050608",
"+  c #0B040A",
"@  c #0B0B0C",
"#  c #040809",
"$  c #130000",
"%  c #1A0100",
"&  c #1B0A07",
"*  c #1C0A08",
"=  c #0C100F",
"-  c #0E0E12",
";  c #0F1014",
":  c #121416",
">  c #15191C",
",  c #18181A",
"<  c #220303",
"1  c #2A0404",
"2  c #280908",
"3  c #2F100E",
"4  c #281819",
"5  c #2A1817",
"6  c #331515",
"7  c #321817",
"8  c #381818",
"9  c #341E21",
"0  c #1D2224",
"q  c #2D2D2D",
"w  c #262225",
"e  c #2F2E32",
"r  c #323233",
"t  c #363539",
"y  c #37383A",
"u  c #3C3E3D",
"i  c #421C1C",
"p  c #43201E",
"a  c #442423",
"s  c #4B2C29",
"d  c #4B2826",
"f  c #512D2D",
"g  c #4E302F",
"h  c #5D3939",
"j  c #663A3B",
"k  c #63443F",
"l  c #3C3D41",
"z  c #444748",
"x  c #4A4B4C",
"c  c #474849",
"v  c #504E4F",
"b  c #5E4B4D",
"n  c #4C504F",
"m  c #524F54",
"M  c #535254",
"N  c #57565A",
"B  c #59575A",
"V  c #5A5A5C",
"C  c #604240",
"Z  c #6A4446",
"A  c #6A4A4D",
"S  c #744D4D",
"D  c #6E524F",
"F  c #654F51",
"G  c #625050",
"H  c #7C5553",
"J  c #7D5F5C",
"K  c #775556",
"L  c #5E5F61",
"P  c #5D6162",
"I  c #636364",
"U  c #6B666B",
"Y  c #656A6C",
"T  c #6B686C",
"R  c #67666B",
"E  c #7D6160",
"W  c #6C6B70",
"Q  c #726E74",
"!  c #747275",
"~  c #737778",
"^  c #865559",
"/  c #836361",
"(  c #876768",
")  c #896666",
"_  c #986167",
"`  c #976469",
"'  c #956B6C",
"]  c #916064",
"[  c #8F706B",
"{  c #95716F",
"}  c #9B6D70",
"|  c #967676",
" . c #A36C72",
".. c #A37476",
"X. c #A57A7A",
"o. c #A9787A",
"O. c #7D7F80",
"+. c #807E82",
"@. c #9A7F81",
"#. c #A67F80",
"$. c #AC7D80",
"%. c #8C8C8D",
"&. c #878586",
"*. c #959999",
"=. c #999A9A",
"-. c #AE8383",
";. c #B38283",
":. c #B08886",
">. c #B48C8A",
",. c #B88789",
"<. c #B5908E",
"1. c #A1989B",
"2. c #9B9FA0",
"3. c #ABAAAD",
"4. c #A6A5A8",
"5. c #ADAEB1",
"6. c #ADB1B4",
"7. c #B1B3B4",
"8. c #B4B7BB",
"9. c #BEBAB9",
"0. c #C18F92",
"q. c #C49597",
"w. c #C7999A",
"e. c #C99698",
"r. c #CC9EA0",
"t. c #D4ABA9",
"y. c #DFADAE",
"u. c #DCA5AA",
"i. c #D9B3B4",
"p. c #DAB8B9",
"a. c #EFAFAE",
"s. c #F6ACAA",
"d. c #FCADAC",
"f. c #F2A5AB",
"g. c #EEB1AE",
"h. c #F6B1AE",
"j. c #FDB3AE",
"k. c #E7AFB2",
"l. c #EAAFB3",
"z. c #F5AFB2",
"x. c #FDAEB2",
"c. c #E6B2B3",
"v. c #ECB3B4",
"b. c #E7BAB7",
"n. c #EDB9B6",
"m. c #E7B5B8",
"M. c #ECB5B9",
"N. c #EDBBBC",
"B. c #E3BABB",
"V. c #F5B4B5",
"C. c #FEB3B3",
"Z. c #F6B8B4",
"A. c #FEB9B6",
"S. c #F5B5BA",
"D. c #F9B3B8",
"F. c #FFB6B9",
"G. c #FEB6BD",
"H. c #FDB5BA",
"J. c #F3BBBC",
"K. c #FFBAB9",
"L. c #FEBCBD",
"P. c #FEBABB",
"I. c #EEC1BC",
"U. c #EABFC0",
"Y. c #FCB6C0",
"T. c #F3BDC1",
"R. c #FDBDC2",
"E. c #C4C4C5",
"W. c #CDCBCC",
"Q. c #CFCAD0",
"!. c #D1CFD2",
"~. c #CFD3D4",
"^. c #D5D2D4",
"/. c #DAD3D6",
"(. c #D7D5D8",
"). c #D6D9D9",
"_. c #D8D8DA",
"`. c #EDC0C3",
"'. c #F4C1C4",
"]. c #FAC1C4",
"[. c #EBECEC",
"{. c #E6EBEE",
"}. c #F0EDEF",
"|. c #EDEDF0",
" X c #F5F6F5",
".X c #F8F5F6",
"XX c #F3F9F6",
"oX c #F9FAF7",
"OX c #FCF7F9",
"+X c #F6FBFB",
"@X c #FEFEFE",
/* pixels */
"C.C.C.C.C.C.C.D.C.F.C.d.C.j.j.j.C.j.d.j.j.A.V.Z.V.A.S.V.S.Y.Y.S.G.H.H.Y.Y.H.D.V.F.C.Z.j.C.j.C.j.C.C.C.j.C.C.C.d.C.C.Z.Z.h.A.C.",
"C.j.C.C.C.C.D.C.F.s.C.x.j.A.d.C.C.C.A.A.h.A.V.J.n.b.y.q...` ] ^ _ _  .,.u.S.J.J.v.K.C.A.F.C.d.C.j.A.C.Z.C.C.d.K.C.C.C.C.Z.C.C.",
"d.j.C.C.C.C.A.Z.C.C.x.L.C.C.x.F.x.x.C.C.C.c.,.H s % $ $ $   . .   . $ . . < s H $.N.v.V.x.x.Y.x.x.d.C.C.C.A.K.d.C.C.C.C.C.C.C.",
"C.C.x.j.C.j.Z.C.C.L.C.C.x.C.C.x.R.J.S.;.j 1 % $ $ .         X   X     X     . $ % 1 j ;.J.R.D.G.K.C.x.x.C.j.h.C.j.C.C.C.C.C.C.",
"x.C.j.j.C.j.A.j.C.s.C.x.L.L.D.J.i.E 7 $ . .   .             X X X       X       . . . $ 6 / i.B.M.x.G.Y.C.C.A.C.A.j.j.j.x.C.C.",
"C.C.C.A.j.j.j.j.x.L.C.C.a.v.'./ & .                 X                               .     . & ( U.S.D.x.C.x.j.h.j.j.j.C.x.x.H.",
"C.C.C.j.j.j.j.j.d.x.C.G.T.X.6 .   X           X     @ e B U Q ~ Q U m e :       O     +       . 7 #.T.z.x.H.j.A.j.j.j.C.C.C.H.",
"C.C.j.j.A.j.j.C.C.H.D.k.S .           X     : V *.).@X@X@X@X@X@X@X@X@X@XoX_.=.L @       O       . . S m.G.x.K.d.j.A.j.C.C.C.C.",
"C.C.C.j.C.C.d.C.F.V.q.8 $           O   N 5.@X@X@X@X@X@X@X@X@X@X@X@X@X@X@X@X@X@X@X5.M     +         . i e.C.x.H.x.C.h.A.Z.C.C.",
"C.C.C.C.x.F.C.V.J.X.% $ .     O   + U /.@XOX@X@X@X@X@X@X@X@X@X@X@X@X@X@X@X@X@X@X@X@X@X(.R   .       . . < ..L.x.C.K.A.h.A.h.F.",
"K.x.C.x.x.H.L.N.[ $ .           v E.@XoX@X@X X@X@X@X@X@X@X@X@X@X@X@X@X@X@X@X@X@X@XoX@XXX@XW.n       X   . % ..V.x.C.C.h.C.C.s.",
"j.C.C.C.x.L.M.{ .   X X X   . 1.@X@X@X+X@X@X@X@X@X@X@X@X@X@X@X@X@X@X@X@XOX@X@X@X+X@X+X@X@X@XoX=.X X X     o % o.R.z.F.K.Z.j.L.",
"s.L.C.z.D.v.-.$ . X X X   e /.OX@XoXOX@X@X@X@XoX@X+X@X@X@X+X@X@X+X@X@X@X@X@X@X@X@X@X@X@X@XoX@XoX^.q   X X   . % $.T.F.V.z.K.d.",
"C.C.C.A.S.w.2 .     X   n  X@X@X@X@X@X@X@XoX@X@X@X@X@X@X@X@X+X@X@X@X@X+X@X@X@X@X@X@X@X@X@XOX@X@X@X[.m X       . < r.M.C.K.s.j.",
"d.C.D.J.N.a $ $   .   B @X@XoX@X@XoXoXoX@X@X@X@X@X@X@X@X@X@X@X@X@X@X@X@X@X@X@X@X@X@X@X@XoX@X@XOX@X@XOXm   X X   . a N.D.C.C.C.",
"C.C.V.J.D $ .   @ . m @X@X@X@X@X@X@X@X@XoX@X@X@X@X@X@X@X@X@X@X@X@X@X@X@X@X@X@X@X@XOX@X@X@X@X.X@XOXOX@X@Xz         $ S J.x.K.j.",
"x.C.J.>.$         e [.@X@XoX@XoX@X@X@X@X@X@X@X@X@X@X@X@X@X@X@X@X@X@X@X@X@X@X@X@X@X@X@X@X@X@X@X@X@X@X+X@X[.q O       $ >.J.C.C.",
"C.D.I.s           E.@X@XoX@X@X@X@X@X@X@X@X@X@X@X@X@X@X@X@X@X@X@X@X@X@X@X@X@X@X@X@X@X@X@X@X@X@X@X@X+X@X@X@X9..         s v.C.C.",
"F.V.X.$ .   #   %.@XoXoX@X@X@X@X@X@X@X@X@X@X@X@X@X@X@X@X@X@X@X@X@X@X@X@X@X@X@X@X@X@X@X@X@X@X@X@X@X@XoXoX@X@X&.  X   . % X.L.C.",
"D.v.i %       t @X X@X@X@XoXoX@X@X@X@X@X@X@X@X@X@X@X@X@X@X@X@X@X@X@X@X@X@X@X@X@X@X@X@X@X@X@X@X@X@X+X@X@X@X@X@Xr     . . i n.D.",
"n.,.% .       5.@X@X@X@XXX@X@X@X@X@X@X@X@X@X@X@X@X@X@X@X@X@X@X@X@X@X@X@X@X@X@X@X@X@X@X@X@X@X@X@X+X@X@XoX@X@X+X8.      . % >.v.",
"`.h $ .     l @X@X@X+X@XoX@XoX@X@X@X@X@X@X@X@X@X@X@X@X@X@X@X@X@X@X@X@X@X@X@X@X@X@X@X@X@X@X@X@X@X@X@XoX@X+X@X+X@Xy     . $ j U.",
"p.< . + O O 4.@X@X@X@XoX+X@X@X@X@X@X@X@X@X@X@X@X@X@X@X@X@X@X@X@X@X@X@X@X@X@X@X@X@X@X@X@X@X@X@X@X+X@X@X@XoX@X+X+X3.O     . % B.",
"@..       > OX@X@X@XoX@X@X+X@X@X@X@X@X@X@X@X@X@X@X@X@X@X@X@X@X@X@X@X@X@X@X@X@X@X@X@X@X@X@X@X@X@X@X@X@XOX@X@X+X+X@X-   . . . @.",
"b . +     Y +X@X@X@X@X@X@XoX@X@X@X@X@X@X@X@X@X@X@X@X@X@X@X@X@X@X@X@X@X@X@X@X@X@X@X@X@X@X@X@X@X@X@X@X@X@X@XOX@X+X@XW   O     F ",
"9         5.@X@X@X@X@X@X@X@X@X@X@X@X@X@X@X@X@X@X@X@X@X@X@X@X@X@X@X@X@X@X@X@X@X@X@X@X@X@X@X@X@X@X@X@X@X@X@X@X@X+X@X5.  O   . 4 ",
".     X   {.@X@X@X@X@X@X@X@X@X@X@X@X@X@X@X@X@X@X@X@X@X@X@X@X@X@X@X@X@X@X@X@X@X@X@X@X@X@X@X@X@X@X@X@X@X@X@X@X@X@X@X|.O     O   ",
"        0 @X@XOX@X@XoX@X@X@X@X@X@X@X@X@X@X@X@X@X@X@X@X@X@X@X@X@X@X@X@X@X@X@X@X@X@X@X@X@X@X@X@X@X@X@X@X@XoX@X@X@X+X@X0 O       ",
"        n @X@X+X@X@X@X@X@X@X@X@X@X@X@X@X@X@X@X@X@X@X@X@X@X@X@X@X@X@X@X@X@X@X@X@X@X@X@X@X@X@X@X@X@X@X@X@X@X@X@X@X@X@Xc         ",
".       Y +X@X@X@X@X@XoX+X@X@X@X@X@X@X@X@X@X@X@X@X@X@X@X@X@X@X@X@X@X@X@X@X@X@X@X@X@X@X@X@X@X@X@X@X@X@X@X@X@X@X@X@X@XP O       ",
"  .     ~ +X@XOX@XoXoX@X@X@X@X@X@X@X@X@X@X@X@X@X@X@X@X@X@X@X@X@X@X@X@X@X@X@X@X@X@X@X@X@X@X@X@X@X@X@X@X@X@X@X@X@X@X@X!   +     ",
".       O.@X@X@X@X@X@X@X@X@X@X@X@X@X@X@X@X@X@X@X@X@X@X@X@X@X@X@X@X@X@X@X@X@X@X@X@X@X@X@X@X@X@X@X@X@X@XoX@X@XoX@X@X@X+.      O ",
"        ! @X@X@X@X@X@XoX@X@X@X@X@X@X@X@X@X@X@X@X@X@X@X@X@X@X@X@X@X@X@X@X@X@X@X@X@X@X@X@X@X@X@X@X@X@X@X@X@X@X@X@XoX+X! . .   X ",
"        I +X@XOX@XOXoX@X@X@X@X@X@X@X@X@X@X@X@X@X@X@X@X@X@X@X@X@X@X@X@X@X@X@X@X@X@X@X@X@X@X@X@X@X@X@X@X@X@XoXoX@X@X@XU .   +   ",
"      X z OX@X@X@X@X@XoX@X@X@X@X@X@X@X@X@X@X@X@X@X@X@X@X@X@X@X@X@X@X@X@X@X@X@X@X@X@X@X@X@X@X@X@X@X@X@X@XoXoX@X@X+X@Xc + .   X ",
".       0 @X@X@X@XOX@X@X@X@X@X@X@X@X@X@X@X@X@X@X@X@X@X@X@X@X@X@X@X@X@X@X@X@X@X@X@X@X@X@X@X@X@X@X@X@X@X@X@X@X@X@X@X@X0   .     ",
"  .     X {.@X+X@X@XoX@X@X@X@X@X@X@X@X@X@X@X@X@X@X@X@X@X@X@X@X@X@X@X@X@X@X@X@X@X@X@X@X@X@X@X@X@X@X@X@X@X@X@X@X@X+X|.  O     . ",
"4 .       8.@X@X@X@X@X@X@X@X@X@X@X@X@X@X@X@X@X@X@X@X@X@X@X@X@X@X@X@X@X@X@X@X@X@X@X@X@X@X@X@X@X@X@X@X@X@X@X@X@X@X@X7.  O   . 9 ",
"G .       L @X@X@X@X@X@X@X@X@X@X@X@X@X@X@X@X@X@X@X@X@X@X@X@X@X@X@X@X@X@X@X@X@X@X@X@X@X@X@X@X@X@X@X@X@X@X@X@X@X@X@XI   X     A ",
"| .       > @X@X@X@X@X@X@X@X@X@X@X@X@X@X@X@X@X@X@X@X@X@X@X@X@X@X@X@X@X@X@X@X@X@X@X@X@X@X@X@X@X@X@X@X@X@X@X@X@X@XOX, X     . } ",
"p.% . .     5.@X@XOX@X@X@X@X@X@X@X@X@X@X@X@X@X@X@X@X@X@X@X@X@X@X@X@X@X@X@X@X@X@X@X@X@X@X@X@X@X@X+X+X@X@XOX@X@X@X3.  X     % N.",
"`.h $     O t @XOX@X@X@X@XoX@X X@X@X@X@X@X@X@X@X@X@X@X@X@X@X@X@X@X@X@X@X@X@X@X@X@X@X@X@X@X@X@X@X@X@X@X@X@XOX@X@Xr +       C M.",
"b.>.% . +   O 8.@X@XoX@XoX@XOX@X@X@X@X@X@X@X@X@X@X@X@X@X@X@X@X@X@X@X@X@X@X@X@X@X@X@X@X@X@X@X@X@X@X+X@X@X@X@X@X5.      . % -.S.",
"v.J.i .       t @X@X@X@X@XoX@X@X@X@X@X@X@X@X@X@X@X@X@X@X@X@X@X@X@X@X@X@X@X@X@X@X@X@X@X@X@X@X@X@X@X@XOX@X@X@X@Xe       $ a N.L.",
"F.J.X.$ .       %.OX@X@X@X@X@X@X@X@X@X@X@X@X@X@X@X@X@X@X@X@X@X@X@X@X@X@X@X@X@X@X@X@X@X@X@X@X@X@X@X@X@XOX@XoX%.      . % ..Z.C.",
"C.s.N.s .   .   + E.@X@X@X@X@X@X@X@X@X@X@X@X@X@X@X@X@X@X@X@X@X@X@X@X@X@X@X@X@X@X@X@X@X@X@X@X@X@X@X@X X@X@XE.  X X   . s J.V.K.",
"j.K.n.<.$ .       e }.@X X@XOX@X@X@X@X@X@X@X@X@X@X@X@X@X@X@X@X@X@X@X@X@X@X@X@X@X@X@X@X@X@X@X@X@X@XOX@X X[.q         % >.V.C.h.",
"j.C.g.I.D . .     O z @X@XOX@X@X@X@X@X@X@X@X@X@X@X@X@X@X@X@X@X@X@X@X@X@X@X@X@X@X@X@X@X@X@X@X@X@X@X@X@X@Xc   X     . K m.K.C.d.",
"j.j.C.h.I.d     X   X N @X@X@X@X@X@X@X@X+X@X@X@X@X@X@X@X@X@X@XoX@X@X@X@X+X+X@X@X@X X@XoX@X@X@X@X@X@X@XN X       . a N.G.H.d.A.",
"d.d.C.j.J.q.% .   @     m .XOX@X@X@X@X@X@X@XOX@X@X@X@X@X@X+X@X@X@X@X@X@X@X@X@X@XoX@X@X@X@XOXXX@X@X.Xx X         < w.T.x.x.C.C.",
"j.j.j.j.S.J.-.%           u W.@X+X@X+X X@X@X@X@XoX@X@X@X@X@XOX@X@X@X@X@X@X@X@X+X@XOX@XOX@X@X@X@XQ.e #   X   $ % $.M.z.L.H.C.C.",
"A.j.h.A.F.V.J.' % $   X     @ =.@X@X@X@XoXoX@X@X@X@X@X@X@X@X@X@X@X+XoX@XOXOXOX@XOXOX@XOX@XoX+X*.+         . $ ..T.S.G.V.F.C.d.",
"j.A.j.Z.C.F.z.R.} $     X       c W.@X@X@X@XOX@X+X@X@X@X@X@X@X@X@X@X@X@X@X@X@XOX@X@X@X@X@XW.m           . % ' v.z.L.x.C.C.x.x.",
"s.C.K.j.C.C.R.D.S.o.% .   o     . @ I ^.@X@X@X@X@X@X+X@X@X@X@X@XoXoXoXoXoX@X@X@X@X@XOX/.U +   + +   . $ < X.R.F.H.C.d.G.C.C.H.",
"A.h.C.Z.C.A.f.F.L.S.w.8 . .   o         n 7.@X+X@X@X@X@X+X@X@X@XoXoX@X@X@X@X@XoX@X4.N +     +       $ 6 q.J.V.D.C.C.L.d.s.C.x.",
"C.j.A.C.C.C.C.x.x.C.J.c.Z % .     o   X     - L 2.~.+X@X+X@X@X@X@X@XoX@XoX).*.I @       O         % Z N.D.F.C.C.A.d.d.K.x.C.H.",
"C.C.C.C.C.j.C.C.x.C.F.V.T.$.3 $                     @ r N R Q O.! U M e -       X   X         . 6 X.U.S.x.H.C.C.C.j.A.j.C.C.C.",
"C.F.C.C.j.C.j.j.C.C.d.L.z.S.m./ * . .   o           O           + + O         X         . . * J B.].R.H.L.C.d.C.j.j.j.A.C.C.C.",
"C.C.C.x.j.C.j.C.C.C.x.G.H.H.R.T.i.( 7 $ . . . . .       o       + . +     X   X     . . 3 ) M.T.S.D.z.x.C.x.j.K.j.j.Z.Z.C.C.C.",
"V.F.C.x.C.j.C.C.A.s.L.x.x.H.f.G.S.'.m.;.j 2 % % $ . .             . .   .       . $ k :.c.S.z.H.x.G.L.F.C.C.C.d.j.j.Z.j.Z.C.C.",
"C.C.C.C.C.C.C.C.C.Z.x.C.C.F.K.d.H.x.z.D.R.c.$.S d 2 $ % . . . . . . o . $ < g H ;.J.V.J.K.F.C.C.C.x.j.C.j.C.C.C.A.j.C.A.Z.Z.C.",
"C.C.C.C.C.C.A.C.C.K.d.C.F.s.C.C.x.C.H.C.C.D.L.I.b.b.t.:.{ ' ) J / / { <.t.b.N.V.C.Z.C.F.C.C.s.C.x.C.A.j.j.j.C.C.j.A.C.C.C.C.C.",
"C.C.C.Z.Z.V.C.C.C.x.C.C.j.A.A.j.C.j.j.j.C.h.Z.A.A.J.V.V.A.S.S.S.L.J.Z.Z.C.C.D.C.C.K.C.d.L.d.K.j.C.A.j.s.j.C.A.C.C.C.C.C.C.C.C."
};
