/* XPM */
static char *exit_open1639496809[] = {
/* columns rows colors chars-per-pixel */
"63 63 175 2 ",
"   c #1E0B07",
".  c #240504",
"X  c #2B0504",
"o  c #260907",
"O  c #2C0906",
"+  c #270708",
"@  c #2C070A",
"#  c #260C0B",
"$  c #2B0B0C",
"%  c #330604",
"&  c #3A0505",
"*  c #330906",
"=  c #3B0806",
"-  c #320709",
";  c #39070A",
":  c #320B0B",
">  c #3B0B0B",
",  c #2D110E",
"<  c #34110F",
"1  c #260D10",
"2  c #2B0C10",
"3  c #310C11",
"4  c #3D0E11",
"5  c #2D1011",
"6  c #321212",
"7  c #3C1311",
"8  c #301814",
"9  c #410706",
"0  c #430C0B",
"q  c #45120F",
"w  c #460E11",
"e  c #461312",
"r  c #4B1313",
"t  c #4B1815",
"y  c #4E1B1B",
"u  c #501615",
"i  c #58171B",
"p  c #531C1C",
"a  c #5A1E1E",
"s  c #5B201F",
"d  c #571F20",
"f  c #5A1F21",
"g  c #5C2424",
"h  c #552123",
"j  c #642626",
"k  c #682627",
"l  c #622729",
"z  c #652B2A",
"x  c #6C2C2E",
"c  c #65302F",
"v  c #6C312F",
"b  c #672F32",
"n  c #6C3433",
"m  c #6E3E3C",
"M  c #733535",
"N  c #703338",
"B  c #773A39",
"V  c #7B3C3C",
"C  c #7C403F",
"Z  c #793C41",
"A  c #7E4242",
"S  c #823E3D",
"D  c #81403E",
"F  c #834444",
"G  c #8C4546",
"H  c #874A47",
"J  c #824749",
"K  c #8C4648",
"L  c #84494B",
"P  c #8D4C4C",
"I  c #934647",
"U  c #964649",
"Y  c #9A474A",
"T  c #944C4D",
"R  c #9B4B4D",
"E  c #8D504E",
"W  c #93504F",
"Q  c #9B504D",
"!  c #954F50",
"~  c #9B4E51",
"^  c #8F5151",
"/  c #945253",
"(  c #9C5252",
")  c #9B5458",
"_  c #985858",
"`  c #A04749",
"'  c #A34C4D",
"]  c #A44E51",
"[  c #A25355",
"{  c #A95354",
"}  c #A55659",
"|  c #AA565A",
" . c #A55A59",
".. c #AC5A5C",
"X. c #B05A5B",
"o. c #B1565B",
"O. c #B0605F",
"+. c #AB5E60",
"@. c #B35F63",
"#. c #AD6262",
"$. c #B46363",
"%. c #BA6264",
"&. c #BD6769",
"*. c #BC6B6B",
"=. c #C46C6D",
"-. c #CB6D6E",
";. c #CB716E",
":. c #C36D71",
">. c #C96D71",
",. c #C57273",
"<. c #CC7374",
"1. c #C67876",
"2. c #CC7877",
"3. c #CD7579",
"4. c #CC7C7B",
"5. c #D07475",
"6. c #D07877",
"7. c #D0757A",
"8. c #D37C7C",
"9. c #D97D7D",
"0. c #CF817F",
"q. c #D4807E",
"w. c #DA817E",
"e. c #CF7F80",
"r. c #D37D81",
"t. c #DA7F81",
"y. c #CF8181",
"u. c #D58383",
"i. c #DB8383",
"p. c #DA8986",
"a. c #D68488",
"s. c #DD8688",
"d. c #DD8B8A",
"f. c #DF908D",
"g. c #E08585",
"h. c #E18887",
"j. c #E18689",
"k. c #E38C8C",
"l. c #E2918F",
"z. c #E78E90",
"x. c #E98F91",
"c. c #E69493",
"v. c #EB9494",
"b. c #E79A95",
"n. c #EA9996",
"m. c #EB9698",
"M. c #EC9D9B",
"N. c #F39595",
"B. c #F09897",
"V. c #F19799",
"C. c #F29C9C",
"Z. c #F89E9E",
"A. c #EDA19E",
"S. c #F1A19E",
"D. c #F8A09F",
"F. c #EB9FA1",
"G. c #F29EA1",
"H. c #F89FA1",
"J. c #EEA2A1",
"K. c #F3A4A3",
"L. c #F9A4A4",
"P. c #F4A9A6",
"I. c #F9AAA7",
"U. c #F4A6A8",
"Y. c #F9A6A9",
"T. c #F5ABAA",
"R. c #F9ADAC",
"E. c #F7B0AD",
"W. c #FBB2AE",
"Q. c #F7AFB1",
"!. c #FEAEB1",
"~. c #FEB3B3",
"^. c #F9B7B8",
"/. c #FAB8B9",
"(. c #F6B2B3",
/* pixels */
"~.~.~.~.~.~.~.~./.~.~.~.~./.~.~.^././.^.(.T.U.T.J.U.J.F.F.F.M.F.M.J.F.J.J.J.U.U.T.T.(.~.(.(.~.W.~.~.W.~./.~.~.~./.!.!.~.~.~.W.",
"~.~.~.~.~.~.~.~.~./.~.~.~.!.!.~.!.Q.Q.Q.Q.T.U.U.U.J.J.J.M.J.M.M.A.A.F.F.J.J.K.P.U.T.R.E.~.~.~.W.~.~.~.~.~.~.~.!.!.!./.~.~.!.W.",
"~.~.~.~.~.~.~.~.W.~.~.~.~.~.~.~.!.Y.G.G.S.K.S.A.J.M.M.J.J.F.J.J.S.A.A.S.J.J.F.J.S.K.J.K.L.Y.R.!.~.~.~.~.~.~.~.~.~.~.~.~.~.~.W.",
"~.~.~.~.~.~.~.~.~.~.W.~.~.~.R.R.Y.H.G.G.D.L.D.D.F.F.M.m.m.b.b.b.b.b.b.n.b.J.A.F.K.K.C.C.G.H.Y.R.W.W./.~.^.~.~.^.~.!.~.~.~.~.~.",
"!.~.!.~.~.~.~.~.W.W.W.W.E.P.K.S.C.C.C.D.D.C.v.l.z.h.s.i.w.i.9.q.w.w.w.w.w.p.k.k.m.C.K.S.J.K.G.K.P.T.E.W.~.~.^.!.^.~.~.~.~.~.~.",
"~.~.~.~.~.~.~.~.W.W.~.W.P.A.K.P.K.D.M.n.x.k.p.w.q.8.3.>.>.=.=.-.-.;.;.;.6.8.w.p.p.l.b.M.M.M.K.P.A.A.T.R.~.~.^.~.~.^.~.~.~.~.~.",
"~.~.~.~.~.~.~.~.W.W.I.S.A.S.K.L.n.c.f.p.q.0.0.2.%.$...} ] ] R ' ` ' ' { X.O.*.,.2.0.u.d.f.c.J.U.A.A.K.U.R.R.~.~.~.~./.!.~.~.~.",
"~.~.~.~.~.~.~.~.W.I.D.M.C.S.C.m.l.d.0.1.*.#. .W Q W T U T T ! ! T T Q Q Q Q Q Q  .#.*.1.e.a.f.b.S.A.M.M.D.R.R.~.~.^././.!.~.~.",
"!.!.~.!.W.~.W.W.S.D.S.D.H.V.v.s.a.4.&.} ~ T ^ P C n g t e q = * ; > t y g n F E / T T { :.7.9.s.k.S.L.C.C.G.Y.R.~.~.~.~.~./.~.",
"~.~.~.^.W.W.W.S.S.C.B.x.v.k.7.4.@.) ~ / ^ B f e > = * * : $ : $ $ $ $ * X * ; > a B ! ~ I ' &.7.p.j.v.V.V.C.K.K.R.~.~.~.~./.~.",
"~.~.~.~.W.E.A.A.C.I.B.x.k.r.,. ./ / F l w & % * O O O # # # # o 2 1 2 2 $ $ : ; & = 9 k ! ) R } *.e.d.m.H.H.C.U.P.E.~.^.~.~.~.",
"!.!.!.~.E.P.A.A.B.v.B.i.<.#.G ( L g ; - ; @ O 6 $ < , , , , , , 1 # # 1 $ 2 $ $ - * & & & a F ) ! $.:.t.x.N.m.C.A.P.E.E.~./.~.",
"~.~.!.Q.U.J.A.A.C.p.u.8.[ P _ c 3 : : + O , < $ # $ $ $ + $ 3 3 3 $ $ $ $ $ # o $ $ O : : % > c ^ T +.1.u.c.L.C.M.A.E.E.W.~.~.",
"!.~.!.Q.J.J.A.A.c.w.*.T ! L p % 3 O o < , o . # 2 $ 2 2 $ $ @ - O $ $ $ $ , $ , O o # O o : 6 - p A W Q ,.a.s.K.M.A.J.T.W./.~.",
"!.!.!.G.A.A.b.f.p.=.( W V q X * X : 3 $ $ $ 5 # + # $ $ $ : 2 : O : : , $ # # o , , $ $ 3 @ . - * t B T R *.s.d.M.M.A.J.R.W.~.",
"!.!.U.F.b.J.f.a.*.( T M ; X < O : $ $ $ $ # $ $ $ $ $ $ $ $ 2 $ $ O , O # $ # # # , $ + 2 2 2 $ O X 0 v / [ $.d.b.M.A.A.P.W.!.",
"Q.T.F.K.F.m.z.3.( / n : O : : 3 $ $ : $ 2 $ $ $ $ $ $ $ $ $ $ $ $ $ $ + # $ $ # $ $ $ $ + 2 $ $ , . : % Z K Y r.d.b.J.A.M.U.!.",
"R.A.P.F.F.s.e.} ( n 7 O $ 2 $ @ $ $ $ $ $ $ $ $ $ $ $ $ $ $ $ $ $ $ $ $ $ $ $ $ $ $ $ 2 $ $ $ $ . , $ 3 @ Z ) | r.l.A.J.J.J.R.",
"T.K.K.K.m.a.$.U V r X * # + 2 $ $ $ $ $ $ $ $ $ $ $ $ $ $ $ $ + $ $ $ + $ $ $ $ $ $ $ $ $ $ $ $ , o $ + - 0 K R @.t.b.J.R.J.Y.",
"A.T.F.F.c.:.( T i % O $ $ $ 3 2 $ $ $ $ $ $ $ $ $ $ $ $ $ $ $ 2 $ 2 $ 2 $ $ $ $ $ $ $ # $ $ $ $ , . $ 2 @ ; i T ~ *.b.b.J.M.Y.",
"A.A.F.d.a.[ ! M = * O O $ : 2 $ $ $ $ $ $ $ $ $ $ $ $ $ $ $ $ $ $ $ $ $ $ $ $ $ $ $ $ $ $ $ $ 2 O $ 8 o $ > & x ! | u.f.b.A.M.",
"S.A.G.s.*.Q A > % * O O 6 $ $ $ $ $ $ $ $ $ $ $ $ $ $ 2 $ $ $ $ $ $ $ $ + $ $ $ $ $ $ $ $ $ $ $ $ O 6 o , $ - 9 K U *.f.M.L.K.",
"L.K.m.a.[ Q s O O < $ $ : $ $ 5 $ $ $ $ $ $ $ $ $ $ $ $ $ $ $ $ $ $ $ $ 2 $ $ $ $ $ $ $ $ $ $ $ : @ . 5 # $ O = j K ) 0.n.S.U.",
"U.K.c.=.Q H = O O O $ $ $ $ $ $ $ $ $ $ $ $ $ $ $ $ $ + 2 $ $ $ $ $ $ $ $ $ $ $ $ $ $ $ $ $ $ $ : $ 2 # 1 $ O * & I T ,.l.C.I.",
"C.C.a...R k * O # , # O $ $ $ $ 2 + $ $ $ $ $ $ $ $ $ $ $ $ $ $ $ $ $ $ $ $ $ $ $ $ $ $ $ $ $ $ @ 2 $ 2 1 # # $ & k ~ O.p.b.K.",
"C.b.a.] T t * # # # # , $ : $ $ $ $ $ $ $ $ $ $ $ $ $ $ $ $ $ $ $ $ $ $ $ $ $ $ $ $ $ $ $ $ $ $ $ : 2 $ 1 1 $ $ % r T ( u.c.A.",
"m.j.1.T F & * # # 1 # $ $ : $ $ $ $ $ $ $ $ $ $ $ + 2 $ $ $ $ $ $ $ $ $ $ $ $ $ $ $ $ $ $ $ $ $ $ $ $ 2 1 1 # $ * & H I <.l.M.",
"C.p.$.! v = * $ # # 1 2 $ $ $ $ $ 2 $ $ $ $ $ 2 $ $ $ $ $ $ $ $ $ $ $ $ $ $ $ $ $ $ $ $ $ $ $ $ $ $ $ $ 2 2 # 1 X % M R $.f.b.",
"v.h. .W s * : # $ 1 # 1 2 2 : 2 $ $ $ $ $ $ $ + $ $ 2 + $ $ $ $ $ $ $ $ $ $ $ $ $ $ $ $ $ $ $ # $ $ - 2 2 2 2 $ $ * a ( [ d.b.",
"B.p.) E t * : O $ 2 1 # $ 2 @ @ $ $ $ $ $ $ $ $ $ $ $ $ + 2 $ $ $ $ $ $ $ $ $ $ $ $ $ $ $ $ $ , o $ $ 2 3 2 2 1 $ * r / ) r.F.",
"N.q.Q E > * : $ $ 2 1 1 1 $ 3 - + $ $ $ $ $ $ $ $ $ $ $ $ $ $ $ $ $ $ $ $ $ $ $ $ $ $ $ $ $ # O # # @ - 3 @ 2 # $ : 0 P ) r.m.",
"N.8.W / * ; X 6 2 2 2 # 1 $ @ @ 2 $ $ $ $ $ $ $ $ $ $ $ 2 $ $ $ $ $ $ $ $ $ $ $ $ $ $ $ $ $ O , # # 3 @ 3 2 2 2 $ - > ^ ~ u.m.",
"N.8.Q E ; @ 2 2 3 2 : $ $ $ $ $ $ $ $ $ $ $ $ $ $ $ $ 2 + 2 $ $ $ $ 2 $ $ $ $ 1 $ 2 $ $ $ $ $ $ # O : $ 3 2 2 + @ ; & P Q 4.b.",
"N.6.( / 4 3 2 2 2 @ $ $ $ $ $ $ $ $ $ $ $ $ $ $ $ $ $ $ $ $ $ $ $ $ $ $ $ $ $ + $ $ $ $ $ $ $ + * $ $ $ 2 2 2 2 3 ; & E / y.b.",
"N.8.( / 4 3 2 2 2 @ @ : $ # 2 # $ $ 2 + $ $ $ $ $ $ $ $ $ $ $ $ $ $ $ $ $ $ $ $ $ $ $ $ $ $ $ $ : $ : $ 2 2 2 $ $ - 0 / Q u.n.",
"N.8.[ ^ e - $ $ 2 $ $ $ $ $ $ 2 $ $ $ $ + 2 $ $ $ 2 + $ $ $ $ $ $ $ $ $ $ $ $ $ $ $ $ $ $ $ $ $ $ $ $ 2 2 2 2 2 $ % t T ( a.M.",
"N.w.../ h : $ 2 $ $ , $ $ $ $ $ $ $ $ $ 2 $ $ $ $ $ $ $ $ $ $ $ + 2 $ $ $ $ $ $ $ $ $ $ # $ $ $ O O : : 2 # # , O % s T { p.m.",
"N.g.$.T n : $ $ , # # # $ $ $ $ $ $ $ $ $ $ $ $ $ $ $ $ 2 + $ $ $ $ $ $ $ $ $ $ $ $ $ $ $ $ $ $ # $ $ $ $ , # # O = v T $.i.b.",
"N.h.=.T A > $ $ # # $ $ $ $ $ $ $ $ $ $ $ $ $ $ $ $ $ $ $ $ $ $ $ $ $ $ $ + 2 $ $ $ $ $ $ $ $ $ $ # $ $ 2 $ # # O > D Q ,.s.M.",
"Z.c.1.) ^ e - : O $ $ $ # $ $ : $ $ $ $ $ $ $ $ $ $ $ $ $ $ $ $ $ $ $ $ $ $ $ $ $ $ $ $ $ $ $ $ $ $ : : 2 $ # # * q W [ 8.j.A.",
"G.c.u.#./ z % * O $ $ $ # $ , $ $ $ $ $ $ $ $ $ $ $ $ $ $ $ $ $ $ $ $ $ $ $ $ $ $ $ $ $ $ $ $ $ $ $ $ $ $ $ # O * z ( ..a.z.F.",
"H.b.d.*.T H 9 = : O # 5 $ + $ $ $ $ $ $ $ $ $ $ $ $ $ $ $ $ $ $ $ $ $ $ $ $ $ $ $ $ $ $ $ $ $ $ $ o : , + < O > & H T :.k.v.G.",
"Y.G.b.4.R ( s & > O $ 5 $ $ $ : $ $ $ $ $ $ $ $ $ $ $ $ $ $ $ $ $ $ $ $ $ $ $ $ $ $ $ $ $ $ $ $ : O , , $ X : % s ( ( 4.c.C.Y.",
"Y.Y.n.u.$.Q S 0 * : $ $ # 5 $ $ $ $ $ $ $ $ $ $ $ $ $ $ $ $ $ # $ $ $ $ $ $ $ $ $ $ $ $ $ $ $ $ X < + # # . > = P I $.q.v.K.Y.",
"F.K.m.d.2.{ ( x ; - $ $ 2 2 $ # $ $ $ $ $ $ $ $ $ $ $ $ $ $ $ $ $ $ $ $ $ $ $ $ $ $ $ $ $ $ $ $ $ : + 1 . : & x [ R 8.p.m.P.J.",
"J.M.C.l.w.=.[ K p ; + 2 2 + + , 2 $ $ $ $ $ $ $ $ $ $ $ $ $ $ $ 2 $ $ $ $ 2 # $ $ $ $ $ $ $ 2 + ; @ $ # $ X d ! R =.p.f.A.J.M.",
"T.M.L.m.h.8.+.) Z y @ 2 $ # # , $ $ $ $ $ $ $ $ $ $ $ $ $ $ $ $ 2 + $ $ $ $ $ $ $ $ $ $ @ $ $ @ ; 2 #   8 < Z [ o.i.h.n.J.J.K.",
"T.J.I.L.N.a.<.) _ b > $ $ $ # O $ $ @ $ $ $ $ $ $ $ $ $ $ $ $ # $ $ $ $ $ $ $ $ $ $ $ $ 2 $ @ 2 - O , $ O m ! [ 6.w.x.P.T.J.U.",
"!.K.F.G.C.k.4.1.~ ! x 0 - @ # O $ : 3 2 @ @ 2 3 $ $ $ # # $ O , $ + $ : $ $ $ # # , , $ $ $ 3 $ @ 7 * % M / ' :.8.l.S.A.A.J.R.",
"!.Y.G.F.J.b.d.4.&.~ ~ M & % < $ $ $ $ 2 2 3 2 @ # , $ # O $ # $ $ @ 2 $ $ $ # $ 1 o + 5 $ $ $ X * X % B T U &.8.h.b.S.A.J.R.!.",
"!.!.U.F.A.M.c.p.>.*.~ T Z r X : 3 2 $ 5 2 # $ 2 $ $ # $ , $ $ $ @ @ $ - 2 $ $ # # 5 # O $ $ o 6 * 0 A T R &.<.s.b.n.A.A.P.W.~.",
"!.~.Q.K.M.F.b.z.t.3.&.[ T K f - + $ $ + $ 5 2 . 1 $ $ $ $ $ $ $ $ 3 2 2 2 # # , , o $ , O $ : X p P K ) :.<.t.k.A.A.A.A.R.~.~.",
"!.~.W.R.J.A.A.M.x.t.>.>.| ~ ! b 4 : : $ $ o $ 8 # , $ $ 2 2 2 2 # , $ # $ , # # $ : $ : ; . 4 n ! K +.:.>.t.N.V.S.A.S.E.~.~.~.",
"~.~.~.W.T.A.M.S.C.k.j.7.:...U ) A g ; & 3 ; X $ O $ $ $ - $ - $ 2 $ , $ # # $ : X * ; % - z L P ~ ..<.7.8.k.V.H.A.S.S.W.~./.~.",
"/.~.~.W.E.K.A.M.v.Z.N.g.<.>.=.] ) / F s 0 = ; * * $ $ $ $ : : $ $ , # # # $ : > > = 9 j K ! ~  .*.=.<.j.v.N.Z.V.S.I.E.W.W.W.~.",
"~.~.W.~.W.W.S.S.G.m.V.x.j.r.3.,.%.[ R ( / M p q = % % : - - : ; O $ O O = ; = = i B W ( Y ] %.,.3.t.j.h.Z.L.C.C.S.W.W.~.~././.",
"~.~.~.~.~.W.W.P.A.S.S.n.m.k.u.6.>.-.X.o.{ R W E C n g s e > & & = > e p g M F T T T Y { =.=.;.5.8.k.n.C.n.C.S.S.W.W.~.~.~.~./.",
"~.~.!.~.~.~.W.I.I.S.n.S.D.m.c.g.i.9.5.-.O...{ Q Q W K P ! ! ~ / / T T T I T R Q  .$.&.;.<.6.9.g.c.b.M.S.A.A.S.W.W.W.~.~.~.~.~.",
"~.~.~.~.~.W.~.W.W.P.A.S.C.J.M.b.l.g.9.5.<.,.=.*.$.$...{ ] ] Y ` R ' { { X.O.&.=.*.=.;.2.q.w.l.n.S.K.A.A.J.E.W.W.W.~.~.~.~.~.~.",
"~.~.~.~.~.~.~.W.W.W.I.P.A.A.K.L.C.v.k.w.q.8.8.3.6.;.=.,.>.>.>.>.-.-.>.;.-.<.<.2.8.q.8.p.l.n.C.K.A.A.A.K.P.W.~.~.~.~.~.~.~.~.~.",
"~.~.W.~.W.~.~.~.W.~.~.W.P.A.K.P.S.D.A.n.b.k.s.t.t.8.7.>.-.-.-.-.-.-.5.5.5.6.9.i.p.x.c.M.M.M.A.J.A.J.T.R.~.~./.W.~.~.~.~.~.~.~.",
"~.W.~.~.~.~.~.~.W.W.~.W.E.E.P.K.A.A.K.K.K.G.m.v.z.h.j.g.i.i.w.9.9.9.9.i.g.h.k.l.x.S.K.K.A.A.F.Y.J.R.Q.~.~.~.~.~.~.~.~.~.~.~.~.",
"W.~.~.W.~.W.~.~./.~./.~.~.~.~.R.T.J.J.J.K.G.G.C.V.C.m.V.m.B.b.m.b.n.b.n.n.C.S.S.S.P.K.A.K.K.Y.Q.W.~.~.~.~./.~./.~.~./.~.~.~.~."
};
