/* XPM */
static char *player_left_11639493213[] = {
/* columns rows colors chars-per-pixel */
"63 63 220 2 ",
"   c #020102",
".  c #0B0205",
"X  c #080E0A",
"o  c #160E15",
"O  c #0F1312",
"+  c #151214",
"@  c #1B1818",
"#  c #28282A",
"$  c #2B3131",
"%  c #3B3B3C",
"&  c #433D41",
"*  c #534A4D",
"=  c #4E4F53",
"-  c #666569",
";  c #706A6C",
":  c #6D736F",
">  c #777676",
",  c #8B2433",
"<  c #952A3A",
"1  c #9D3645",
"2  c #A9404F",
"3  c #AE4855",
"4  c #A9545B",
"5  c #BA5663",
"6  c #BB5C67",
"7  c #BD646C",
"8  c #BA686E",
"9  c #AB6C75",
"0  c #B16975",
"q  c #B27679",
"w  c #B17A7C",
"e  c #BB767A",
"r  c #C35868",
"t  c #C6626E",
"y  c #CA6973",
"u  c #D06174",
"i  c #C67B7F",
"p  c #C87378",
"a  c #AE7C83",
"s  c #A67A86",
"d  c #BC7D84",
"f  c #B67C89",
"g  c #B47C86",
"h  c #C27F87",
"j  c #D37B84",
"k  c #D97C86",
"l  c #D57A87",
"z  c #8C898D",
"x  c #878583",
"c  c #938B8C",
"v  c #8B908C",
"b  c #968D90",
"n  c #8A9390",
"m  c #979495",
"M  c #96989A",
"N  c #A7838A",
"B  c #B48184",
"V  c #BD8387",
"C  c #B6848A",
"Z  c #BB8689",
"A  c #BD8B8D",
"S  c #BE8A93",
"D  c #B58C93",
"F  c #AD9191",
"G  c #A89E9F",
"H  c #BC9697",
"J  c #9B9FA0",
"K  c #BF93A0",
"L  c #9DA4AA",
"P  c #A7AAA7",
"I  c #B6A3A7",
"U  c #B3A7AB",
"Y  c #AAA7B0",
"T  c #AEB1B8",
"R  c #B6B9B9",
"E  c #C58386",
"W  c #C3848C",
"Q  c #C38A8E",
"!  c #CB888F",
"~  c #D6868C",
"^  c #D8868C",
"/  c #C48690",
"(  c #C98690",
")  c #C48D94",
"_  c #CC8B91",
"`  c #D18D93",
"'  c #DD8C91",
"]  c #D38C9A",
"[  c #C39293",
"{  c #C6959C",
"}  c #CC949C",
"|  c #C49A9C",
" . c #CD9C9F",
".. c #CB9396",
"X. c #D1939C",
"o. c #DA959E",
"O. c #D9979A",
"+. c #E2818A",
"@. c #EA8A95",
"#. c #E48694",
"$. c #E59194",
"%. c #E3949E",
"&. c #E9959C",
"*. c #EA999B",
"=. c #CA9DA0",
"-. c #C598A4",
";. c #D492A1",
":. c #DD9BA3",
">. c #D999A4",
",. c #E39DA4",
"<. c #E49FA9",
"1. c #EB9CA5",
"2. c #F49CA4",
"3. c #F99BA4",
"4. c #C6A6A8",
"5. c #D7A4AA",
"6. c #CAB1AD",
"7. c #CBA2B0",
"8. c #D6ABB7",
"9. c #C7B6B8",
"0. c #D8B6B6",
"q. c #ECA4A7",
"w. c #E3A4AA",
"e. c #EBA5AB",
"r. c #EEACAD",
"t. c #E4A5A7",
"y. c #F4A3AA",
"u. c #FDA4AD",
"i. c #F4ACAC",
"p. c #FCADAD",
"a. c #F2A7A6",
"s. c #F5B2AD",
"d. c #FDB3AE",
"f. c #FAB8AF",
"g. c #F7B9AE",
"h. c #EFA5B1",
"j. c #EBA7B3",
"k. c #F6A6B1",
"l. c #F5ACB3",
"z. c #FDAEB3",
"x. c #FEADBA",
"c. c #FDA5B3",
"v. c #E2B5BA",
"b. c #E4BEBE",
"n. c #F5B3B4",
"m. c #FEB3B3",
"M. c #F7B8B3",
"N. c #FEB9B5",
"B. c #F5B4B9",
"V. c #FEB4BA",
"C. c #FFBABB",
"Z. c #F6B9B8",
"A. c #FFC0BF",
"S. c #C4BBC2",
"D. c #C9BDC9",
"F. c #D9B8C2",
"G. c #FFB5C2",
"H. c #FFBCC3",
"J. c #F1BCC6",
"K. c #C4C6C6",
"L. c #C7C2C9",
"P. c #DDC9CD",
"I. c #D8C5CA",
"U. c #D1D1CF",
"Y. c #C9DDDD",
"T. c #DDD9DB",
"R. c #E5C4C2",
"E. c #E6CACC",
"W. c #ECCBCB",
"Q. c #EBC4C7",
"!. c #FFC4C4",
"~. c #FFCAC6",
"^. c #FFC6C9",
"/. c #F1CECE",
"(. c #FFCCCB",
"). c #F0C6C8",
"_. c #F8D1CF",
"`. c #E3D3D2",
"'. c #E4DDDD",
"]. c #EFD1D1",
"[. c #F7D6D3",
"{. c #FFD4D5",
"}. c #FFD3DB",
"|. c #FEDBDB",
" X c #F4D8D7",
".X c #F6C8D5",
"XX c #D7DCE2",
"oX c #EEDDE4",
"OX c #F9DBE8",
"+X c #D7E3E5",
"@X c #DEF3EE",
"#X c #DDE7F1",
"$X c #DDFAFA",
"%X c #EBEEED",
"&X c #E6E5E6",
"*X c #F5E3E7",
"=X c #FFE2E2",
"-X c #F5EDEA",
";X c #FFEBEB",
":X c #FAE8E9",
">X c #EAF0EC",
",X c #FEF2EE",
"<X c #E5EAF1",
"1X c #FDEBF2",
"2X c #F3EDF5",
"3X c #E4F4F3",
"4X c #E5FBF6",
"5X c #E6F5FA",
"6X c #EBF6F9",
"7X c #E4FAFB",
"8X c #EBFCFC",
"9X c #ECF5F5",
"0X c #F4F3F4",
"qX c #FFF4F3",
"wX c #F4FAF6",
"eX c #FDFAF6",
"rX c #F5F6F9",
"tX c #FDF4FB",
"yX c #F4FDFC",
"uX c #FDFDFE",
/* pixels */
"m.m.m.m.m.m.m.m.m.m.M.M.m.m.m.m.d.m.d.m.m.M.m.m.V.m.m.m.m.m.d.d.m.m.m.m.m.m.m.m.m.m.m.m.m.m.m.m.m.m.m.m.m.m.m.m.m.m.m.m.m.m.m.",
"m.m.m.m.m.m.m.m.M.m.m.m.m.m.m.m.m.d.m.d.m.m.V.m.m.m.m.m.m.m.d.m.m.m.m.m.m.m.m.m.m.m.z.m.m.m.m.m.m.m.m.m.m.m.m.m.m.m.m.m.m.m.m.",
"m.m.m.m.m.m.m.m.m.m.m.m.m.m.m.m.m.m.N.d.m.m.m.m.V.m.m.m.d.N.m.d.m.m.m.m.m.m.m.m.m.m.m.m.m.m.m.m.m.m.m.m.m.m.m.m.m.m.m.m.m.m.m.",
"m.m.m.m.m.m.M.m.m.m.m.m.m.m.m.m.d.d.m.d.m.m.m.m.m.m.m.m.d.m.d.m.m.m.m.m.m.m.m.m.m.m.m.m.m.m.m.m.m.m.m.z.m.m.m.m.z.m.m.m.m.m.m.",
"m.m.m.m.m.m.m.m.m.m.m.m.m.m.m.m.N.d.m.d.m.m.m.m.m.V.m.m.m.m.s.N.m.m.m.m.m.m.m.m.m.m.m.m.m.m.m.m.m.m.m.m.m.m.m.m.m.m.m.m.m.m.m.",
"m.m.m.m.m.m.m.m.m.m.m.m.m.m.m.m.d.m.d.m.m.m.m.m.m.m.m.m.m.N.M.d.m.m.m.m.m.m.m.m.m.m.m.m.d.m.m.m.m.m.m.m.m.d.m.m.m.m.m.m.m.m.m.",
"m.m.m.m.m.m.m.m.m.m.m.m.m.m.m.m.m.d.m.m.m.m.m.m.m.m.m.m.m.M.m.m.m.m.m.m.m.m.m.m.m.m.m.m.m.m.m.m.m.m.m.m.m.m.m.m.m.m.m.d.m.m.m.",
"m.m.m.m.m.m.m.m.z.m.m.m.m.m.m.m.d.N.m.m.m.m.m.m.m.m.N.m.m.m.m.M.z.m.m.m.m.m.m.m.m.m.m.m.m.m.z.m.m.m.m.m.m.z.m.m.m.m.m.m.m.m.m.",
"m.m.m.m.m.m.m.m.p.m.m.m.d.m.m.m.m.M.m.m.m.z.m.m.m.V.m.m.Z.V.V.m.m.z.m.m.m.d.m.m.m.m.m.m.m.m.m.m.m.m.m.m.m.m.m.m.m.m.m.m.m.m.m.",
"m.m.m.m.m.m.m.m.m.m.m.m.m.m.m.m.m.m.m.m.m.z.m.m.m.p.m.m.m.m.m.m.m.m.m.m.m.m.m.d.m.m.m.m.m.m.m.m.m.m.m.m.m.m.m.m.m.m.m.m.m.m.z.",
"m.m.m.m.m.m.m.m.N.m.m.m.d.n.m.m.M.m.m.m.m.z.m.m.m.m.C.n.k.H.u.V.m.V.m.m.z.m.m.m.m.m.m.m.m.m.m.m.m.m.m.m.m.m.m.m.m.m.m.m.m.m.m.",
"m.m.m.m.m.m.m.m.m.m.m.m.M.m.N.M.M.m.m.m.m.m.m.m.m.s.m.V.H.u.3.2.m.m.N.m.m.m.m.m.m.m.m.m.m.m.m.m.m.z.m.m.m.m.m.m.z.m.m.m.m.m.m.",
"m.m.m.m.m.m.m.m.m.m.m.m.m.M.M.m.N.m.m.m.m.m.m.m.N.n.z.m.z.l 1 t m.m.m.p.m.m.m.m.m.m.m.m.m.m.m.m.m.m.m.m.m.d.z.m.m.m.m.m.d.m.m.",
"d.m.m.m.m.m.m.m.m.m.N.m.N.M.m.N.m.N.m.n.m.m.m.m.n.N.m.V.z.l , t m.V.m.z.m.m.z.m.d.m.m.m.m.m.m.m.m.m.m.m.m.m.m.m.m.m.m.m.m.m.m.",
"m.m.m.m.m.m.m.m.N.m.m.N.~.Z.m.~.N.m.m.m.m.m.m.m.m.m.m.m.3.5 r 2 &.p.m.m.m.m.d.m.m.m.m.m.m.m.m.m.m.m.m.m.m.m.m.m.m.m.m.m.m.m.m.",
"m.m.m.m.z.m.m.m.N.n.s.!.{.N.C.|.C.m.m.m.V.m.m.n.m.N.z.V.x.@.3 5 8 *.N.m.m.m.m.m.m.z.m.m.m.m.m.m.m.m.m.m.m.m.m.m.m.m.m.m.m.m.m.",
"m.m.m.m.d.m.m.M.M.(.~.l.^.H.V.!.V.G.z.k.l.i.1.x.z.z.H.m.p.p.$.p.3.t d.m.m.d.d.m.m.z.m.V.m.m.m.N.d.m.m.m.V.m.m.m.m.m.m.m.m.d.d.",
"m.m.m.m.m.d.m.m.s.!.{.H.H.H.B.j.>.h ( d ) ;.} d h ` %.m.m.m.N.p.z.i ' m.N.m.m.d.m.m.z.z.m.m.m.s.m.m.m.m.m.m.V.m.m.m.m.m.m.d.d.",
"d.m.d.m.m.m.m.m.N.V.m.Z.B.=.Z C 8.W.=X;XeX,XqXeX=XR.;.w e.m.m.m.V.' ~ p.N.m.d.m.m.x.V.m.m.m.N.m.m.f.m.m.m.m.m.V.V.m.m.m.m.d.d.",
"d.m.N.m.s.m.m.m.V.V.B.5.a =.{.;XeX,XuXuXeXuXeXeXeXeXqX/.C _ x.V.x.i *.z.m.m.s.N.m.m.m.V.m.m.m.M.d.m.m.m.m.m.m.m.m.m.m.m.d.m.m.",
"d.m.d.d.m.m.V.x.V.w.A |  XqXtXtXeXeXuXeXwXuXyXyXyXuXeXeX1X=./ G.c.6 2.H.m.s.N.g.m.M.m.m.m.V.m.m.m.d.m.m.m.m.m.m.V.V.m.m.m.m.m.",
"d.m.m.m.V.V.V.l.o.) b.,XeXeXI x m K.eXuXuXuXuXuXyXuXyXuXqX1X-.( l #.x.V.m.m.m.g.M.M.M.M.M.m.m.m.d.m.m.d.m.m.z.m.z.m.m.m.m.m.m.",
"f.m.d.m.m.m.y.o.[ =XqXeXT.+ . . . . b eXtXuXrXuXuXuXuXuXuXtX:XN 0 G.V.p.d.m.d.d.m.m.M.M.m.m.m.m.m.d.d.m.m.m.m.m.m.m.z.m.V.m.m.",
"d.m.m.m.V.k.:.) ;XqXuXyX%   & > ; +   '.uXuXuXtXuXuXuXuXuXuXuXI.W z.x.m.m.p.d.d.d.M.m.m.m.m.m.m.m.m.m.d.m.m.m.z.m.m.V.m.m.m.V.",
"N.i.m.V.k.`  .;XeXuXyXyX  - uXuXuX>XO M uXuXtXuXuXuXuXuXuXuXyX1X) <.G.z.m.z.d.m.s.N.m.m.m.z.m.m.m.N.d.N.m.m.m.m.m.z.m.m.m.m.m.",
"d.C.z.m.q.) ;XqXuXuXuX&X  m uXuXyXyX@ n uXuXuXuXuXuXuXuXuXuXyX0XW.9 _ n.m.m.m.d.N.m.m.n.V.z.V.z.i.C.z.m.z.m.m.m.m.m.m.m.m.m.m.",
"m.m.z.q.A |.eXuXyXuXrXuXO + K.yX&Xn   P yXwXyXuXuXuXuXuXuXuXyXwX XF 4.g r.C.p.m.m.p.C.z.y.1.2.V.C.p.V.m.V.m.m.z.m.m.m.m.m.m.m.",
"z.V.V.W v.eXeXwXuXuXuXuXz           $ wXyXuXuXtXuXuXuXuXuXuXuX8XyXU E.).d n.V.z.m.C.O.h } :.W E l.n.V.C.m.m.N.p.m.m.m.m.m.m.V.",
"z.m.r.[ qXeXeXuXuXuXuXuX2XP $     * &XuXuXuXuXuXuXuXuXuXuXuXuX8X6XS.F.tX] %.x.G.G.` C  XqXqXeX0.Z H.l.V.z.n.m.m.d.m.d.d.m.m.m.",
"x.n.X.0.eXeXwXuXuXuXuXuXuXyXuXeXeXuXuXuXuXuXuXuXuXuXuXuXuXyXuXyXyXXXU tXOXd k.<.d =.;XeXuXeX0XqX{ O.C.l.V.V.z.N.m.m.m.m.m.m.m.",
"V.V.A /.eXeXuXyXtXuXuXyXuXuXuXuXuXyXuXuXuXuXuXuXuXuXuXyXyXuXuX8X5X#XY tX1X9 D H W.qXeXqXoXI.oX1X{.e B.n.C.N.z.m.m.d.m.d.d.m.m.",
"z.B.A |.eXuXuXuXuXuXuXuXuXuXuXuXyXuXuXuXuXuXuXuXuXuXyXuXyXyXuXyX5X5X<XuXrX9.*XuXeXuXqXP.N D a J.;X>.o.H.x.V.m.m.m.m.m.m.m.m.m.",
"V.x.A |.eXuXuXyXuXuXuXuXuXyXeXuXeXtXuXuXyXuXuXuXuXuXuXuXuXyXuXwX3X8XXXuXtX2X2XuXtXtX0.a t.V.i.e |.}.V l.G.G.V.k.X.E E i j 3.V.",
"z.G.A /.uXuXuXuXuXuXuXuXuX0XU x c U.yXuXuXuXuXuXuXuXuXuXuXyXuX8X8XY.L uXtXD.2X2X1X4.S j.C.p.d.O.| 1Xv.f >.;.( E w.B.*.i 4 7 3.",
"z.V...0.tXeXuXuXuXuXuXuXT.@       X x eXuXuXuXuXuXuXuXuXuXuXyX4X7XY.T tXOXs -.-.g ) j.C.z.m.C.i.B W.qX X7.6.R.|.B.` ~ 1.i.k.q.",
"V.n.t.[ qXeXuXuXuXuXuXuX% X % > : X   U.uXuXeXuXuXuXuXuXuXuX8X7X$X+XD.tX.Xg >.5.B.H.z.n.m.m.n.Z.w.C /.:XeX;X[.[ d e.V.V.z.s.A.",
"m.V.V.C W.eXeXuXuXuXuX2X  - wXuXyX-X@ G eXuXeXeXuXuXuXuXuXyX7X7X7X6XtX1X) :.m.N.a.N.M.N.m.V.V.Z.B.,.Z )  .[ q t.V.V.z.V.C.n.m.",
"V.z.m.5.A ;XuXuXuXuXuX2X  M uXuXuXuX@ c eXuXuXyXuXuXuXuXuXyX7X7X<XS.OX7.W H.m.d.A.g.s.N.M.C.V.G.V.n.z.<.*.q.V.m.m.z.m.z.m.m.z.",
"m.p.V.V.Q v.qXeXuXuXrXuXo o R rX>Xx   R uXuXyXyXuXuXuXuXuX8X$X5XoXs S / x.V.m.s.s.f.N.d.m.V.x.x.m.V.m.z.n.z.z.V.m.H.i.V.V.p.V.",
"z.m.z.z.n.w R.eXeXyXuXuXz           # yXuX8XuXuXuXuXuXuXyX7X$X8X8.0 <.x.V.z.m.m.f.d.d.d.z.m.x.z.V.i.V.z.V.V.N.n.m.m.z.m.z.z.z.",
"m.p.N.i.V.l.w R.eXuXyXyXyXL #     = XXuXuXuXuXuXuXuXuXyX5X8X$X&XC x.z.C.z.V.m.m.d.d.d.d.m.d.m.m.m.g.m.m.m.m.m.m.m.M.m.m.m.m.m.",
"m.d.V.m.n.V.q.d b.,XeXwXyXyXqXtXuX0XuXuXyXuXuXuXrXuXyX8X<X5XrXU q V.m.Z.n.V.m.m.d.d.z.d.d.d.d.d.m.d.m.d.d.m.m.m.M.m.M.m.m.m.m.",
"m.m.s.C.M.i.C.k.e >.:XeXyXuXuXuXuXuXuXuXuXuXuXuXuX7X3X4XwXtXF.f e &.m.m.m.M.n.m.d.m.m.m.s.g.g.f.d.m.d.m.z.p.m.m.m.m.M.M.M.m.m.",
"d.m.m.s.C.m.z.N.V._ C E.,XeXeXuXuXuXyXuXuXuXyXuXyX4X4XwXuXF.f l.@.p d.M.V.M.n.V.z.m.m.m.f.f.f.f.m.d.m.m.d.m.m.p.m.m.M.M.M.m.m.",
"m.p.N.d.m.N.m.i.C.z.y.d [ ].-XeXwXyXwXyXyXyX8X5X@X8X>X-X6.V k.x.z.y 2.d.V.m.m.m.m.V.m.m.m.d.d.m.m.m.m.M.M.M.m.m.n.m.m.d.m.m.m.",
"N.m.m.m.d.i.N.A.s.V.G.V.<.a F 9.T.-X-XqX2XrXrXrXuX&XE.H C l.x.V.V.k ^ m.m.m.V.z.m.m.m.m.m.m.m.m.m.m.M.M.M.B.m.m.m.m.m.m.m.m.m.",
"n.V.z.d.m.d.d.i.m.N.H.l.Z.H.t.X.f S ;.5.8.F.8.7.K C A <.n.m.m.s.m.j ' m.m.m.m.p.z.m.M.M.M.m.m.V.m.V.m.z.m.m.m.m.m.m.m.z.z.m.m.",
"V.m.m.m.p.m.d.N.m.^.(.^.H.H.G.V.G.h.<.o.] o.} ;.j.l.x.V.V.m.i.m.m.8 q.V.p.m.m.m.d.m.m.M.M.m.V.z.m.z.V.V.m.m.m.m.m.m.m.m.m.m.m.",
"m.m.m.m.m.m.m.m.n.^.A.m.(.^.C.~.C.V.n.m.V.V.C.C.V.Z.z.V.x.@.5 k p ' z.N.m.m.m.m.m.m.m.m.n.m.m.m.m.m.m.m.m.m.z.m.m.m.m.m.m.m.m.",
"m.m.m.m.m.m.m.m.N.V.n.C.{.C.Z.{.C.M.m.m.m.m.m.m.M.m.m.m.c.y u 1 ^ a.N.m.z.m.m.n.m.m.m.m.m.m.m.m.m.m.m.m.m.m.m.m.m.m.m.m.m.m.z.",
"m.m.m.m.m.m.m.m.m.n.n.N.~.V.n.~.C.N.m.m.m.m.n.m.d.N.m.z.x.6 < r u.m.m.m.m.m.m.m.m.m.m.m.m.m.m.m.m.m.m.m.m.m.m.m.m.m.m.m.m.m.m.",
"m.m.m.m.m.m.m.m.m.m.V.n.Z.Z.n.n.M.m.m.m.m.m.d.m.n.m.V.m.m.k , y V.m.m.m.m.z.m.N.m.m.m.m.m.m.m.m.m.m.m.m.m.m.m.m.m.m.m.m.m.m.m.",
"m.m.m.m.m.m.V.m.m.m.m.N.m.m.n.M.m.n.d.m.m.m.m.m.m.n.m.m.V.2.k k m.m.m.m.m.m.m.m.m.m.d.m.m.m.m.m.m.m.m.m.m.m.m.m.m.m.m.m.m.m.m.",
"m.m.m.m.m.m.m.m.V.m.m.C.m.V.m.V.m.m.m.m.m.z.m.m.m.m.m.n.V.z.x.V.m.m.m.m.m.m.m.m.m.m.m.m.m.m.m.m.m.m.m.z.m.m.m.m.m.m.m.m.m.m.m.",
"m.m.m.m.m.m.m.m.m.m.m.m.l.N.m.m.m.M.m.m.m.z.z.m.m.z.C.N.i.V.C.i.V.m.z.m.N.m.p.m.m.m.m.m.m.m.m.m.m.d.m.m.m.m.m.m.m.m.m.m.m.m.m.",
"m.m.m.m.m.m.m.m.m.m.m.m.n.V.m.m.m.m.m.m.m.m.m.m.m.m.m.m.V.m.m.N.m.m.m.n.m.m.m.m.m.m.m.m.m.z.m.m.m.m.m.m.m.m.m.m.m.p.m.m.m.m.m.",
"m.m.m.m.m.m.m.m.m.m.m.m.m.m.m.m.m.d.m.m.m.m.m.m.m.m.m.m.m.m.N.m.m.m.m.m.m.m.m.m.m.z.m.m.m.m.m.m.m.m.m.m.m.m.m.z.m.m.d.m.m.m.m.",
"m.m.m.m.m.m.m.m.m.m.m.m.m.m.m.m.s.N.m.m.m.m.m.m.m.m.m.m.m.m.s.m.m.m.m.m.m.m.m.m.m.m.m.m.m.m.m.m.m.m.m.m.m.m.m.m.m.m.m.m.m.m.m.",
"m.m.m.m.m.m.m.m.m.m.m.m.m.p.d.m.d.m.d.N.m.m.m.m.m.m.m.m.m.N.s.N.m.m.m.m.m.m.m.m.m.m.m.m.m.m.m.m.m.m.m.m.m.m.m.m.m.m.m.m.m.m.m.",
"m.m.m.z.m.m.m.m.m.m.m.m.m.d.m.d.N.d.m.d.m.m.m.m.x.V.m.m.m.m.m.d.m.m.m.m.m.m.m.m.m.m.m.m.m.m.m.m.m.m.m.m.m.m.m.m.m.m.m.m.m.m.m.",
"m.m.m.m.m.m.m.m.m.m.f.m.d.m.m.m.d.m.m.d.m.m.m.V.m.m.m.m.m.m.d.m.m.m.m.m.m.m.m.m.m.m.m.m.m.m.m.m.m.m.m.m.m.m.m.m.m.m.m.m.m.m.m.",
"m.m.m.m.z.m.m.m.d.m.m.d.m.d.d.m.m.d.d.N.m.N.m.m.V.m.m.m.m.m.m.d.m.m.m.m.m.m.m.m.m.m.m.m.m.m.z.m.m.m.m.m.m.m.m.m.m.m.m.m.m.m.m.",
"m.m.m.m.m.m.m.m.m.d.m.m.m.d.m.d.d.m.m.d.m.M.m.m.m.z.m.m.d.m.d.m.m.m.m.m.m.m.m.m.m.d.m.m.m.m.m.m.m.m.z.m.m.m.m.m.m.m.m.m.m.z.m."
};
