/* XPM */
static char *player_down_01639493535[] = {
/* columns rows colors chars-per-pixel */
"63 63 215 2 ",
"   c #010101",
".  c #090909",
"X  c #0B0F10",
"o  c #110F15",
"O  c #0F1012",
"+  c #171919",
"@  c #211B1D",
"#  c #1C2523",
"$  c #2C2C2B",
"%  c #272322",
"&  c #3E3A3B",
"*  c #413839",
"=  c #41403E",
"-  c #504A4A",
";  c #4E4E4B",
":  c #676566",
">  c #70676A",
",  c #716F72",
"<  c #797778",
"1  c #8A2A32",
"2  c #94343D",
"3  c #953A3F",
"4  c #9E434A",
"5  c #A64D53",
"6  c #B2575D",
"7  c #B35A5E",
"8  c #BB5B65",
"9  c #BF666C",
"0  c #A56D78",
"q  c #BD6C78",
"w  c #B57B7E",
"e  c #B5797E",
"r  c #C15D68",
"t  c #C3676D",
"y  c #CE6D75",
"u  c #C86C74",
"i  c #CC747B",
"p  c #CA797F",
"a  c #D47579",
"s  c #997583",
"d  c #AA7E86",
"f  c #B97681",
"g  c #B67D84",
"h  c #BA7C84",
"j  c #B67886",
"k  c #BB7E90",
"l  c #C27E87",
"z  c #CC7D86",
"x  c #D47C81",
"c  c #DB7E86",
"v  c #878B8B",
"b  c #878988",
"n  c #9C8186",
"m  c #85948F",
"M  c #91908E",
"N  c #8C9192",
"B  c #969393",
"V  c #969D9A",
"C  c #969499",
"Z  c #AE8083",
"A  c #B38186",
"S  c #BD8286",
"D  c #BB8389",
"F  c #B3898D",
"G  c #BB8A8C",
"H  c #B2828E",
"J  c #B5918F",
"K  c #B88995",
"L  c #AF9191",
"P  c #B89397",
"I  c #98A2A1",
"U  c #A9A8AB",
"Y  c #A8B3AF",
"T  c #A3AEB0",
"R  c #B2A8B1",
"E  c #A8B1B0",
"W  c #BFBABA",
"Q  c #B0B4B3",
"!  c #C1838A",
"~  c #C8878D",
"^  c #C0898D",
"/  c #CA898F",
"(  c #DC838B",
")  c #DA8489",
"_  c #C28D92",
"`  c #CA8B93",
"'  c #C88795",
"]  c #D28B95",
"[  c #D68D98",
"{  c #C6939B",
"}  c #CC959A",
"|  c #C5999F",
" . c #C99597",
".. c #D3949C",
"X. c #DE979D",
"o. c #D09B9E",
"O. c #DB989F",
"+. c #E1848C",
"@. c #E58B8D",
"#. c #E18F91",
"$. c #ED949A",
"%. c #E2949C",
"&. c #F0969D",
"*. c #F2999C",
"=. c #CD9CA3",
"-. c #C997A2",
";. c #DF95A3",
":. c #DC9BA4",
">. c #D299A0",
",. c #E39DA3",
"<. c #EC9FA6",
"1. c #E79CA9",
"2. c #F99EA4",
"3. c #F39DA0",
"4. c #C7A5A7",
"5. c #D6ADAE",
"6. c #D6A1A7",
"7. c #C6B3AF",
"8. c #C5ABB4",
"9. c #D5ADB6",
"0. c #DAACB6",
"q. c #C9B6B3",
"w. c #DAB3B7",
"e. c #E6A4AA",
"r. c #EAA3AB",
"t. c #EDABAE",
"y. c #E1A9AA",
"u. c #FBA4A5",
"i. c #F2A3AC",
"p. c #FDA5AB",
"a. c #F5ABAB",
"s. c #FDADAD",
"d. c #EFB3A9",
"f. c #F5B3AD",
"g. c #FDB3AE",
"h. c #F4B8AE",
"j. c #ECA4B1",
"k. c #EEACB2",
"l. c #F7A6B1",
"z. c #F6ACB2",
"x. c #FEADB2",
"c. c #FEAEBA",
"v. c #E3BABD",
"b. c #ECB4BB",
"n. c #F6B4B4",
"m. c #FEB3B3",
"M. c #FEB9B6",
"N. c #F4B5B9",
"B. c #FEB4BA",
"V. c #FEBABB",
"C. c #F7B8B1",
"Z. c #FFC1BE",
"A. c #FCC2B6",
"S. c #C1BAC1",
"D. c #D4BCC3",
"F. c #E5BAC5",
"G. c #FEB3C1",
"H. c #FFBBC2",
"J. c #FFBECA",
"K. c #BEC9CB",
"L. c #D6C6CA",
"P. c #CED0CD",
"I. c #D8CFD5",
"U. c #CFD9DA",
"Y. c #DADBDE",
"T. c #C5C5C5",
"R. c #E2C3C5",
"E. c #EAC3C6",
"W. c #E7CFCB",
"Q. c #ECCDCC",
"!. c #E1C7C7",
"~. c #FFC3C2",
"^. c #F9C6CA",
"/. c #FFCCCC",
"(. c #F7C9CC",
"). c #FFD1CD",
"_. c #E7D8D7",
"`. c #FCD3D4",
"'. c #FEDCDD",
"]. c #F9D3D8",
"[. c #F0D0D3",
"{. c #D9DCE5",
"}. c #EBDCE1",
"|. c #FBDCE2",
" X c #F6DBE4",
".X c #DCE9EC",
"XX c #DFF7F9",
"oX c #E4E1EA",
"OX c #EBEAEB",
"+X c #E8E6E6",
"@X c #FFE2E3",
"#X c #FFE5EA",
"$X c #F4EBEB",
"%X c #FEEBEC",
"&X c #F6E4E4",
"*X c #ECF0EF",
"=X c #FDF3ED",
"-X c #F3F4EF",
";X c #EBEDF6",
":X c #FAEFF1",
">X c #E4F5F5",
",X c #EBF3F6",
"<X c #E3FAF7",
"1X c #E5F4FC",
"2X c #EBF5FD",
"3X c #E6FCFD",
"4X c #ECFCFD",
"5X c #F3F4F4",
"6X c #FEF4F4",
"7X c #F3FBF5",
"8X c #FEFAF6",
"9X c #F5F6F9",
"0X c #FDF6F9",
"qX c #F4FDFD",
"wX c #FDFEFD",
/* pixels */
"m.m.m.m.m.m.m.m.m.m.m.m.m.m.m.m.m.C.m.m.m.m.B.B.x.m.m.m.m.m.m.m.x.p.m.g.m.m.s.m.m.B.m.C.B.n.B.m.m.m.m.m.m.m.m.m.m.m.m.m.m.m.m.",
"m.m.m.m.m.m.m.m.m.m.m.m.m.m.m.m.m.m.m.m.m.m.x.m.m.m.m.m.m.m.m.x.2.7 a.m.B.s.m.B.m.m.m.m.m.m.m.B.m.m.m.m.m.m.m.m.m.m.m.x.m.m.m.",
"m.m.m.m.m.m.x.m.x.m.m.m.m.m.m.x.m.m.m.m.m.m.m.m.m.m.m.m.m.m.m.m.) 4 i.V.x.V.x.m.m.m.m.m.m.n.B.m.m.m.m.m.m.m.m.m.m.m.m.m.m.m.m.",
"m.m.m.m.m.m.m.m.m.m.m.m.m.m.m.m.m.m.m.m.m.m.m.m.m.m.B.m.m.m.g.m.p p i.m.m.m.m.m.m.m.m.m.m.m.m.m.m.m.m.m.m.m.m.m.m.m.m.m.m.m.m.",
"m.m.m.m.m.m.m.m.m.m.m.m.m.m.m.m.m.m.m.m.m.m.m.m.M.g.C.m.m.g.g.m.z <.] m.V.l.B.m.m.m.m.m.m.m.m.B.m.m.x.m.m.m.m.m.m.m.m.m.m.m.m.",
"m.m.m.m.m.m.m.m.m.m.m.m.m.m.m.m.m.m.m.m.m.m.C.m.g.C.m.g.g.m.m.m.z G.l r.B.B.x.B.m.m.m.m.m.m.x.m.m.m.m.m.x.m.m.m.x.m.m.m.m.m.m.",
"m.m.m.m.m.m.m.m.m.m.x.m.m.m.m.m.m.m.m.m.m.m.m.m.M.g.g.m.g.m.m.m.%.1.b.G V.B.c.x.m.m.m.m.m.m.m.m.m.m.m.m.m.m.m.m.m.m.m.m.m.m.m.",
"m.m.m.m.m.x.m.m.m.m.m.m.m.m.m.m.c.m.x.m.m.m.m.m.g.g.m.g.m.m.m.m.x.l '.J :.c.B.x.m.m.m.m.m.m.m.x.m.m.m.m.m.m.m.m.m.m.m.m.m.m.x.",
"m.m.m.m.m.m.m.x.m.m.m.m.m.m.m.m.m.m.m.m.g.M.M.m.m.g.m.g.m.x.x.B.G.' R.W.S z.B.x.B.m.m.m.C.m.m.x.m.m.m.m.x.m.m.m.m.m.m.m.m.m.m.",
"x.m.m.m.m.m.m.m.m.m.m.m.m.m.x.m.m.m.m.m.m.g.g.g.g.g.x.m.s.m.B.x.G.:.q.%XG l.x.x.C.C.m.m.C.B.m.x.m.m.m.m.m.m.m.m.m.m.m.m.m.m.m.",
"m.m.m.m.m.m.m.m.m.m.m.m.m.m.m.m.m.m.m.m.C.g.g.m.m.m.m.x.B.B.m.G.G.} 7.=Xo.%.m.B.m.C.m.g.C.B.m.m.m.x.m.m.m.m.m.m.m.m.m.m.m.m.m.",
"m.m.m.m.m.m.m.m.m.m.m.m.m.m.m.m.m.m.m.m.C.m.m.g.s.m.m.x.m.B.n.G.B.D W.=X .%.H.s.m.C.g.m.m.C.m.m.m.m.m.g.m.m.m.m.x.m.m.m.m.m.m.",
"m.m.m.m.m.m.m.m.m.m.m.m.m.m.m.m.m.m.m.m.C.m.g.m.M.p.m.B.B.V.N.>.f b.%X`.e n.a.m.g.M.g.m.m.m.m.m.m.m.m.m.m.m.m.m.m.m.m.m.m.m.m.",
"m.m.m.m.m.m.m.m.m.m.m.m.m.m.m.m.x.m.m.m.g.g.M.g.x.B.B.V.N.} A { |.#X^.g y.B.M.m.m.g.m.g.m.m.m.m.m.m.m.m.m.m.m.m.m.m.m.m.m.m.m.",
"m.m.m.m.m.m.m.m.x.m.m.m.m.m.x.m.m.m.m.m.m.M.m.m.V.a.B.a.! =.'.=X].=.l e.n.n.n.M.m.g.g.m.m.m.m.m.m.m.m.m.m.m.m.m.m.m.m.m.x.m.m.",
"m.x.m.m.m.m.m.x.m.m.m.m.m.m.m.m.x.m.m.m.g.m.g.m.m.M.a.} 5.%X6Xv.Z >.z.m.B.N.m.g.m.g.m.g.m.m.M.m.m.m.m.m.m.x.m.m.m.m.m.m.m.m.m.",
"m.m.m.m.m.m.m.m.m.m.m.m.m.m.m.m.g.m.m.s.m.m.g.C.m.m.r.^ =XwX].j j.B.m.M.f.h.m.m.m.m.m.B.m.g.g.g.m.m.m.m.m.m.m.m.m.m.m.m.m.m.m.",
"m.m.m.m.m.m.m.m.m.m.m.m.m.m.m.m.m.g.m.m.x.m.C.C.x.B.,.=.8X8XF.D J.x.B.n.h.C.g.m.m.c.B.m.m.C.C.g.g.m.m.m.m.m.m.m.m.m.m.m.m.m.m.",
"m.m.m.m.m.m.m.m.m.m.m.m.m.m.m.m.m.m.m.m.m.m.C.m.m.B.<. .8X9X}.P :.B.V.n.C.M.s.m.m.x.m.m.m.m.g.g.m.m.m.m.m.m.m.m.m.m.m.m.m.m.m.",
"m.m.m.m.m.m.m.m.m.m.m.m.m.m.m.m.m.m.n.C.C.B.C.m.m.m.x.S Q.wXwXD.A e.N.V.M.m.g.s.m.n.B.B.m.m.m.m.m.m.m.m.m.m.m.m.m.m.m.m.m.m.m.",
"m.m.m.m.m.m.m.M.m.m.m.m.m.M.m.m.m.m.C.C.B.m.m.m.x.B.B.,.G #XwX6XR.A k.B.m.m.m.g.m.m.C.B.m.C.m.m.m.m.m.m.m.m.m.m.m.m.m.m.g.m.m.",
"m.m.m.m.m.m.m.m.m.m.m.m.m.m.m.m.B.m.B.B.C.B.m.m.m.M.x.B...-.6XwX6X4.` G.x.m.m.m.m.n.m.m.C.B.f.m.m.m.m.m.m.g.m.C.m.m.m.m.m.m.m.",
"m.m.m.m.m.m.m.m.m.m.m.m.m.m.m.m.x.m.m.m.m.m.m.m.m.m.z.B.B.j ].=X6X&Xj c.c.c.m.m.m.C.m.M.m.C.B.B.m.m.m.m.m.M.m.m.m.m.m.m.m.m.m.",
"m.m.g.m.m.m.C.m.m.m.m.m.m.m.m.m.m.x.x.m.m.m.m.x.m.f.V.m.c.r.| 8XwX:X{ 1.G.x.M.m.g.C.g.m.g.m.m.m.m.m.m.m.m.m.m.m.m.m.m.m.m.m.m.",
"m.m.x.m.m.m.m.m.m.m.m.m.B.a.M.m.m.m.x.s.m.g.s.M.m.M.z.B.B.z.g  X5X$X-.;.G.x.B.s.g.g.g.g.m.x.x.x.g.V.g.m.M.m.m.M.m.M.m.m.m.m.m.",
"m.m.m.m.m.m.m.m.g.m.C.m.m.M.m.s.s.g.m.g.m.M.M.p.g.g.m.V.[ f H q.$XW n d ,.c.B.x.g.g.g.s.g.g.B.m.g.M.m.m.x.m.m.a.m.m.m.m.m.m.m.",
"m.m.m.m.m.m.m.m.m.m.m.m.a.m.m.m.M.f.g.M.C.f.n.B.m.m.n.w o.`.6X9XwX5X*XL.P G j.B.C.h.A.M.g.s.m.m.m.x.m.m.z.M.V.M.m.m.m.m.m.m.m.",
"m.m.m.m.m.M.m.m.M.m.m.m.M.m.m.x.g.C.m.a.C.n.m.x.B.z.h (.6X6XwXqX0XqX4XqX:X8.k B.V.h.d.h.M.g.m.m.m.m.x.B.m.m.f.m.g.M.m.m.m.m.m.",
"m.m.m.m.m.m.C.m.m.m.m.x.B.s.M.s.u.@.+.$.l.c.B.c.B.` } ^.9.8.R ;X{.U T K.;X X-.1.m.V.z.s.*.c ( 2.s.B.s.m.m.m.m.m.m.m.M.m.m.m.m.",
"m.m.m.m.m.m.m.m.a.V.m.x.m.m.m.*.y a ) a t ( x.c.1.0 F 8.L.I.}.;X;X{.U..X;XL.s 0 k.H.$.i i +.( u ( u.B.m.m.s.m.m.g.m.m.m.m.m.m.",
"m.m.m.m.m.g.m.m.m.m.m.m.x.m.( u u.p.C.V.l.z u h P W.+X7X>X1X4X1XXX4X2X2X2X1X}.8.K q 9 3.B.m.m.z.x x p.m.m.m.m.a.m.m.m.m.m.m.m.",
"m.m.m.m.m.M.m.m.m.x.m.*.t t 4 7 u.M.m.m.H.' d F.:X5XqX<X4X4X1X4X3X4X1X2X4X1X1X0X X-.f l.G.x.B.m.c 3 9 t ( m.m.B.m.M.m.m.m.m.m.",
"m.C.g.m.m.g.m.m.m.m.B.2.2 1 r 5 #.B.B.B.{ P %X0XwXwXwXwXwXwXqXqXqXqXwXqX4X4X1X,X,X0XD.k j.c.n.s.8 8 2 1 c c.x.B.m.m.m.m.M.g.m.",
"g.g.g.m.C.g.m.m.B.m.c.p.+.y r +.p.m.x.` =.:X7XqXwXwXwXwXwXwXwXwXqXwXwXwXwX4X4X4XXX4X9XD.' j.m.m.$.y r c &.x.B.x.m.m.m.g.g.m.g.",
"g.C.M.g.m.m.m.m.m.m.m.m.c.B.3.c.M.n.r.~ |.wXwXwXwXwXwXwXwXwXwXwXqXwXwXwXwXwXwXqX<X>XqX6X9.! B.g.B.2.2.B.c.m.B.m.m.m.m.m.m.g.m.",
"m.m.m.g.m.m.m.m.m.m.x.B.s.B.B.x.s.V.w ].0XwX0XwXwXwXwXwXwXwXwXwXwXwXwXwXwXwXwXwXqX4X.XqX%XF e.m.x.B.m.x.m.m.s.m.m.m.m.M.g.m.m.",
"m.m.m.m.m.m.M.B.f.V.a.M.m.s.m.m.m.e.} %X0XwXwXwXwXqXwXwXwXwXwXwX8XwXwXwXwXwXwXwXqXqX4X<X5X!.! B.m.m.g.m.n.m.m.m.m.C.m.m.m.m.m.",
"m.m.x.m.m.m.m.m.m.M.m.m.M.B.m.V.B.~ E.8X6XwXwXwXwXwXwXwXwXwXwXwXwXwXwXwXwXwXwXwXwXwX4X<X>X%Xh l.B.g.m.m.m.M.M.m.M.m.m.m.m.m.m.",
"m.m.m.m.m.m.m.m.V.f.C.g.a.m.m.n.x.S '.wX8XwXwX0XwXwXqXwXwXwXwXwXwXwXwXwXwXwXwXwXwXwX4X3X3X5X-.1.m.B.m.f.m.M.m.f.g.m.m.m.m.m.m.",
"m.m.B.m.m.m.m.m.m.m.m.B.M.m.m.m.z.! =XwXwXwXwXwXqXqXqXwXwXwXwXwXwXwXwXwXwXwXwXwXwXwXwX4XXX9X=.,.B.f.m.B.m.m.m.M.m.m.m.m.m.m.B.",
"m.m.m.m.m.m.m.m.m.m.m.m.m.m.m.m.l.` wXwXqXwXwXwXwXqX4XwXwXwXwX8XwXwXwXqXwXwX8XwXwXwXwXqX3X,XF.] B.m.m.m.m.m.m.x.m.m.m.m.B.m.m.",
"B.m.B.m.m.m.m.m.m.m.m.m.m.m.m.B.<.} 8XqXwX7X0XwXqXqXwXwXwXwX8XwXwXwXwXwXwXwXqX7X6XwXwXwXqX2Xw.[ B.m.m.m.m.m.m.m.m.m.m.m.m.m.m.",
"B.m.m.m.m.x.m.m.m.m.m.m.m.m.m.x.l.` 6X8XqXqXwXwXwXwXqX5XwXwX9XwXwXwXwXqXqXwX7XwXwXwX0XwX4X9X0.[ m.m.g.m.m.m.m.m.m.m.m.m.M.m.g.",
"m.C.m.m.m.m.m.x.m.m.m.m.x.m.m.B.s.S =XwXqXwXwXwXwXqXwXwXwXwXwXwX0XwX7XwXwXwXqX7X6XwX0XwXqX0X=.;.B.m.m.m.m.m.x.m.m.m.m.m.m.m.M.",
"g.g.m.M.m.m.x.m.m.x.x.m.m.M.B.m.c.l |.8XwXqXwX8XwX+XOXwXwX6XwXwXwXwXwXwXwXOX5X7XwXwXwXwXqX6X=.,.B.n.m.B.B.m.m.m.m.m.m.m.g.M.g.",
"C.m.g.g.m.m.m.m.m.m.m.m.m.B.B.n.B.` Q.6XwXwX0XM X     = I.wXwXwXwX9XwXN o     - P.wXwXwX7X$XG i.C.B.m.B.m.m.m.m.x.m.m.m.m.g.m.",
"g.C.m.g.m.m.m.m.m.m.B.C.M.N.V.V.B...5.8X8XwXM . + B :   + 9XwXwXwXwXC   o C >   % 5XqX4X7X_.e B.V.Z.V.B.n.m.B.x.m.m.m.m.m.C.g.",
"m.g.m.m.m.m.m.m.m.m.B.C.n.V./.`.~.t.F =X8X8X$   q.wXwX&   U wXwXwX9X$   S.wXwX*   Q qXwXqX7...B./.).^.n.m.B.m.m.m.m.m.g.g.m.g.",
"m.m.m.m.m.m.m.m.m.m.m.B.m.C.M.M.B.B.G W.8XwX    :XwXwX<   v wXwXwXqX    8X0XwX<   v wX-X-XL e.B.B.C.n.m.m.B.m.g.m.m.x.m.m.m.m.",
"m.m.m.m.m.m.m.m.m.m.m.m.g.f.M.V.J.B.} 4.8X8X.   OXwXwX:   V 5XwXwX7X    +XwXwX,   M wXwXL.F N.J.~.V.M.C.g.m.m.m.m.m.m.m.m.m.m.",
"m.m.m.m.m.m.m.m.m.m.M.m.M.V.^.)./.N.N.Z ].8X-   v wX,X+   T.wXwXwXwX;   b wX;Xo   P.6X6XP 6.N.V./.).~.M.g.m.m.m.m.m.m.m.m.m.m.",
"m.m.m.m.m.m.m.m.m.m.m.C.m.M.V.Z.B.V.H.:.} :X_.$   #     N wXwXwX8XwXY.$ . + X   v wX8XE.S M.V.Z.V.V.M.m.m.m.m.m.m.m.m.m.m.m.m.",
"m.m.m.m.m.m.m.m.m.B.m.m.m.n.g.f.Z.).B.B.~ F.wX8XY m I Y.0XwXwX9XwXwXwXwXY m V U.wXwX#XD ,.B.V.`.B.C.f.f.m.m.m.m.m.m.m.m.m.m.m.",
"m.m.m.m.m.m.m.g.m.m.g.m.B.M.m.M.).Z.B.l.z.S '.6XwXwXqXwXwXwXwXwXwX9XwXwXwXqXqXwX8X6X6.` B.m.B.^.Z.M.m.B.M.n.m.m.m.m.m.m.m.m.m.",
"m.m.m.m.m.x.m.m.m.m.m.m.g.m.m.m.M.g.m.V.a.O.{ #X0XwXwXqX9XwXwXwXwXwXwX0XqXwXwXwX0Xv.e H.B.B.M.g.M.C.C.m.m.m.m.m.m.x.m.m.m.m.m.",
"m.m.m.m.m.m.m.m.m.m.m.m.m.g.m.m.g.M.g.m.B.B.` >.#XwX8XwXwXwXwXwXwXwXwXwXwXwXwX6XF.g z.n.m.m.g.m.g.B.m.m.m.m.m.m.m.m.m.m.m.m.m.",
"m.m.m.m.m.m.m.m.m.m.m.m.m.m.m.g.M.g.C.g.n.B.n.[ >.#X0X8XwXwXwXwXwXwXwXwX8X8X%XE.j e.B.m.M.M.s.m.m.m.m.m.m.m.m.m.m.m.m.m.m.m.m.",
"m.x.m.m.m.m.m.m.m.m.m.m.m.m.m.m.g.s.M.M.m.m.B.l.[ ^ |.0X6XwXwX8XwXwX8X0X8X#Xv.g r.B.B.z.m.M.g.m.m.m.m.m.m.x.m.m.m.m.m.m.m.m.m.",
"m.m.m.m.m.m.m.m.m.m.x.m.m.m.m.g.g.g.C.C.g.z.B.B.B.,.h F.6X=XwX8X8X8X8X6X[. .' z.V.B.m.m.M.m.g.m.m.m.m.m.m.m.m.m.m.x.m.m.m.m.m.",
"m.m.m.m.m.m.m.m.m.m.m.m.x.m.m.m.m.m.g.g.m.m.x.x.x.m.r.! _ v.R.#X|.].9.J G :.z.B.x.m.m.m.m.m.m.m.m.m.m.m.m.m.m.m.m.m.m.m.m.m.m.",
"m.m.m.m.m.m.m.m.m.m.m.m.m.m.m.m.m.m.m.m.m.m.m.m.B.m.B.M.e. ._ F D ^ o.y.N.V.V.x.B.m.m.m.s.x.m.m.m.m.m.m.m.m.m.m.m.m.m.m.m.m.m.",
"m.m.m.m.m.m.m.m.m.m.m.m.m.m.m.m.g.M.m.m.m.m.g.m.m.m.x.m.B.B.M.k.N.m.N.B.f.B.M.g.m.m.m.m.x.m.m.m.m.m.m.m.m.m.m.m.m.m.m.m.m.m.m.",
"m.m.x.m.m.m.m.m.m.m.m.m.m.m.x.m.m.m.m.m.g.g.g.g.m.a.m.M.x.m.m.B.m.m.B.m.m.M.g.t.m.g.x.m.m.M.m.m.m.m.m.m.m.m.m.m.m.m.m.m.m.x.m."
};
