/* XPM */
static char *player_right_01639492497[] = {
/* columns rows colors chars-per-pixel */
"63 63 216 2 ",
"   c #020101",
".  c #0A0606",
"X  c #090B08",
"o  c #100A0C",
"O  c #150E12",
"+  c #1A1A18",
"@  c #09130B",
"#  c #20171A",
"$  c #1D1E20",
"%  c #241F23",
"&  c #272628",
"*  c #28312E",
"=  c #3C3D3C",
"-  c #3E3F41",
";  c #403F44",
":  c #4E5752",
">  c #4B4D4C",
",  c #676668",
"<  c #716D6C",
"1  c #7A787A",
"2  c #882832",
"3  c #93323D",
"4  c #983D42",
"5  c #9F4048",
"6  c #A14C53",
"7  c #AF565A",
"8  c #B1545B",
"9  c #B1585C",
"0  c #A2474C",
"q  c #BA5B63",
"w  c #BB6D7A",
"e  c #B3777B",
"r  c #A8747A",
"t  c #C25E6A",
"y  c #C3626B",
"u  c #C46B73",
"i  c #CA6D75",
"p  c #D06C78",
"a  c #CA757B",
"s  c #C7737A",
"d  c #D2767B",
"f  c #987883",
"g  c #AD7C80",
"h  c #A67A82",
"j  c #B57E84",
"k  c #BC7D85",
"l  c #B77A89",
"z  c #CD7E86",
"x  c #C27C87",
"c  c #D97C85",
"v  c #8D8789",
"b  c #8C8989",
"n  c #878788",
"m  c #8D908E",
"M  c #8F9491",
"N  c #9A9797",
"B  c #988285",
"V  c #BB8286",
"C  c #BC838A",
"Z  c #B58B8C",
"A  c #BC8A8C",
"S  c #B48388",
"D  c #BF8392",
"F  c #B58A94",
"G  c #A09A9C",
"H  c #B79292",
"J  c #BB9499",
"K  c #AA8C8C",
"L  c #9F9DA0",
"P  c #9DABAC",
"I  c #A6A8A9",
"U  c #B2A8B1",
"Y  c #B0B3B4",
"T  c #BCBABA",
"R  c #B9B8B4",
"E  c #BBA2A6",
"W  c #C3858D",
"Q  c #CA858B",
"!  c #C18A8D",
"~  c #C38087",
"^  c #DA8286",
"/  c #DA8289",
"(  c #C58A91",
")  c #CA8C94",
"_  c #C58F9B",
"`  c #CA8693",
"'  c #D28B94",
"]  c #D58E99",
"[  c #DE8E99",
"{  c #C59296",
"}  c #CB9395",
"|  c #CD949C",
" . c #C6999C",
".. c #CB999D",
"X. c #D5959C",
"o. c #DF959C",
"O. c #D2999F",
"+. c #E38D91",
"@. c #EA8D95",
"#. c #EA9194",
"$. c #EE959A",
"%. c #E3999E",
"&. c #EA989E",
"*. c #F29C9D",
"=. c #CC9BA6",
"-. c #DB95A1",
";. c #D49DA1",
":. c #DC9CA3",
">. c #D998A5",
",. c #E29BA5",
"<. c #E79BA8",
"1. c #F99FA4",
"2. c #F29BA8",
"3. c #C8A4A7",
"4. c #DCA1A5",
"5. c #D4A8AB",
"6. c #C5ABB5",
"7. c #DAADB9",
"8. c #D2A8B2",
"9. c #C6B3B2",
"0. c #CBB7B4",
"q. c #D8B5B8",
"w. c #E6A1A5",
"e. c #EBA4AC",
"r. c #E7A5AB",
"t. c #F6A5A6",
"y. c #F4A5AD",
"u. c #FDA4AA",
"i. c #F5ACAC",
"p. c #FCADAD",
"a. c #F8A5A7",
"s. c #F5B2AD",
"d. c #FDB2AE",
"f. c #EEABB3",
"g. c #EDA5B1",
"h. c #F4A6B0",
"j. c #FEA7B4",
"k. c #F4ACB2",
"l. c #FDADB3",
"z. c #FEACBA",
"x. c #F6ACBB",
"c. c #EDB2B6",
"v. c #E3B6BA",
"b. c #E2BABE",
"n. c #E9B4B6",
"m. c #F6B4B4",
"M. c #FEB3B3",
"N. c #F6B9B2",
"B. c #FEB9B5",
"V. c #F3B5BA",
"C. c #FEB5BA",
"Z. c #FEBABB",
"A. c #F7B9BC",
"S. c #DAC1BD",
"D. c #FFC2BE",
"F. c #E8B5C0",
"G. c #FFB3C1",
"H. c #FFBBC2",
"J. c #FFBAC8",
"K. c #C6C4C3",
"L. c #CBC1CA",
"P. c #DCC2CA",
"I. c #D8C2CA",
"U. c #DAD0CF",
"Y. c #C4CFD1",
"T. c #CDD5D9",
"R. c #D9D6DB",
"E. c #E7C0C4",
"W. c #ECCBCB",
"Q. c #E7C5C8",
"!. c #FFC5C3",
"~. c #FFC7CA",
"^. c #FECBCB",
"/. c #FAC6C7",
"(. c #E5D2CE",
"). c #FFD2CE",
"_. c #F5C9D3",
"`. c #E9D6D4",
"'. c #F2D2D0",
"]. c #FED4D5",
"[. c #FDDBDC",
"{. c #F5D5DA",
"}. c #DAE0DC",
"|. c #E7DDE3",
" X c #F5D8E1",
".X c #FFDDE0",
"XX c #D8E2E5",
"oX c #DFF2F4",
"OX c #DFFDFB",
"+X c #EBECED",
"@X c #E7E4E6",
"#X c #FCE4E6",
"$X c #FFE4EA",
"%X c #F3ECEC",
"&X c #FEECED",
"*X c #F9EBE6",
"=X c #E3F0E7",
"-X c #FFF1ED",
";X c #FAF4EE",
":X c #E9ECF5",
">X c #F5ECF0",
",X c #FFEEF2",
"<X c #E4F5F6",
"1X c #EAF3F5",
"2X c #E5F5FD",
"3X c #E9F5FC",
"4X c #ECFDFD",
"5X c #E6FAF8",
"6X c #F5F4F3",
"7X c #FEF4F4",
"8X c #F4FBF5",
"9X c #FCFAF6",
"0X c #F4F6FA",
"qX c #FDF6FA",
"wX c #F5FDFD",
"eX c #FDFDFD",
/* pixels */
"M.M.M.M.M.M.M.l.M.M.M.M.M.M.M.M.M.M.M.M.M.M.M.M.M.M.M.M.M.M.M.d.B.d.d.d.M.M.M.M.C.C.M.M.M.N.d.d.M.M.M.M.M.M.M.M.M.M.M.M.M.M.M.",
"M.M.M.M.M.M.M.M.M.M.M.M.M.M.M.M.M.M.M.M.M.M.M.M.M.M.l.M.M.M.M.M.d.d.B.d.M.M.M.C.M.M.B.M.d.M.d.M.M.M.M.M.M.M.M.M.M.M.M.l.M.M.M.",
"M.M.M.M.M.M.M.M.l.M.M.M.M.M.l.M.M.M.M.M.M.M.M.M.M.M.M.M.M.M.M.M.d.B.M.d.M.M.M.M.M.M.M.M.M.d.d.M.M.M.M.M.M.M.M.M.M.M.M.d.M.M.M.",
"M.M.M.M.M.M.M.M.M.M.M.M.M.M.M.M.M.M.M.M.M.M.M.M.M.M.M.M.M.M.M.M.M.d.M.d.M.M.M.M.M.m.M.M.d.M.M.d.M.M.M.M.M.M.M.M.M.M.M.M.M.M.M.",
"l.M.M.M.M.M.M.M.M.M.M.M.M.M.M.M.M.M.M.M.M.M.M.B.M.d.M.M.M.M.M.M.d.B.M.M.M.M.M.M.M.M.M.M.M.M.M.M.M.M.M.M.M.M.M.M.M.M.M.M.M.M.M.",
"M.M.M.M.M.M.l.M.M.M.M.M.M.M.M.M.M.M.M.M.l.M.d.M.M.B.B.M.M.M.M.M.M.d.M.M.M.M.M.M.M.M.M.M.M.M.M.M.M.M.M.M.M.M.M.M.M.M.M.M.M.M.M.",
"M.M.M.M.M.M.M.M.M.M.M.M.M.M.l.M.M.M.M.M.M.M.M.M.B.M.B.d.M.M.M.M.M.M.M.M.M.B.M.M.M.M.M.l.M.M.M.M.M.d.M.M.M.M.M.M.M.M.M.M.M.M.M.",
"M.M.M.M.M.M.M.M.M.l.M.M.M.M.M.M.M.M.M.M.M.M.M.M.M.M.M.M.M.M.M.M.M.M.M.M.M.B.m.M.M.M.M.M.l.M.M.M.M.M.M.M.M.l.M.M.M.M.M.M.M.M.M.",
"M.M.M.M.M.M.M.M.M.M.M.M.M.M.M.M.l.M.M.M.M.M.M.M.d.s.B.M.M.p.M.Z.C.M.C.M.i.B.Z.d.C.M.l.M.M.M.l.M.M.M.M.M.p.C.d.M.M.M.M.M.l.M.M.",
"M.M.M.M.M.M.M.M.M.M.M.M.M.M.M.M.M.M.M.M.M.B.B.M.B.M.M.l.Z.Z.d.a.l.M.p.M.D.M.s.M.M.M.M.l.M.M.C.M.l.M.M.M.d.M.M.M.M.M.M.M.M.M.M.",
"M.M.M.M.l.M.M.M.M.M.l.M.d.M.M.M.M.M.M.M.M.M.B.M.m.d.B.i.M.M.M.Z.z.C.C.l.i.B.M.B.M.M.M.M.l.C.m.M.M.B.M.B.M.B.M.M.M.M.M.M.M.M.M.",
"M.l.M.M.M.M.M.M.M.M.M.M.M.M.M.M.M.M.M.M.d.B.M.M.M.l.M.M.M.M.p.$.1.1.M.M.Z.M.B.M.M.M.M.M.M.M.B.m.M.M.M.M.B.d.M.M.M.M.M.M.M.M.M.",
"M.M.M.M.M.M.M.M.M.M.M.M.M.M.M.M.M.M.M.M.M.M.M.M.M.M.p.M.M.l.l.i 5 c z.l.B.M.s.p.M.M.M.M.M.M.C.B.B.B.d.B.B.s.B.M.M.M.M.M.M.M.M.",
"M.M.M.M.M.M.M.M.M.M.M.M.M.M.M.l.M.M.M.M.M.M.M.M.M.M.l.l.l.M.M.q 2 i z.l.M.M.M.Z.M.M.M.M.M.M.A.A.m.m.A.B.M.M.M.M.M.M.l.M.M.M.M.",
"M.M.M.M.l.M.M.M.M.M.M.M.M.M.M.M.M.M.M.M.M.M.M.M.M.M.M.M.Z.M.#.0 q t 1.C.M.i.m.M.M.M.M.M.m.m.Z.!.B.B.^.B.B.M.B.M.M.M.M.M.M.l.M.",
"M.M.M.M.M.M.M.M.M.M.M.l.M.M.M.M.M.l.M.M.M.M.M.M.M.d.M.M.p.#.i 7 8 c Z.l.M.Z.M.M.M.l.C.C.l.m.!.].M.Z.].Z.m.B.i.M.M.M.M.M.M.M.M.",
"M.m.M.M.M.C.M.M.M.M.M.M.M.M.M.M.d.M.M.M.M.l.M.l.M.d.B.d.u.y 1.a.+.a.Z.l.M.Z.M.y.y.h.h.z.l.M.C.H.C.J.^.A.D.).B.p.d.d.d.N.M.d.l.",
"B.B.M.M.l.l.M.M.M.M.M.M.M.M.M.M.M.d.M.M.C.l.l.M.M.M.s.B.#.d d.B.M.C.k.Z.,.Q V W ) } ( k ( W X.x.l.C.Z.A.).D.B.M.d.d.d.N.B.M.l.",
"M.M.M.M.M.M.M.M.M.M.M.M.M.M.d.M.M.d.B.m.B.m.M.M.p.M.d.M.^ ^ B.d.l.C.e.e ..Q.[.9XeX9X-X-X[.'.5.Z A 4.A.A.Z.Z.a.M.d.M.d.s.M.M.M.",
"M.M.M.M.M.M.M.M.M.M.M.M.M.M.M.d.M.M.M.m.m.B.M.l.p.M.M.d.#.a C.B.H.' V ].7XqXeX9X9X8XeXeX9X9X9X-XW.3.r 4.m.C.M.M.M.B.B.m.B.M.M.",
"M.C.M.M.M.M.M.M.M.d.B.s.B.d.B.B.p.M.B.M.m.B.M.M.M.d.m.m.a.u y.Z.!  .$X7XqXqXeXeXwXwXeXwX8XeXeX9XeX9X[. .W i.C.l.p.M.M.B.B.d.d.",
"l.M.M.M.M.d.M.M.M.M.d.B.d.M.d.d.d.M.M.M.M.m.M.M.M.B.s.B.C./ z ` J ,XeXeXqXeXeXeXwXeXwXeX8XeXeX9XeX9X9X7Xv.V :.C.Z.M.M.p.B.M.d.",
"M.M.M.M.M.B.d.B.M.d.M.d.M.d.d.B.B.s.N.m.M.M.l.M.d.M.B.M.C.j.w l &X8XeX9XeXeXeXeXeXqXeXeXqXI m N K.eXeX7XqX.X_ ) l.z.C.l.d.d.d.",
"C.l.M.M.B.M.N.d.M.M.d.M.d.M.M.M.s.B.B.B.M.M.M.M.B.t.C.M.j.G.C F.qXwXwXeXeXeXeXeXeXeXeXR.#         b eXeXeXqX&X| ] h.Z.m.d.B.B.",
"l.M.B.M.m.d.d.B.M.d.M.p.M.M.M.M.M.M.C.M.l.M.d.M.d.M.M.C.G.-.H ,XeXeXwXeXeXwXeXeXwXwXeX=   = 1 < #   Y.wXeXeX7X7X| ] C.l.M.M.M.",
"l.C.M.M.d.B.B.d.d.d.M.M.l.C.i.Z.C.M.l.C.M.M.B.B.B.M.B.k.' r (.6XeXeXeXeXeXeXeXwXeXwX8X  , 9XeXeX>XO I wXwXwXeXqX&X( ,.l.C.Z.p.",
"M.M.M.B.B.d.d.d.p.M.M.l.C.l.Z.i.w.%.w.l.M.z.M.M.M.m.m.e O.H @X1XeXeXeXeXeXwXwXwXwX1X}.  m eXeXqXeX$ n eXeXeXeXqXqX[.j i.l.l.M.",
"M.M.M.M.d.B.d.M.M.M.l.u.Z.m.k.) { 5.} k ,.Z.C.z.l.B.k ^._.E wX4XeXeXeXeXeXeXeXeXwXeXeXX + T %X%Xm   T wXeXeXwXwX9XqXv.W C.l.M.",
"M.M.d.B.s.B.d.M.M.l.C.C.M.A.! 5.-X9X9X'.A ) Z.z.G.[ ;.7X7.I.3X5XwXeXeXeXeXeXeXeXqXeXeXv .         * %XeXeXeXwXwXeX9X&X{ e.Z.l.",
"M.M.M.M.M.d.d.M.l.M.C.C.A.O. .7X9XeX;X9X&X=.g g.h.k ].7X6.R.:XwXwXeXeXeXeXeXeXeXeXeXqXeXN & .   : }.eXeXeXeXwXeXeXeX7Xv.} C.M.",
"M.l.d.M.d.M.M.M.l.C.l.m.c.A ].7X_.P.{.eXqX7X{.J S h ,XqXU :X2X2XeXeXeXeXeXeXeXeXeXeXeXeXeXeXwXeXwXeXeXqXeXeXeXwXeXeXqXQ.( m.M.",
"M.l.l.M.M.M.M.M.C.z.Z.A.;. .7Xq.D l F I.qXeX7XeX#X9.qXeX@X3X2X4XwXeXeXeXeXeXeXeXeXeXeXeXeXeXeXwXeXeXqXeXeXeXwXeXeXeX9X#XS C.M.",
"l.1./ a z z +.z.G.G.G.x.e .X[.e g.J.,.C q.qXqX9X%X6X9XqXXX:X2X4XwX8XeXeXeXeX9XeXeX9XeXeXeXeXqXeXeX8X9XeXeXeXeXeXeXqXqX[.! C.l.",
"u.9 6 a <.C.e.x ` >.O.V F.$X=.;.Z.l.G.e.S 3.$X&X%XT 6XeXU XX3XoXwXwX9XeXeXeXeXeXqXeXeXeXeX9XeXeX9X8XeXeXeXeXeXeXeXeXqX'.V m.C.",
"l.i.i.y.' ~ c.[.q.0.0.W.$X/.k x.i.B.C.A.n.| C _ 3.B 1X1XP T.3X3XwXeXeXeXeXeXeXwXeXwXeXeX1XY b M K.eXeXeXeXeXeXeXeXeXqXq. .m.M.",
"M.M.M.l.Z.f.A H `.9X-X*X[.V r.M.Z.s.s.B.C.C.h.g.-.h U.wXY.XX3X0XwXeXeXeXeXeXeXeXwXwXwX}.&       . b eXwXwXeXeXeXeX7X9XH n.m.l.",
"B.Z.M.C.z.x.C.:.k A ..} e :.m.A.N.N.N.M.M.z.z.j.G.:.J &XqX:X3X2X0XwXwXeXeXeXeXeXeXeXwX-   - 1 < O   R.eXeXwXeXeX9X9XW.Z m.m.M.",
"p.t.Z.Z.l.Z.C.C.m.i.%.%.m.m.A.N.N.s.d.B.l.C.C.z.l.G.! 3. XL.3X2X2XwXeXeXeXeXeXeXeXeX8X  , wXeXqX>Xo L eXwXwXwXeX9X&X{ :.C.M.M.",
"C.M.p.M.M.M.C.l.l.z.l.H.i.Z.m.N.B.d.M.M.p.p.d.M.C.l.h.` _ f @X3X3XwXwXeXeXeXeXeX8XeX=X  M eXqXeXeX% b eXeXwXeXeX&Xv.Q l.Z.M.B.",
"p.l.M.M.l.M.l.z.z.C.l.l.M.M.d.M.d.C.l.p.B.B.d.B.M.M.Z.x.>.h 6.0X1X5XwXeXeXeXeXeXeX8X8X@ + R 7X@Xv   Y wXeXeXeXqXE.j l.C.l.l.B.",
"M.M.M.M.M.M.M.M.M.M.d.B.d.d.M.d.M.l.z.M.M.B.d.d.d.s.s.B.x.g.x  X3X5X4XwXwXeXeX9XeX9XeXv           * wX8XeXeX7XF.j g.Z.l.C.M.d.",
"B.M.M.M.M.M.M.M.m.B.B.N.d.M.d.M.M.C.M.M.B.m.M.d.d.s.D.s.Z.G.k =.6X<X<X4XwXwXwXeXeXqXqXeXG &     > @X9XeXqX&Xq.V <.C.Z.l.M.M.p.",
"M.B.M.M.M.l.M.M.d.M.M.d.M.M.d.M.M.C.C.M.m.B.M.d.d.d.B.s.l.&.y k P.:X4X<X4XwXwXwXwXeXqXqXeXwXeXwXwX9XeX9X&X..W e.Z.Z.M.M.M.M.p.",
"M.m.M.M.M.M.M.M.M.d.B.d.d.d.M.d.M.M.M.M.B.m.M.M.d.d.N.B.u.a 2.g.F P.qX0XoX5X4X4XwXeXeXeXeXwXwXwX9X9X-XP.j X.m.Z.l.l.M.B.M.M.M.",
"m.B.m.M.M.M.M.M.d.m.m.B.M.M.M.M.M.M.M.M.m.m.M.M.d.d.d.d.*.s C.Z.<.W 8.,X0X<X2XOX4X4X3XwXwX0X8X8X%X(.H C g.C.l.B.C.B.M.M.p.p.M.",
"B.m.M.M.M.M.M.M.B.B.m.B.M.M.M.M.M.d.M.M.B.B.B.M.B.d.B.d./ c C.l.z.z.( S Q.>X+X0X1XwX0X>X7X*X`.0.K Z 4.H.g.l.B.M.M.M.B.M.M.M.C.",
"m.M.C.M.M.M.l.M.M.M.M.M.C.M.M.M.d.d.d.d.M.B.C.M.p.p.B.d.+.c C.Z.l.M.V.r.` C =.=.F.7.7.5. .C C | f.V.V.A.~.C.M.M.d.d.d.M.M.M.M.",
"C.C.l.M.l.M.M.M.l.l.M.M.M.M.M.M.d.d.d.d.M.m.M.M.M.M.M.p.a.u y.M.d.p.M.C.z.h.<.,.` -.X.' g.h.C.C.z.H.H.Z.].!.d.M.M.M.d.d.M.M.M.",
"M.M.M.M.l.M.M.M.l.M.M.M.M.M.M.M.d.M.d.M.M.M.M.M.M.M.M.M.M./ a ^ 7 @.C.l.C.C.l.C.C.C.C.C.M.m.A.^.Z.Z.^.A.Z.D.Z.d.M.M.M.M.M.M.M.",
"M.M.M.M.M.M.M.M.M.M.M.M.M.M.M.l.M.M.M.M.M.M.M.M.M.C.M.u.C.u.^ 4 t p u.C.p.p.A.B.M.M.M.M.m.B.!.).m.!.).Z.s.B.m.B.M.M.M.M.M.M.M.",
"M.M.M.M.M.M.M.M.M.M.M.M.M.M.M.M.M.M.M.M.M.M.M.M.M.M.C.p.l.C.u.7 3 q u.C.M.d.M.B.M.M.M.l.l.M.H.!.M.B.!.B.s.B.d.B.M.M.M.M.M.M.M.",
"M.M.M.M.M.M.M.M.M.M.M.M.M.M.M.M.M.M.M.M.M.M.M.M.M.d.M.M.M.M.M.i 2 c C.l.Z.M.i.d.M.M.M.M.M.m.B.m.B.i.B.i.M.B.m.B.M.M.M.M.M.M.M.",
"M.M.M.M.M.M.M.M.M.M.M.M.M.M.M.M.M.M.M.M.M.M.M.B.M.M.M.M.M.M.M.^ c $.C.M.M.B.B.d.M.M.C.M.M.C.B.M.B.B.M.M.M.M.d.B.M.M.M.M.M.M.l.",
"M.M.M.l.M.l.M.M.M.l.M.M.M.M.M.M.M.M.M.M.M.B.B.M.M.C.M.M.l.p.C.M.Z.u.C.M.i.B.M.M.M.M.M.M.l.m.B.C.M.M.B.Z.M.M.M.M.M.l.M.M.M.M.M.",
"M.M.M.M.M.M.M.M.M.M.M.M.M.M.M.l.l.M.M.d.M.B.d.M.B.s.M.M.M.M.p.M.l.l.Z.p.M.B.B.M.M.M.l.M.l.M.M.M.M.M.i.M.M.M.M.M.M.M.M.M.M.M.M.",
"M.M.M.M.M.M.M.M.M.M.M.d.M.M.M.M.M.M.M.M.M.M.M.M.M.s.Z.M.d.Z.d.d.C.M.M.i.B.M.m.M.M.M.M.M.M.M.l.M.l.M.M.M.M.M.p.M.M.M.M.M.M.M.M.",
"M.M.M.M.M.M.M.M.M.M.l.M.M.M.M.M.M.M.M.M.M.M.M.M.M.M.M.B.M.M.M.M.M.M.M.M.m.M.M.M.M.M.M.M.M.M.M.M.M.M.M.M.M.M.M.M.M.M.M.M.M.M.M.",
"M.M.M.l.M.M.M.M.M.M.M.M.M.M.M.M.M.M.M.M.M.M.M.M.M.M.M.d.M.M.M.M.M.M.M.M.B.M.M.M.M.M.M.M.M.M.M.M.M.M.M.M.M.M.d.M.M.M.M.M.M.M.M.",
"M.M.M.M.M.M.l.M.M.M.M.M.M.M.M.l.M.M.M.M.M.M.M.M.d.B.M.M.M.M.M.M.M.M.M.M.M.M.M.M.M.M.M.M.M.M.B.d.M.M.M.M.M.M.M.M.M.M.M.M.M.M.M.",
"M.M.M.M.M.M.M.M.M.M.M.M.M.M.M.M.l.M.M.M.M.M.M.M.M.M.B.M.M.M.M.M.d.M.M.M.M.M.M.M.M.M.M.M.M.M.d.M.M.M.M.M.M.M.M.M.l.M.M.M.M.M.M.",
"M.M.M.M.M.M.M.M.M.M.M.M.M.M.M.M.M.M.M.M.M.M.M.M.M.M.M.M.M.M.M.M.M.d.d.B.M.M.M.M.M.M.M.M.M.M.M.d.M.M.M.M.M.M.M.M.M.M.M.M.M.M.M.",
"M.M.M.l.M.M.M.M.M.M.M.M.M.M.M.M.M.M.M.M.M.M.M.M.M.M.M.M.M.M.M.M.B.M.M.d.M.M.M.M.C.M.M.M.M.M.d.M.M.M.M.M.M.M.M.M.M.M.M.M.M.M.M.",
"M.M.M.M.M.M.M.M.M.M.l.M.M.M.M.M.M.M.M.M.M.M.M.M.M.M.M.M.M.M.M.M.d.d.B.d.M.M.M.M.M.M.m.M.d.B.d.d.M.M.M.M.M.M.M.M.M.M.M.M.M.l.M."
};
