/* XPM */
static char *player_down_11639493536[] = {
/* columns rows colors chars-per-pixel */
"63 63 216 2 ",
"   c #020103",
".  c #0B0306",
"X  c #070A0B",
"o  c #100B12",
"O  c #0F1617",
"+  c #18191A",
"@  c #251A1E",
"#  c #1C1B20",
"$  c #201E21",
"%  c #152421",
"&  c #242526",
"*  c #31282D",
"=  c #333939",
"-  c #3B3D40",
";  c #434645",
":  c #534F50",
">  c #5E605F",
",  c #5C6063",
"<  c #6C7476",
"1  c #747479",
"2  c #89282F",
"3  c #872E34",
"4  c #8E3539",
"5  c #92353D",
"6  c #9B3E44",
"7  c #A64D4F",
"8  c #AA5658",
"9  c #B4575E",
"0  c #BA5D62",
"q  c #BC6669",
"w  c #BE6C7A",
"e  c #A7737C",
"r  c #AF7079",
"t  c #B97A7F",
"y  c #B6737D",
"u  c #A26876",
"i  c #C5676E",
"p  c #CA6E75",
"a  c #C66C73",
"s  c #D06F78",
"d  c #CC7377",
"f  c #CC747B",
"g  c #C3797A",
"h  c #987C83",
"j  c #B57E84",
"k  c #BB7C84",
"l  c #BE7F88",
"z  c #B57D8A",
"x  c #C07D8A",
"c  c #C07A85",
"v  c #D37D82",
"b  c #D97E83",
"n  c #D97F8B",
"m  c #85898A",
"M  c #8A8789",
"N  c #918B8F",
"B  c #8C8E92",
"V  c #939293",
"C  c #9A9999",
"Z  c #AE828A",
"A  c #AD8685",
"S  c #B48385",
"D  c #B98186",
"F  c #BC868B",
"G  c #B6898D",
"H  c #B8878C",
"J  c #B58994",
"K  c #BB8B93",
"L  c #BE959C",
"P  c #B89592",
"I  c #9EA09F",
"U  c #9F9DA2",
"Y  c #B79AA2",
"T  c #A6A6AC",
"R  c #B8A8AB",
"E  c #AFAFB1",
"W  c #A1B6B1",
"Q  c #BAB4B8",
"!  c #C3858A",
"~  c #C28A8C",
"^  c #C9858B",
"/  c #DA8286",
"(  c #DD8589",
")  c #D1878A",
"_  c #CB8C94",
"`  c #C88891",
"'  c #D68D96",
"]  c #C49395",
"[  c #CD9195",
"{  c #C5949A",
"}  c #CD949C",
"|  c #CB9C9D",
" . c #C29899",
".. c #D19497",
"X. c #D3959C",
"o. c #DA979B",
"O. c #D89A9B",
"+. c #E08388",
"@. c #E48E91",
"#. c #EC9397",
"$. c #ED969B",
"%. c #E59698",
"&. c #F0939A",
"*. c #F5999E",
"=. c #C49DA5",
"-. c #CD9BA2",
";. c #D29DA3",
":. c #DC9DA4",
">. c #D792A1",
",. c #E39DA4",
"<. c #E89AA5",
"1. c #F69FA5",
"2. c #F59DA8",
"3. c #C7A9A9",
"4. c #DCA4A6",
"5. c #D6A6AA",
"6. c #CDACB0",
"7. c #C1AAB0",
"8. c #DFACB0",
"9. c #D4A8B2",
"0. c #CAB6BD",
"q. c #C9B9BD",
"w. c #C2B7BC",
"e. c #D2B5BA",
"r. c #E2A1A5",
"t. c #E4A4AA",
"y. c #ECA3AB",
"u. c #EBA9AD",
"i. c #E8A7AB",
"p. c #F9A3A6",
"a. c #F4A4AD",
"s. c #FCA5AB",
"d. c #F5ACAD",
"f. c #FDADAD",
"g. c #F6AAA7",
"h. c #EEB3AB",
"j. c #F5B1AC",
"k. c #FDB3AE",
"l. c #F8B8AF",
"z. c #ECACB2",
"x. c #F4ADB4",
"c. c #FEAEB2",
"v. c #F4AEB9",
"b. c #FEAEB9",
"n. c #F8A5B1",
"m. c #E3BABC",
"M. c #E9B8B6",
"N. c #F5B3B3",
"B. c #FEB3B3",
"V. c #F6BAB4",
"C. c #FDB9B5",
"Z. c #F4B4B8",
"A. c #FEB5BA",
"S. c #F5BCBA",
"D. c #FEBABB",
"F. c #CABDC4",
"G. c #D6BDC0",
"H. c #ECBDC1",
"J. c #E5BEC1",
"K. c #FFB3C2",
"L. c #FFBAC2",
"P. c #CBC5CA",
"I. c #D9C3C9",
"U. c #DFCCD2",
"Y. c #CAD0D0",
"T. c #DBDADD",
"R. c #D6D7D8",
"E. c #EECACA",
"W. c #EBC5CA",
"Q. c #F4C3C3",
"!. c #FFC3C3",
"~. c #F5CACD",
"^. c #FFCDCC",
"/. c #FFC8C7",
"(. c #EDCED3",
"). c #E2CBD1",
"_. c #FACAD1",
"`. c #FED3D4",
"'. c #FCD9D6",
"]. c #FDD4DB",
"[. c #F5DADF",
"{. c #FEDADC",
"}. c #F6D4D3",
"|. c #EAD5D2",
" X c #D8DEE4",
".X c #FBDAE4",
"XX c #D7E0E7",
"oX c #DEF6F9",
"OX c #E5E2E3",
"+X c #ECE4EA",
"@X c #E6E9ED",
"#X c #FFE2E2",
"$X c #F4E7EE",
"%X c #FEE5EB",
"&X c #FEEDED",
"*X c #F9EBE6",
"=X c #FFF2EF",
"-X c #E4EDF3",
";X c #EEEFF3",
":X c #FEEEF2",
">X c #F7EDF5",
",X c #E5F3F5",
"<X c #EDF1F4",
"1X c #E4F5FB",
"2X c #EBF5F9",
"3X c #E5FCFD",
"4X c #ECFCFD",
"5X c #E8F8F5",
"6X c #F4F3F4",
"7X c #FEF5F5",
"8X c #F3FBF6",
"9X c #FCFAF6",
"0X c #F5F5F9",
"qX c #FEF6FB",
"wX c #F5FDFD",
"eX c #FDFDFE",
/* pixels */
"B.B.B.B.B.B.B.B.B.B.B.B.B.B.B.B.B.B.k.k.k.l.k.B.B.c.A.c.N.g.f.B.B.B.B.B.B.B.c.B.b.A.c.B.B.B.k.k.B.B.B.B.B.B.B.B.B.B.B.B.k.B.B.",
"B.B.B.B.B.B.B.B.B.B.B.B.c.B.B.B.k.B.B.k.k.C.B.B.c.c.D.A.a.8 s.B.B.B.B.A.c.A.A.B.B.B.B.B.B.B.k.C.B.B.B.B.B.B.B.B.B.B.B.B.B.B.B.",
"B.B.B.B.B.B.B.B.B.B.B.B.B.B.B.B.B.B.B.l.k.k.B.B.c.A.A.A.p.7 ) C.B.C.B.B.B.B.B.B.B.B.B.B.B.B.k.B.B.B.B.B.B.B.B.B.B.B.B.B.B.B.B.",
"B.B.B.B.B.B.B.B.B.B.B.B.B.B.B.B.B.B.B.B.k.k.B.B.A.c.D.x.a.d g k.B.B.B.B.B.B.B.B.B.B.B.B.B.B.C.B.B.B.B.B.B.B.B.B.B.B.B.B.B.B.B.",
"B.B.B.B.B.B.c.B.B.B.B.B.B.B.B.B.B.B.V.B.l.B.B.N.B.x.A.D.) %.) N.B.B.B.k.C.k.B.k.B.B.B.V.B.B.B.C.B.c.B.B.B.B.B.k.B.B.B.B.B.B.B.",
"k.B.B.B.B.B.B.B.B.B.B.B.B.B.B.B.c.B.B.N.B.k.B.C.A.A.A.a.! Z.^ B.B.k.k.B.k.B.k.V.B.l.B.B.B.B.B.B.B.B.B.B.B.B.B.B.B.B.B.c.B.B.B.",
"B.B.B.B.B.B.B.B.B.c.B.B.B.B.B.B.B.B.B.B.B.k.C.B.D.Z.A.x M.4.' b.B.B.B.k.B.k.C.k.k.B.k.V.B.B.B.B.B.B.B.B.B.B.B.B.B.B.B.B.B.B.B.",
"B.B.B.B.B.B.B.B.B.B.B.B.B.k.B.B.A.c.A.B.k.B.B.B.N.D.4.~ {.F n.b.B.B.k.B.k.C.k.k.B.l.B.k.B.B.B.B.B.B.B.B.B.B.B.B.B.B.B.B.B.B.B.",
"B.B.B.B.B.B.B.B.B.B.B.B.B.B.B.B.A.B.B.V.B.B.B.c.A.Z.A E.Q.[ b.A.c.B.B.B.k.k.k.C.k.B.B.k.B.B.B.c.B.B.B.B.B.B.B.B.B.B.k.B.B.B.c.",
"B.c.B.B.B.B.c.B.B.B.B.B.B.c.B.B.B.B.C.B.V.B.c.c.B.4.P =X8.O.b.b.A.c.A.A.f.B.B.k.B.k.B.B.B.B.B.A.B.B.B.B.c.B.B.B.B.B.B.B.B.B.B.",
"B.B.B.B.B.B.B.B.B.B.B.B.B.B.B.B.A.c.B.V.B.k.c.c.A...3.=X9.>.L.K.A.A.c.x.C.B.f.B.k.B.B.B.c.B.b.B.B.B.B.B.B.B.B.B.B.B.B.B.B.k.B.",
"B.B.B.B.B.B.B.B.B.B.B.B.B.B.B.B.A.B.B.B.k.B.c.c.b.z.] #X}.z v.Z.A.A.D.A.B.B.B.B.k.B.c.B.B.B.B.B.B.B.B.B.B.B.B.B.B.B.B.B.B.B.B.",
"B.B.B.c.B.B.k.B.B.B.B.B.B.B.B.B.B.B.B.B.k.k.B.B.c.N.k ].&Xm.j :.Z.Z.N.B.A.c.B.D.B.k.B.k.B.B.C.B.B.k.B.B.B.B.B.B.B.B.B.B.B.B.B.",
"B.B.B.B.B.B.B.B.B.B.B.B.B.k.B.B.B.B.B.B.k.C.B.C.L.a.<.k Q.&X`.;.k :.S.L.A.A.B.d.k.B.c.B.B.B.C.B.B.B.B.c.B.B.B.B.B.B.B.B.B.B.B.",
"B.B.B.B.B.B.B.B.B.B.B.B.B.B.B.B.B.B.B.B.k.k.B.V.B.L.b.<.l -.{.&X]._ ! u.N.C.C.B.k.B.k.B.B.B.C.B.B.B.B.B.B.B.B.B.B.c.B.B.B.B.B.",
"B.B.B.B.B.B.B.B.B.B.c.B.B.B.B.B.B.B.B.B.k.B.k.N.B.c.A.A.v...A m.:X:X8.` N.S.g.B.B.B.k.B.B.B.B.k.B.B.B.B.B.B.B.B.B.B.B.B.B.B.B.",
"B.B.B.B.B.B.B.B.c.B.B.B.B.B.B.B.k.k.B.V.N.B.C.B.C.s.B.C.k.C.u.j (.qXqXS z.B.k.C.k.B.B.B.B.B.k.k.B.B.B.B.B.B.B.B.B.B.B.B.B.B.B.",
"B.B.B.B.B.B.B.c.B.B.k.B.B.B.B.k.f.B.B.B.A.N.B.B.k.B.k.f.B.N.L.j I.qXqX5.O.B.k.k.B.B.B.B.B.k.k.k.k.B.k.B.B.B.B.B.B.B.B.B.B.B.B.",
"B.B.B.B.B.B.B.k.B.B.B.B.B.B.B.B.B.c.B.B.A.A.B.B.f.C.g.B.A.B.t.G OXeX7X| i.k.B.k.C.B.A.B.B.B.l.l.B.B.B.B.B.B.B.B.B.B.B.B.B.B.B.",
"B.B.B.B.B.B.B.B.B.B.B.B.B.B.B.B.B.B.B.B.B.C.B.B.B.s.C.B.A.x.S G.qXeX(.D C.f.B.B.B.B.A.b.c.B.l.l.l.B.B.B.B.B.B.B.B.B.B.B.k.V.B.",
"B.B.B.B.B.B.B.B.B.B.B.B.B.B.B.B.N.B.A.B.A.Z.B.B.c.A.B.A.z.Z G.7XqX:XJ :.B.B.k.B.B.B.b.b.B.B.C.N.B.B.B.B.B.B.B.B.B.B.B.B.B.B.B.",
"B.B.B.B.B.B.B.B.B.B.B.B.B.B.B.V.B.C.B.B.B.B.N.B.B.B.D.x.] 6.:XqX:X-._ D.d.B.k.k.B.B.A.b.b.A.C.B.B.B.B.B.B.B.B.B.B.B.B.B.B.B.B.",
"B.B.B.B.B.B.B.B.B.B.B.B.B.B.B.B.B.A.c.B.B.B.B.B.B.A.b.v.J [.eXqX_.k L.A.C.B.k.k.B.B.b.c.A.A.c.c.B.B.B.B.B.B.B.k.B.B.B.B.B.B.B.",
"B.B.B.B.B.B.B.B.B.B.B.B.B.B.B.B.B.B.B.B.B.k.k.B.c.B.b.t.{ :XqXqX>.<.A.C.B.C.k.B.c.B.B.A.B.B.B.A.B.B.V.B.B.B.B.B.B.B.B.B.B.B.B.",
"k.B.B.B.B.B.B.B.B.B.B.B.B.B.B.B.B.f.B.k.k.k.B.f.A.b.b.;.=.$XqX.Xx s.A.c.C.B.B.B.k.C.k.C.c.B.c.A.B.B.B.N.C.N.B.B.B.B.B.B.B.B.B.",
"B.B.B.B.B.B.B.B.B.N.B.d.B.B.B.B.B.k.C.C.k.k.B.c.c.K.-.z h F.$Xw.e ^ o.A.N.d.C.f.k.k.j.C.C.C.B.c.C.B.B.B.B.B.B.B.B.B.B.k.B.B.B.",
"B.B.B.B.B.B.B.B.B.c.C.B.B.B.A.B.B.C.k.g.k.C.B.A.A.k =.).$XqX0XqX7XE.| k x.D.B.B.C.l.V.V.h.j.B.B.B.f.B.B.B.B.C.B.B.B.B.B.B.B.B.",
"B.B.B.B.B.B.B.c.C.B.c.A.C.f.B.c.c.B.C.k.C.C.A.A.F 9.%XqXeXeXeX0X7X9X7XS.c n.A.A.B.l.l.V.V.D.B.B.B.B.B.C.B.B.B.B.B.B.B.B.B.B.B.",
"B.c.B.B.B.B.B.B.f.B.B.B.B.B.c.s.%./ $.c.B.N.Z.:.J %XqXP.T U  X<XR R 0..X>.>.K.n.c.A.1.@./ #.1.b.c.c.c.B.f.B.B.B.B.B.B.B.B.B.B.",
"B.B.B.B.B.B.B.B.A.B.B.f.B.c./ q v v f a $.L.z.e h F.0X X X-X-X<X XT.F.Y J u <.K.b.n i b ( d s &.c.A.B.A.B.B.B.B.B.B.B.B.B.k.B.",
"B.B.B.B.B.k.B.B.f.f.B.B.s.d b c.B.L.c.$.f w z 7.+X-X1X3X3XoXoX2XwX2X4X4X;XU.L x a n s.c.A.B.$.a #.f.p.B.D.B.c.k.B.B.B.B.B.B.B.",
"B.B.B.B.B.B.B.B.B.A.( q q 4 +.c.A.c.A.v.r -..XqX2X2X1X3XoX3X4X4X4XwX4X1X2X0X:XH.z ` A.b.A.C.s.9 6 a p &.c.c.B.B.B.B.B.B.B.B.B.",
"B.B.B.B.B.B.B.B.B.f.v 3 5 i 9 2.B.x.u.Z I.0X2X4X2X2X0XwXeXeXwXwXeXeXwXwXeXeXeXqX%XL _ v.b.A.@.7 0 2 6 *.c.B.c.B.B.B.B.B.B.B.B.",
"B.B.B.B.B.B.B.B.B.c.1.v 0 p &.b.A.u.J I.<X3XoX1X4XwXwXeXeXeXwXeXeXeXeXeXeXeXeXwX7X7X-.} A.c.f.+.0 i +.c.f.A.B.c.B.B.B.B.B.B.B.",
"B.B.B.B.B.B.B.B.B.C.B.A.s.s.A.c.B.! 6.7XwX1X4X4XwXeXeXeXeXeXeXeXeXeXeXeXeXeXeXeXeXqX%X~ ,.A.B.B.1.c.c.A.s.B.B.C.B.B.B.B.B.B.B.",
"B.B.B.B.B.B.B.B.c.B.c.c.L.c.c.A.,.K &X0X2X-XeXeXwXwXeXeXeXeXeXeXeXeXeXeXeXeXeXeXqX9X7X`.k B.B.B.B.A.f.B.A.B.d.B.C.B.B.B.B.B.B.",
"B.B.B.B.k.B.B.B.B.B.B.B.c.B.B.A.l H.0X5X4XeXeXeXwXwX8XeXeXeXeXeXeXeXeXeXeXeXeXeXeXqX7X7X} r.B.B.c.B.B.C.B.B.B.j.B.B.B.B.B.B.B.",
"B.B.B.B.B.B.B.B.B.B.N.D.C.A.C.u.F %X,X3XwXeXeXeXeXeXeX9XeXeXeXeXeXeXeXeXeXeXeXeXeXeXeX=X~.! B.A.C.C.B.C.d.N.C.C.B.V.B.B.B.B.B.",
"B.B.B.B.B.B.B.B.N.C.N.c.B.d.A.t.-.$X4X3XwXeXeXeXeXeX9XeXeXeXeXeXeXeXeXeXeXeXeXeXqXeX9XeX#Xt A.A.B.d.j.B.C.B.B.B.B.B.B.B.B.B.B.",
"c.B.B.B.B.B.B.B.B.B.A.B.D.B.A.X.R eX5X4XwXeXeXqXeXeXeX9XeXeXeXeXeXeXeXeXeXeXeXeXeXeXeXeX&XH v.c.B.C.B.N.C.C.N.B.B.V.B.B.B.B.B.",
"C.B.k.B.B.B.B.B.B.B.c.B.B.c.A.[ 0.<XwXwXwXeXeXeXeX9XeX9XeXqXeXeXeXeXeXeXeXeXeXqXeXwXeXeX=X .N.c.A.c.B.B.B.B.B.B.C.B.B.k.B.B.B.",
"B.B.B.B.B.B.B.B.B.B.A.A.B.A.A...F.0XwXeXwXwXeXeXeX9XeXeXeXeXqXeXeXeX8XeXqXqXeXeXeXeXeXeX=XP u.c.B.B.B.B.B.B.B.B.B.B.B.C.B.B.B.",
"B.V.V.B.B.B.B.B.c.B.B.c.c.A.B.[ 0.0XqXeXeXeXeXeX9X9XeXeX9XeXeXeXeXeXeX0XeXqXeXwXwXeXeXeX9XP d.A.A.B.B.B.B.B.B.B.B.B.B.B.B.B.B.",
"B.B.B.B.B.B.B.B.B.B.c.c.A.A.B.X.7.0XqXeX8XwXeXeXeXeXeXeXqXeXeXeXeXeXeXeXeXeXeXwXwXeXeXqX:XS z.A.B.B.B.B.B.B.B.B.B.B.B.B.B.B.B.",
"B.B.B.B.B.B.B.B.A.B.B.c.B.B.B.r.Y qXqXeXeX8X6XeXOX6XeX0XeXeXeXeXeXeXeXeX+X7X6XeXwXeXeX7X{.S C.A.B.B.B.B.B.B.B.B.B.B.B.B.B.B.B.",
"B.B.B.B.B.B.B.B.B.B.A.B.A.N.B.z.J %XeXeX8XeXN o     ; T.eXeXeXeXeXeXm .     - T.eXeXqX7X~.~ S.B.B.k.B.C.B.B.B.B.B.B.B.B.B.B.B.",
"B.B.B.B.B.B.B.B.B.B.A.N.D.D.D.Z.z ].6XwXwXV   + V ,   # 6XeXeX9XeXI   @ C > X + <XeXeX9X8.X.N.D.D.V.N.B.C.B.B.B.B.B.B.B.B.B.B.",
"B.B.B.k.B.B.B.B.B.B.C.C./.`.^.S.} 9.9X8X8X& . Q eXeX-   E eXeXeXeX+ . w.eXwX=   E eXqX%XF u./.`./.D.l.N.C.B.l.B.B.k.B.B.B.B.B.",
"B.k.k.B.k.B.B.B.B.B.A.C.A.Z.V.S.z.K *X8XwX    qXeXeX1   M 7XeXeX9X    6X8XeX<   M qXqX~.l A.D.C.B.N.k.B.B.N.B.B.B.B.B.B.B.B.B.",
"k.B.B.B.B.k.B.B.B.B.B.N.Z.L.!.D.Z.z |.7X8X    +XeXqX1   V eX9XeX9X  . +XeXwX<   V qX:X;.4.A.B.D.D.B.B.B.B.B.B.B.B.B.B.B.B.B.B.",
"C.k.B.k.k.B.B.B.B.A.C.C.!.`.`.!.A.:.{ &XeX;   B qX0XO   Y.eXwXeXeX:   N eX<XO X P.7X].D Z.Z.'.'.!.D.B.B.B.B.B.B.B.B.B.B.B.B.B.",
"k.B.k.B.B.k.B.B.N.c.x.A.D.D.C.D.K.A.k H.9XOX% X & o   B eX4XeX8XeX+X*   # O   m eXqX-.:.Z.L.M.V.D.C.k.B.B.B.B.B.B.B.B.B.B.f.B.",
"k.B.k.B.B.B.B.B.B.A.C.D.N.N.D.`.!.N.a.x {.9XwXW m U R.eXeXwXeXeXeXeX0XE B C R.eXqXJ.j A.B.'.Q.M.C.B.B.B.B.B.B.B.c.B.B.B.k.B.B.",
"B.k.B.k.B.B.B.B.x.B.B.B.N.C.!.^.N.A.A...5.&XeXwXeXeXqXeXeXeXwXeXeXeXeXeXeX9XeX=X'.K u.A.A.!.`.S.N.B.B.B.B.B.B.B.B.B.B.B.B.B.B.",
"B.k.B.B.B.B.B.B.B.B.B.N.B.D.A.N.C.C.x.b.k m.eX9XeXeXeXeXeXeXeXeXeXwXeXwXeXeX9X*X{ O.A.A.A.A.C.B.B.B.B.B.B.B.B.B.B.B.B.B.B.B.B.",
"k.C.B.B.B.B.B.B.B.B.A.B.B.B.C.N.B.j.D.c.B.k m.qXeX8XeXeXeXqXeXeXwXeXwX8X9X9X=X[ _ B.A.A.B.c.K.c.B.B.B.B.B.B.B.B.B.B.B.B.B.B.B.",
"B.B.B.B.B.B.B.B.B.B.B.B.B.B.B.B.l.k.B.d.K.a.k H.qX9XeXeXeXeXeXeXeXeXeXeXqX#X5.! B.B.A.B.c.A.c.c.B.B.B.B.B.B.B.B.B.k.B.B.B.B.B.",
"B.B.B.B.B.B.B.c.B.B.B.B.B.B.A.B.B.s.C.B.c.L.<.D 6.*X9X9XqXeXeXeXeXqXqX:X{.;.! C.B.B.B.B.B.B.c.b.B.B.B.B.B.B.B.B.B.B.B.B.B.B.B.",
"B.B.B.B.B.B.B.B.B.B.B.B.B.B.B.B.B.f.B.C.B.x.A.v._ ] ~.7X7X9XqX7X7X:X7XM.! ..A.N.B.B.C.N.B.B.B.B.B.B.B.B.B.B.B.B.B.B.B.B.c.B.B.",
"B.B.B.B.B.B.B.B.B.B.B.B.B.B.B.B.k.C.k.B.C.x.B.D.B.,.S H m.}.'.#X}.m.] _ y.c.B.A.B.B.l.B.B.B.A.B.B.B.B.B.B.B.B.B.B.c.B.B.B.B.B.",
"B.B.B.B.B.B.B.B.B.B.B.B.B.B.B.B.N.B.C.N.V.C.B.d.B.A.A.u.[ ~ ~ S ! ..i.C.A.c.B.c.B.B.k.V.B.B.B.B.B.B.B.B.B.B.c.B.B.B.B.B.B.B.B.",
"B.B.B.B.B.B.B.B.B.B.B.B.B.B.B.B.B.d.B.C.j.N.C.D.b.c.c.A.C.N.N.A.N.A.N.B.B.c.B.B.k.B.B.l.V.B.B.B.B.B.B.B.B.B.B.B.B.B.B.B.B.B.B.",
"B.B.B.B.B.B.B.B.B.B.B.B.B.B.B.B.B.A.B.B.B.C.c.d.B.B.B.c.B.A.B.c.c.C.C.Z.S.C.k.f.c.f.B.B.l.l.B.k.B.B.B.B.B.B.B.B.B.B.B.B.B.B.B."
};
