/* XPM */
static char *player_up_01639492962[] = {
/* columns rows colors chars-per-pixel */
"63 63 213 2 ",
"   c #020101",
".  c #060605",
"X  c #120E0E",
"o  c #11110F",
"O  c #0E0E10",
"+  c #151215",
"@  c #1E1D1E",
"#  c #1D1719",
"$  c #1E2322",
"%  c #26282B",
"&  c #3A3D39",
"*  c #403738",
"=  c #464946",
"-  c #4E504B",
";  c #646361",
":  c #6F6D6E",
">  c #797E7B",
",  c #73686C",
"<  c #8C242F",
"1  c #94353D",
"2  c #8A2D35",
"3  c #9D3943",
"4  c #A13D47",
"5  c #AE4E56",
"6  c #A24B53",
"7  c #B5575F",
"8  c #BF5B65",
"9  c #B05961",
"0  c #807579",
"q  c #BC6268",
"w  c #AE6B74",
"e  c #BE6E79",
"r  c #A6737A",
"t  c #B8787E",
"y  c #C36C74",
"u  c #C86C74",
"i  c #C86770",
"p  c #CC737A",
"a  c #C17579",
"s  c #D17079",
"d  c #C4636C",
"f  c #AD7C89",
"g  c #A67C83",
"h  c #B47E83",
"j  c #BB7D83",
"k  c #CF7C84",
"l  c #C47D85",
"z  c #D47C83",
"x  c #DC7D85",
"c  c #8B8C8D",
"v  c #848A89",
"b  c #8A918A",
"n  c #90918C",
"m  c #8D9591",
"M  c #97979A",
"N  c #AD8284",
"B  c #AE838C",
"V  c #A7888A",
"C  c #B38385",
"Z  c #BB8286",
"A  c #BC848A",
"S  c #BB898C",
"D  c #B4878F",
"F  c #B7918E",
"G  c #AE8991",
"H  c #BD8790",
"J  c #BC8C91",
"K  c #B78590",
"L  c #BB9192",
"P  c #BF989C",
"I  c #BC9797",
"U  c #BD9DA8",
"Y  c #9DA4A7",
"T  c #A7A9A9",
"R  c #BDA4A3",
"E  c #B8A8A9",
"W  c #A8B3AF",
"Q  c #AAACB1",
"!  c #BBADB3",
"~  c #BFB7B9",
"^  c #C48285",
"/  c #C1858B",
"(  c #C4898E",
")  c #C8858C",
"_  c #D58387",
"`  c #DA8189",
"'  c #D98A8F",
"]  c #CD8C92",
"[  c #C28B93",
"{  c #D38C94",
"}  c #DB8C91",
"|  c #C79197",
" . c #CD9295",
".. c #C5969A",
"X. c #CC949B",
"o. c #C59B9D",
"O. c #D29597",
"+. c #D5959B",
"@. c #D9969D",
"#. c #DA9A9E",
"$. c #D99195",
"%. c #E38D93",
"&. c #EB939B",
"*. c #E49597",
"=. c #F2979E",
"-. c #E3848C",
";. c #CE9BA1",
":. c #C39AA2",
">. c #DD9CA2",
",. c #E59CA4",
"<. c #E79DA4",
"1. c #F19AA1",
"2. c #FE9FA7",
"3. c #C9A6A8",
"4. c #DCA2A5",
"5. c #DCA5AC",
"6. c #D7AAB1",
"7. c #C4B1B7",
"8. c #CBB6BF",
"9. c #D8B5B9",
"0. c #C8ADB4",
"q. c #ECA5AC",
"w. c #EEACAD",
"e. c #E3A6AA",
"r. c #F4A1A6",
"t. c #F7A3AC",
"y. c #FBA6AC",
"u. c #F3AAAB",
"i. c #FCADAE",
"p. c #F7A9A6",
"a. c #F5B3AE",
"s. c #FDB3AE",
"d. c #F8B8AF",
"f. c #EBACB2",
"g. c #F5ACB2",
"h. c #FEAEB3",
"j. c #FFADB9",
"k. c #F7AAB6",
"l. c #EDB2B5",
"z. c #E3B8BB",
"x. c #E7B5BA",
"c. c #F5B3B4",
"v. c #FFB3B3",
"b. c #F6B9B2",
"n. c #FEB9B5",
"m. c #F4B4BA",
"M. c #FEB5BA",
"N. c #F6B9BC",
"B. c #FEBABB",
"V. c #FEC0BC",
"C. c #CCBDC2",
"Z. c #D6BEC7",
"A. c #EDBFC2",
"S. c #FEB5C1",
"D. c #FEBDC1",
"F. c #BEC7C5",
"G. c #C9C7C6",
"H. c #DEC3C8",
"J. c #CCCBD1",
"K. c #D7D7D6",
"L. c #E4C0C5",
"P. c #E4C6C8",
"I. c #EBC4CA",
"U. c #EBC6C8",
"Y. c #FEC3C3",
"T. c #FFC8C6",
"R. c #FFCDCC",
"E. c #F5C8CB",
"W. c #FFD0CE",
"Q. c #F8CED4",
"!. c #E9D3D6",
"~. c #FDD3D4",
"^. c #FFD6DA",
"/. c #FEDBDD",
"(. c #FFD9D7",
"). c #FDE0DD",
"_. c #D6DFE6",
"`. c #ECD8E1",
"'. c #FBDAE3",
"]. c #D5E6EA",
"[. c #DBF5F6",
"{. c #E5E6E3",
"}. c #EAE2E0",
"|. c #EEE3EB",
" X c #EEEBEB",
".X c #E4EBEA",
"XX c #FDE5E6",
"oX c #F5E4E9",
"OX c #FEE4EB",
"+X c #F3EAED",
"@X c #FFEBEC",
"#X c #F4E6E6",
"$X c #E5F0EC",
"%X c #FDF2EF",
"&X c #EFECF5",
"*X c #F4EDF2",
"=X c #FEEFF6",
"-X c #F1EBF9",
";X c #E2F5F7",
":X c #EBF2F3",
">X c #E3FBF7",
",X c #ECF5FB",
"<X c #E5FCFC",
"1X c #ECFBFE",
"2X c #E6F7FE",
"3X c #F4F2F5",
"4X c #FEF3F4",
"5X c #F5FCF6",
"6X c #FEF9F6",
"7X c #F4F6FA",
"8X c #FEF5FA",
"9X c #F5FDFD",
"0X c #FDFEFD",
/* pixels */
"v.v.v.v.v.v.v.v.v.v.s.v.v.s.v.v.h.B.v.v.s.d.d.s.s.i.h.j.M.M.j.j.j.j.h.v.M.v.v.s.s.v.n.V.m.d.v.v.h.v.v.v.v.v.v.v.v.v.v.v.v.v.v.",
"v.v.v.v.v.v.v.v.v.v.v.s.s.v.s.v.B.u.n.v.n.n.d.s.s.n.v.v.v.M.m.S.M.n.M.v.h.n.i.i.s.s.a.a.c.n.M.h.v.v.v.v.v.v.v.v.v.v.v.v.v.v.v.",
"v.v.v.v.v.v.v.v.v.v.v.v.v.v.v.v.c.n.n.h.i.v.n.u.v.h.c.q.{ ( H A S ] e.b.m.v.M.v.v.v.d.d.v.n.v.h.v.v.v.v.v.v.v.v.v.v.v.v.v.v.v.",
"v.v.v.v.v.v.v.v.v.v.v.v.v.v.v.v.n.i.n.v.v.v.c.D.N.4.A ( x.Q./.).(.z.L S e.v.B.i.v.s.b.d.c.v.M.v.v.v.v.v.v.v.v.v.v.v.v.v.s.v.v.",
"v.h.v.v.v.s.v.v.v.v.v.v.v.v.v.v.v.n.i.s.D.h.B.f.S ..U.8X4X4X6X0X6X%X%XU.h e.g.v.v.i.v.n.v.c.s.v.v.v.v.v.v.v.v.v.v.s.v.v.v.v.v.",
"v.v.v.v.v.v.v.v.v.c.v.v.v.v.v.v.s.s.v.B.t.M.f.D 0.@X8X4X4X8X0X5X5X0X6X%XXXA @.v.S.v.h.h.v.v.v.v.v.v.v.v.v.v.v.v.v.v.v.v.v.v.v.",
"v.v.v.v.v.v.v.v.v.v.v.v.n.c.v.v.s.v.v.h.v.k.r A.0X6X0X8X6X0X0X9X9X0X0X0X4X@XX.) h.j.M.v.v.v.v.s.v.s.v.v.v.v.v.v.v.v.v.v.v.v.v.",
"v.v.v.v.v.v.v.v.v.v.v.v.n.v.v.v.s.s.s.n.g.h I.8X8X0X0X0X0X0X0X0X0X9X0X0X0X6X@XX.@.g.B.M.h.v.n.v.v.v.v.v.v.v.v.v.v.v.v.v.v.h.v.",
"s.v.v.v.v.v.v.v.n.v.v.v.v.n.c.c.s.B.h.M.j z.8X8X0X0X9X0X0X0X0X0X0X0X0X0X0X6X0X@X[ ,.M.j.c.n.V.a.v.c.v.v.v.n.n.h.v.v.v.v.v.v.v.",
"v.v.v.v.v.v.v.v.h.v.v.c.c.n.Y.R.v.i.n.] ;.4X0X0X9X0X9X1X9X0X0X0X0X0X0X0X0X0X%X6X'.H q.M.v.B.W.V.n.v.n.v.c.i.v.v.v.v.v.v.s.v.v.",
"s.v.v.v.v.v.v.v.B.v.M.B.n.c.V.~.B.D.>.Z @X8X0X9X0X7X9X0X0X0X8X8X0X8X0X0X9X9X0X0X8Xz.A B.M.W.T.a.b.v.v.n.v.v.v.v.v.v.v.v.v.v.v.",
"v.s.v.v.h.v.v.v.n.c.g.v.B.B.B.B.D.c./ U.4X0X0X9X0X7X0X9X9X0X8X0X0X8X0X0X9X9X9X9X4X4XX.,.m.D.c.N.B.v.v.v.v.n.n.s.v.v.v.v.v.v.v.",
"s.v.v.v.v.v.v.M.v.B.M.v.Y.^.~.B.m.>.P =X9X0X5XK.M m Q 9X0X0X0X0X0X8X0XK.Y v W 0X0X%X~.Z N.B.R.(.T.n.v.v.s.v.v.v.v.v.v.v.v.v.v.",
"s.v.v.v.v.v.v.v.h.v.v.c.m.Y.Y.D.m.[ P.8X0X0Xc   + @   % .X5X0X6X0X0Xc   O $ . $ {.0X4XX.>.N.T.m.B.v.v.v.s.c.v.v.v.v.v.v.v.v.v.",
"v.s.v.v.v.v.v.v.M.v.m.B.B.c.m.N.f.D oX0X0XF.  # oX8Xb   - 0X0X0X9XG.. + 5X0X> . - 0X4X~.A m.N.B.b.s.c.n.n.v.v.v.v.v.v.v.v.v.v.",
"s.v.v.v.v.v.n.n.v.n.v.m.Y.~.R.N.X.6.0X5X9Xm   , 0X0X{.    6X0X5X9Xm   : 0X9X X    0X6X@XJ f.D.^.T.B.v.v.v.v.v.v.v.v.s.v.v.v.v.",
"v.v.v.v.v.v.v.v.c.s.n.v.B.B.n.B.D !.8X9X5Xb   0 0X0X&X    0X0X0X0Xv   > 5X0X+X    0X0X8X5.@.v.v.n.v.v.v.v.c.v.v.c.b.v.v.v.M.v.",
"v.v.v.v.v.v.v.v.v.v.M.c.B.M.v.f.G =X9X0X5XT . * 0X0XF.  % 0X0X8X0XQ   & 5X0X7.. % 8X0X0XI.( M.n.v.s.v.v.v.v.v.v.v.v.M.m.v.v.n.",
"v.v.v.v.v.v.v.v.v.v.M.v.v.v.h.4.U +X0X0X9X3X@   ; M +   Y 0X0X0X0X7X$   ; n X   M 0X0X8XXXj n.h.v.v.v.v.v.v.v.n.v.v.v.v.v.M.v.",
"v.v.v.v.v.v.v.v.v.s.M.v.h.M.M.@.0.=X8X0X0X9XK.=     X c 9X0X0X0X0X0XK.*   . X c 0X0X0X0X4XN h.i.v.s.v.v.v.n.v.v.v.v.v.M.v.v.M.",
"v.v.v.n.v.v.v.v.n.v.v.v.h.M.v.O.7.8X8X0X8X0X5X0X6X X0X9X0X0X3X0X0X0X0X0X%X{.0X0X0X0X0X0X4XF u.v.v.v.v.v.v.v.v.v.v.v.h.v.v.v.v.",
"s.v.v.v.v.v.v.v.v.h.M.h.h.j.M.] C.,X0X8X0X0X0X0X6X%X6X0X9X9X0X0X0X9X0X0X0X8X0X9X0X9X0X6X6Xo.q.h.v.n.v.v.v.v.v.v.v.v.v.v.v.v.v.",
"v.v.v.v.v.v.v.v.v.v.v.v.h.v.M. .~ ,X7X0X0X0X3X0X6X0X0X0X9X9X0X0X0X9X0X0X4X0X0X0X9X9X0X0X4XI u.v.b.v.v.v.v.v.h.v.v.h.v.h.v.v.v.",
"v.v.v.v.v.v.v.v.v.v.h.M.n.v.M.+.7.:X7X7X0X0X0X0X0X6X6X5X0X0X8X0X0X0X0X0X8X6X0X0X9X0X0X0X4XC w.B.n.v.v.v.v.v.v.v.v.v.v.v.v.v.v.",
"s.v.v.v.v.v.v.v.v.v.n.v.c.v.M.4.R 3X:X9X9X9X0X0X0X6X6X0X0X0X0X0X0X0X0X0X0X8X0X0X9X0X0X4XXXS c.v.n.c.v.v.B.v.u.v.v.v.v.v.v.v.v.",
"v.v.v.v.v.v.v.v.v.c.n.h.B.M.h.f.B oX9X<X1X9X0X7X0X0X0X6X0X0X0X0X0X0X0X0X0X0X0X0X0X6X0X4XN./ k.B.B.i.n.v.u.s.B.v.v.v.v.v.v.n.v.",
"v.v.v.v.v.v.v.v.n.h.B.v.u.n.v.B.A I. X<X<X<X0X0X0X0X0X0X0X0X0X0X9X0X0X0X0X0X0X0X9X0X6X@X;.<.B.v.u.v.B.M.v.B.n.i.v.v.v.v.v.v.b.",
"v.v.v.v.v.v.v.s.h.n.h.v.M.M.v.v.,.J 6X$X[.1X2X0X0X0X0X0X0X0X0X0X0X0X0X0X0X0X0X0X0X0X4X~.l h.v.h.B.h.y.B.h.h.n.s.v.b.v.b.v.v.v.",
"v.v.v.v.v.v.v.v.n.i.v.M.i.2.M.j.M.l 9.8X,X2X2X1X0X0X0X0X0X0X0X9X9X0X0X0X0X0X0X0X0X4X@X/ <.j.h.n.1.B.j.h.h.v.v.n.v.v.b.v.v.v.v.",
"v.v.v.s.v.v.v.v.h.D.%.z 8 u &.h.M.u.h H.7X1X,X2X1X1X9X9X0X9X0X0X0X0X0X0X9X9X9X0X4X4X| ] B.h.i.` 8 s x y.M.M.v.v.b.v.v.v.v.v.s.",
"v.v.v.v.v.v.v.v.h.v.z 2 1 i 5 h.h.M.f.f H.-X2X2X<X<X<X<X1X9X0X0X0X0X0X0X0X9X7X7XoXP ] h.j.h.%.5 8 < 3 2.h.h.M.v.v.v.v.v.v.s.i.",
"v.v.v.v.v.v.v.v.v.i.%.q 9 1 -.h.v.h.M.l.f U `.7X,X<X>X>X>X<X1X7X7X9X0X7X7X7X|.K.V ( S.S.h.h.h.9 4 d i =.h.v.i.n.v.v.v.v.s.v.v.",
"v.v.v.b.v.v.v.v.v.v.h.v.i.z p h.h.S.h.1.e j H 3.`.&X2X1X[.[.<X<X;X,X7X3X@XP.L S w { t.j.S.S.1.u 1.i.h.v.h.n.n.v.v.v.v.v.v.v.s.",
"v.v.v.v.v.v.v.v.s.v.s.h.B.p._ y z z p i &.S.t.r g C.&X].].].[.[.[.J.G.E V r #.g.M.x y z x y k &.h.n.n.v.h.v.v.i.v.v.v.v.v.v.v.",
"v.v.v.v.v.v.v.v.v.v.n.v.v.n.s.<.' } r.p.M.i.g.e.K '.8XJ.Q Y ].;XQ ! C.Q...] D.n.j.h.t.%.' &.2.k.n.v.v.v.v.v.v.v.v.v.v.v.v.v.v.",
"v.v.v.v.v.v.v.v.n.i.h.n.v.v.n.n.n.c.s.n.n.v.n.m.( 6.OX=X=X8X7X8X8X8X4XA./ c.v.i.v.h.v.v.v.M.h.M.v.i.i.h.v.v.v.v.v.v.v.v.v.v.v.",
"v.v.v.v.v.v.s.v.v.v.n.v.v.v.i.i.c.n.i.v.p.n.s.v.k.A :.Q.OX8X0X8X=X^.+.j q.n.i.s.v.v.v.v.v.n.c.v.v.v.v.n.v.v.h.v.v.v.v.v.v.v.v.",
"v.v.v.v.v.v.v.v.v.M.v.h.v.v.v.B.M.v.v.n.s.s.s.v.B.m.X.B g 7.*X! g t @.M.h.i.s.s.i.s.s.s.c.i.s.v.n.v.v.v.v.v.v.v.v.v.s.v.v.v.v.",
"s.v.v.v.v.v.v.v.n.v.i.v.M.v.s.v.h.v.v.s.s.s.s.i.v.k.N.;.U oX8XoXg N.M.v.h.s.v.s.d.n.n.a.c.B.n.a.v.s.v.h.i.v.v.n.v.v.v.v.v.v.v.",
"v.v.v.v.v.v.v.v.i.v.n.v.s.v.n.h.M.h.s.v.s.s.s.v.h.v.D.>.U =X3X0X;.@.S.h.v.h.s.s.s.d.s.v.v.s.c.n.v.v.v.v.v.n.v.i.v.v.h.v.v.v.v.",
"v.v.v.v.v.v.v.v.v.v.v.v.v.v.v.v.h.j.v.v.v.v.s.i.h.v.B.l.N XX8X8XI.A m.M.v.i.s.s.s.d.v.v.v.v.v.M.v.v.v.v.v.v.v.v.v.v.v.v.v.v.v.",
"v.v.v.v.v.v.v.v.v.v.v.v.v.v.v.h.M.h.M.v.v.s.v.v.i.M.h.N.| 0.8X8X=X..X.v.n.v.s.s.s.s.v.v.v.v.v.h.v.v.v.v.v.v.s.v.v.v.v.v.v.v.v.",
"v.s.v.v.v.v.v.s.v.v.v.v.v.v.v.v.M.M.v.v.v.v.v.h.n.i.v.B.l.r A.3X8XOXJ 5.M.h.n.c.d.v.v.v.M.j.j.v.v.v.v.v.v.v.v.v.v.s.v.v.v.v.v.",
"v.v.v.v.v.v.v.v.v.v.v.v.v.v.v.v.v.v.m.n.m.v.n.v.i.v.M.g.N.N.r I.6X0X^.h h.M.h.n.n.b.v.v.h.v.j.M.v.v.s.v.v.v.v.v.v.v.v.v.v.v.v.",
"v.v.v.v.v.v.v.v.v.s.v.v.v.v.v.v.v.v.v.m.M.m.v.v.v.s.s.n.c.v.f.D }.4X4X| ,.B.h.n.c.n.v.v.h.v.v.v.v.v.v.v.v.s.v.v.v.v.v.v.v.v.v.",
"v.v.v.v.v.v.v.v.v.v.v.v.v.v.v.v.v.v.v.n.n.v.v.v.v.n.i.h.h.B.g.D G.0X4X5.,.h.M.v.c.v.v.h.M.h.v.n.v.v.v.v.v.v.v.v.v.v.v.v.h.v.s.",
"v.v.v.v.v.v.v.v.v.v.v.v.n.v.v.v.s.s.v.v.v.M.n.v.v.s.s.i.V.v.u.C !.7X=X( k.h.h.n.v.v.v.v.v.v.m.s.v.v.v.v.v.v.v.v.v.v.v.v.v.v.v.",
"v.v.v.v.v.v.v.v.v.v.v.v.v.v.v.s.s.s.v.v.v.v.v.v.v.s.s.B.u.O.j x.6X=X9.( g.M.M.s.v.v.v.v.v.v.v.b.v.v.v.v.v.v.v.h.v.v.v.v.v.v.v.",
"v.v.v.v.v.v.v.v.v.v.h.v.v.s.v.v.h.v.s.b.b.b.h.h.M.B.h.q.f R ^.@X~. .^ a.B.h.v.n.v.v.v.v.v.v.v.v.v.v.v.v.v.v.v.v.v.s.v.v.v.v.v.",
"v.v.v.v.v.v.v.v.v.v.v.v.v.v.v.v.h.h.b.b.b.v.v.h.j.g.q.j U.@X/.X.^ *.v.B.i.v.B.p.v.v.v.v.v.v.v.v.v.v.v.v.s.v.v.v.v.v.v.v.v.v.v.",
"v.s.v.h.v.v.v.v.v.v.v.v.v.v.v.v.v.v.v.v.v.v.v.h.n.c.N ~.@Xz.h ;.s.i.v.v.i.h.n.M.v.v.v.v.v.v.s.v.v.v.v.v.v.v.v.v.v.v.v.v.v.v.v.",
"v.v.v.v.v.v.v.v.v.v.v.v.v.v.v.v.v.v.v.v.v.v.v.v.v.#.I %XE.Z f.D.m.n.v.v.B.n.v.i.v.v.v.v.v.v.v.v.v.v.v.v.v.v.v.v.v.v.v.v.v.v.v.",
"h.v.v.v.v.s.v.v.v.v.v.v.v.v.v.v.n.v.v.s.s.v.v.v.M.#.R 6X5.>.S.M.u.n.n.i.i.s.v.n.v.i.v.v.v.v.v.v.v.v.v.v.v.v.v.v.v.v.v.v.v.v.v.",
"v.v.v.v.v.v.v.v.v.v.v.v.v.v.v.v.v.v.v.v.s.s.v.v.h.f.V ).5.>.m.S.B.v.h.M.B.v.i.v.v.v.v.v.v.v.v.v.v.v.v.v.v.v.v.v.v.v.v.v.v.v.v.",
"v.v.v.v.v.v.v.v.v.v.v.v.v.v.v.v.v.v.v.d.v.s.h.v.B.k.Z R.Y.[ m.j.v.v.v.i.i.v.n.v.v.v.v.v.v.v.v.v.v.v.v.v.s.v.h.v.v.v.v.v.v.v.v.",
"s.v.v.v.v.v.v.v.s.v.v.v.v.v.v.v.v.v.v.b.s.s.v.v.h.M.,.{ ~.A c.M.v.v.n.v.n.v.v.h.v.v.v.v.v.v.s.v.v.v.v.v.v.v.v.v.v.h.v.v.v.s.v.",
"v.v.v.v.v.v.v.v.v.v.v.v.v.v.v.v.h.v.v.b.d.s.n.v.n.M.k.k l.4.#.c.v.v.v.v.v.v.v.v.v.s.v.v.v.v.v.v.v.v.v.v.v.v.v.v.v.v.v.s.v.v.v.",
"v.v.v.v.v.v.s.v.v.v.v.v.s.v.h.v.j.v.v.v.d.d.s.v.n.v.M.k.^ Y.t M.M.v.v.v.v.v.v.v.v.v.v.v.v.v.v.v.v.v.s.v.v.v.v.v.v.v.v.v.v.v.v.",
"v.v.v.v.v.v.v.v.v.v.v.v.v.v.v.v.v.h.v.b.d.s.b.v.n.c.M.h.$.*.k h.h.v.v.v.v.v.v.v.v.v.v.v.v.v.v.v.v.v.v.v.v.v.v.v.v.v.v.v.v.v.v.",
"v.v.v.v.v.v.h.v.v.v.v.v.v.v.v.v.h.v.v.v.v.s.s.b.m.n.m.h.g.y k j.v.v.v.v.v.h.v.v.v.v.v.v.v.v.v.v.v.v.v.v.v.v.v.v.v.v.v.v.v.v.v.",
"v.v.v.v.v.v.v.v.v.v.v.v.v.v.v.v.v.M.h.v.v.s.v.s.c.B.b.m.i.6 x v.v.v.v.v.v.v.v.v.v.v.v.v.v.s.v.v.v.v.v.v.v.v.v.v.v.h.v.v.v.v.v.",
"v.v.s.v.v.v.v.v.v.v.v.v.v.v.v.v.M.v.v.v.v.s.s.v.h.n.v.m.y.9 t.h.v.v.v.v.v.v.v.v.v.v.v.v.v.v.v.h.v.v.v.h.v.v.v.s.v.v.v.v.v.v.v.",
"v.v.v.v.v.v.v.v.v.v.v.s.v.v.v.v.n.c.v.v.v.i.v.s.M.h.B.M.y.r.v.M.v.v.v.v.v.v.v.v.v.v.v.v.v.v.v.v.v.v.v.v.v.v.v.v.v.v.v.v.v.v.s."
};
