/* XPM */
static char *player_left_01639493212[] = {
/* columns rows colors chars-per-pixel */
"63 63 215 2 ",
"   c #010201",
".  c #060907",
"X  c #110D0C",
"o  c #17120F",
"O  c #120D11",
"+  c #0C1212",
"@  c #111413",
"#  c #171B1A",
"$  c #201A1C",
"%  c #1F221B",
"&  c #292B29",
"*  c #32312D",
"=  c #39393A",
"-  c #524E4F",
";  c #43484B",
":  c #676768",
">  c #78706E",
",  c #797B7A",
"<  c #8B2932",
"1  c #94353D",
"2  c #9A3841",
"3  c #A54149",
"4  c #AE545D",
"5  c #B5565E",
"6  c #B3565B",
"7  c #AB4A53",
"8  c #BC5B64",
"9  c #817B7B",
"0  c #B9666B",
"q  c #B56F7A",
"w  c #A8757C",
"e  c #B7767F",
"r  c #C4646C",
"t  c #C16B6E",
"y  c #C56973",
"u  c #CB6D74",
"i  c #CC757B",
"p  c #C27D7F",
"a  c #CA777D",
"s  c #D7737D",
"d  c #83827E",
"f  c #9D7B82",
"g  c #A87B83",
"h  c #B47E84",
"j  c #BC7F83",
"k  c #CF7E87",
"l  c #D37C83",
"z  c #D17B87",
"x  c #7F8A84",
"c  c #848E86",
"v  c #8B8D8F",
"b  c #878A87",
"n  c #938D8D",
"m  c #969B99",
"M  c #979797",
"N  c #AC8184",
"B  c #AB8388",
"V  c #B48185",
"C  c #BB8187",
"Z  c #B4858B",
"A  c #BB848B",
"S  c #BC8A8C",
"D  c #B08D89",
"F  c #BD8D94",
"G  c #B28D94",
"H  c #BF9596",
"J  c #BC999D",
"K  c #A1A09E",
"L  c #BAA19C",
"P  c #BA9FA6",
"I  c #9BA4A9",
"U  c #B2A7AA",
"Y  c #A7B3AC",
"T  c #B3B2AE",
"R  c #ABABB1",
"E  c #B8AAB0",
"W  c #BEB8BA",
"Q  c #C3848C",
"!  c #C5898C",
"~  c #C78589",
"^  c #D78489",
"/  c #C48D92",
"(  c #CB8B91",
")  c #C98D99",
"_  c #D68E93",
"`  c #DD8D92",
"'  c #DF8390",
"]  c #C39396",
"[  c #CE9295",
"{  c #CB939B",
"}  c #CC9A9D",
"|  c #C3969B",
" . c #D09295",
".. c #D5969B",
"X. c #DD9B9F",
"o. c #D4999D",
"O. c #E0838B",
"+. c #E68E92",
"@. c #E3959B",
"#. c #E89598",
"$. c #F29A9F",
"%. c #C0A19E",
"&. c #CB9CA1",
"*. c #C69FA4",
"=. c #D79DA1",
"-. c #DD9CA4",
";. c #E39CA5",
":. c #E79AA3",
">. c #F39DA2",
",. c #FB9DA5",
"<. c #CAA9AE",
"1. c #C8A1A9",
"2. c #DCA1A4",
"3. c #DCA6AD",
"4. c #D4A6AB",
"5. c #C5AAB1",
"6. c #DFADB0",
"7. c #C9B5BC",
"8. c #C5B5BC",
"9. c #D8B5B6",
"0. c #E3A3AA",
"q. c #EAA5AB",
"w. c #E6ACAC",
"e. c #EEABAE",
"r. c #E7A0A6",
"t. c #F2A1A5",
"y. c #F6A3AA",
"u. c #FEA5AC",
"i. c #F4ABAD",
"p. c #FCADAE",
"a. c #F6ABA6",
"s. c #F6B2AD",
"d. c #FDB3AE",
"f. c #F8B8AF",
"g. c #E9A6B2",
"h. c #ECADB2",
"j. c #F5ACB2",
"k. c #FEAEB3",
"l. c #FFAEBA",
"z. c #F6A6B1",
"x. c #EBB1B5",
"c. c #E3B5BB",
"v. c #ECB5B8",
"b. c #E8B9BC",
"n. c #F4B4B4",
"m. c #FFB3B3",
"M. c #F6B8B1",
"N. c #FEB9B5",
"B. c #F5B4BA",
"V. c #FEB5BA",
"C. c #F6B8BB",
"Z. c #FEBABB",
"A. c #CCBDC2",
"S. c #D5BDC6",
"D. c #E9BFC3",
"F. c #FEB7C1",
"G. c #FFBDC2",
"H. c #CAC6C9",
"J. c #C5C7C4",
"K. c #D8C5C9",
"L. c #CFC8D0",
"P. c #D4D5D3",
"I. c #DADCDB",
"U. c #C8D2D4",
"Y. c #E4C1C4",
"T. c #E6C5CA",
"R. c #ECC5C9",
"E. c #EBC9CE",
"W. c #EAC0C4",
"Q. c #FFC2C2",
"!. c #FFC7C8",
"~. c #FFCDCC",
"^. c #FFC9C7",
"/. c #ECC9D0",
"(. c #FECDD2",
"). c #E1D1D5",
"_. c #EED3DA",
"`. c #F7D3D3",
"'. c #FED3D4",
"]. c #FCD6DB",
"[. c #FEDBDC",
"{. c #F3D3D8",
"}. c #D4DFE3",
"|. c #EBDBE4",
" X c #FBDAE3",
".X c #D3E4E9",
"XX c #D9E7EA",
"oX c #DCF6F7",
"OX c #E7E6E6",
"+X c #F3E3E6",
"@X c #FFE3E4",
"#X c #FCE6EA",
"$X c #F3ECEC",
"%X c #FEEBEC",
"&X c #F8E6E9",
"*X c #EAF2EE",
"=X c #F0F0EE",
"-X c #EBEEF4",
";X c #FEEEF3",
":X c #FFEBF6",
">X c #E2F6F6",
",X c #EDF6F6",
"<X c #E1FBF6",
"1X c #E3F7FC",
"2X c #ECF6FC",
"3X c #E4FCFB",
"4X c #EBFCFD",
"5X c #F4F4F5",
"6X c #FEF4F4",
"7X c #F6FAF4",
"8X c #FEF9F6",
"9X c #F5F5FA",
"0X c #FEF5FA",
"qX c #F5FDFD",
"wX c #FDFDFD",
/* pixels */
"m.m.m.m.m.m.m.m.m.m.d.m.m.d.m.d.m.m.m.m.m.m.d.m.m.m.m.m.m.m.m.m.m.m.m.M.m.m.m.m.m.m.m.m.m.m.m.m.m.m.m.m.d.m.k.m.m.m.m.m.m.d.m.",
"m.m.m.m.m.m.m.m.m.m.m.d.d.m.m.d.m.m.m.m.m.N.m.m.m.m.m.m.m.m.d.m.m.m.m.m.m.m.d.m.m.m.m.m.m.m.m.m.m.m.m.m.m.m.m.m.m.m.k.m.m.m.m.",
"m.m.m.m.m.m.m.m.m.m.m.m.m.m.m.m.m.m.m.m.m.m.m.m.m.m.m.m.m.m.m.m.m.m.m.m.m.m.m.m.m.m.m.m.m.m.m.m.m.m.m.m.m.m.m.m.m.m.m.m.m.m.m.",
"m.m.m.m.m.m.m.m.m.m.m.m.m.m.m.m.m.m.m.m.m.m.m.m.m.m.m.m.m.m.m.m.m.m.m.m.m.m.m.m.m.m.m.m.d.m.m.k.m.m.m.m.m.m.m.m.m.m.m.m.m.m.m.",
"m.m.m.m.m.m.m.m.m.m.m.m.m.m.m.m.m.m.m.m.m.m.m.m.m.m.m.m.m.m.m.m.m.m.m.m.m.m.m.m.m.m.m.m.m.m.m.m.m.m.m.m.m.m.m.m.m.m.m.m.k.m.m.",
"m.m.m.m.m.m.m.d.k.m.m.m.m.m.m.m.m.m.m.m.m.m.m.d.m.m.m.m.m.m.m.m.m.m.m.k.m.m.m.m.m.m.m.m.m.m.m.m.m.m.k.m.m.m.m.m.m.m.m.m.m.m.m.",
"m.m.m.m.k.m.m.m.m.m.m.m.m.m.V.m.m.m.m.m.m.m.m.m.m.m.d.m.m.m.m.m.m.m.m.m.m.m.m.m.m.m.d.m.m.m.m.m.m.m.m.m.m.d.m.m.m.m.m.m.m.m.m.",
"m.m.m.m.m.m.m.m.m.m.m.m.V.m.m.m.m.m.N.d.m.m.m.m.m.m.m.m.m.m.m.m.d.m.m.m.m.m.m.m.m.m.m.m.m.m.m.m.m.m.m.m.m.m.m.m.m.d.m.m.m.m.m.",
"m.d.m.m.m.m.m.m.k.V.V.m.m.V.m.V.m.m.m.m.m.m.m.m.m.m.m.m.N.k.m.m.m.k.m.N.k.m.N.m.m.m.m.m.m.m.m.d.m.m.m.m.m.m.m.m.m.d.m.m.m.m.m.",
"m.m.m.m.m.m.m.m.V.m.m.V.m.V.N.j.n.m.d.m.m.k.m.V.m.d.m.m.p.N.m.p.m.m.m.p.d.V.d.m.m.m.m.m.m.m.m.m.m.m.m.m.m.m.m.m.m.m.m.m.m.m.m.",
"d.m.m.m.m.m.M.m.V.k.m.M.B.m.V.s.V.V.V.V.m.m.V.m.m.N.V.m.V.#.l O.d.d.V.d.m.V.p.V.m.m.m.m.m.m.m.m.m.m.m.m.m.m.m.k.m.m.m.m.m.m.m.",
"m.d.m.m.m.m.m.m.M.M.V.m.N.m.M.V.m.s.k.k.V.m.k.m.n.N.V.V.p.^ < r V.k.d.N.m.m.m.d.m.m.m.m.m.m.m.m.m.m.m.d.m.m.m.m.m.m.m.m.m.m.m.",
"m.d.m.m.m.m.m.m.k.V.V.m.^.n.n.^.Z.Z.V.m.k.k.m.V.m.N.i.k.V.0 1 6 p.N.p.V.d.V.m.m.d.m.m.m.m.m.m.N.m.m.m.m.m.m.m.m.m.m.m.m.d.m.m.",
"d.m.m.m.m.m.V.M.N.N.n.C.].Q.C.'.Z.N.m.m.V.k.k.m.V.V.Z.m.>.y u 2 l d.m.m.m.m.p.V.m.m.m.m.m.m.m.m.m.m.m.m.m.m.m.m.m.m.m.m.m.m.m.",
"m.d.m.m.m.m.m.M.N.Q.Q.C.'.Q.C.~.V.n.m.l.V.m.V.V.m.m.j.V.m.$.7 l i ^ d.V.V.d.p.N.m.m.m.m.m.m.m.m.m.m.m.m.m.m.m.m.k.m.m.m.m.m.m.",
"m.k.m.m.m.m.m.m.j.(.'.M.Q.C.Z.C.C.e.0... . .[ { -.B.N.k.V.k.u.l.p.0 t.d.m.m.V.k.m.m.m.m.m.m.d.m.k.m.m.m.m.d.m.m.m.m.m.m.m.m.m.",
"k.Z.d.m.d.f.d.d.N.m.Q.V.V.B.g.) Z G J 5.8.A.8.E P G C ;.k.m.k.V.l.z ` V.n.m.k.m.l.V.m.m.m.m.d.d.k.k.m.m.V.m.V.m.V.k.k.m.V.m.M.",
"Z.a.m.m.N.M.d.m.i.Z.M.C.0.A A c._.&X0X0X9XqX2X2X-X+X/.S Q j.m.p.V.l ` M.m.V.k.V.m.l.V.m.m.m.d.d.k.m.k.m.m.m.m.m.m.m.k.m.m.m.V.",
"k.V.V.m.d.V.N.i.V.N.X.A F T.6X$X8XwX0X0X0X0X0XqX9XqX-X$X9.h h.V.k.i #.V.m.N.k.m.k.m.V.m.V.m.m.m.m.M.m.m.m.d.m.f.M.m.m.m.m.m.m.",
"V.p.N.m.m.m.k.Z.m.( / D.;XwX7XwX7XqXwX9XwXwX0XqX2X4X,X*X9XY.g B.$.u d.m.s.d.m.d.m.m.V.V.M.m.m.m.M.M.d.m.d.m.m.M.M.M.m.m.m.k.m.",
"m.N.d.p.G.z.V.e.C |  XwX8X,XY c m J.8XwX7XwXwXwXqX4X3X3X,X0XK.g a +.m.p.d.d.d.d.m.m.V.n.N.V.m.m.M.M.m.d.d.d.N.f.m.f.d.d.m.d.m.",
"d.d.d.Z.y.V.j.C D.;X8XwXI.#         c wXwXwXwXwXwX4X3X3X>X2X9X1.q F.m.n.d.d.d.d.m.m.m.m.n.V.V.m.V.d.d.m.d.m.d.d.d.m.d.f.d.d.d.",
"d.N.m.m.V.B.w D.0XwXwXwX=   = 9 > o   P.wXqXwXwXwXwXwX4X2X2X2X|.F i.i.N.d.d.d.p.d.m.m.m.m.m.V.k.m.k.m.m.m.k.m.d.m.m.M.M.m.d.k.",
"f.d.s.C.x.h T.8XwXwXqX,X  : 0XwXwX$XX m wX7XwXwXwX0XwXwX2X1X1X2X<.w 0.C.m.N.p.m.p.m.d.m.m.m.m.m.k.k.m.m.m.k.m.m.m.m.M.M.m.m.m.",
"p.m.m.v.S 9.9XwXwXwXqXOX  M 0X0XwX0X# n 8XwXwXwXwXwXwXwXwX4X3X2X_.g | h F.j.V.m.d.p.V.k.d.m.d.m.l.F.k.m.V.k.V.m.V.m.n.N.j.n.Z.",
"d.m.m.2.| %X8XwXqXwXwXqX# O W 5XOXb   E wXwX8X7XwXwXwXwXwXqX3X>X-XA. X4.h F.V.k.p.V.m.d.m.N.m.d.V.z.n.2.o.h.B.N.V.V.m.m.Z.V.p.",
"m.p.V.A R.0X0XwXwXqXqXwXv       .   & wXwX8XwXwXwXwXwXwXwXqX3X<XqX-X0X:X&.&.F.F.V.k.k.V.m.p.d.f.l.q.Z J J D C :.k.l.k.n.n.V.V.",
"k.k.q./ 6X0XwXwXwXqXqXwXqXM &     ; OXwXwX7XwX7XwXwXwXwXwXqX4X<X1X}.L.:X/.g =.=.n.G.M.m.d.N.a.Z.q.V `.#X8X%X(.( k z.V.M.Z.M.V.",
"m.Z.( x.6X6X0XwXwXwXqXwXwXwXwX7XwXwXwXwXwXwXqXqXwXwXwXwXwXqX4X<XoX.XR 0X:Xf J J g ] v.Z.j.k.Z.e.N E.#X(.6.3.v.].v.~ _ t.t.u.u.",
"V.Z.C `.8X0XwXwXwXwXwXwXwX7XwXwXwXwXwXqXqXwX5XwXwXwXwXwXwXqXqX3XoX.XI qX0X7.&X6X%X<.g x.B.V.N.[ %.%Xc.h X.-.! S o.C.@.i 4 0 t.",
"l.B.S [.wXwXwXwXwXwXwX0XwXwX7XwXwX0XwXwXwX9XwX0XwXwXwXwXwXwXwX4X3XoX}.qX0X6X9X6X8X6XY.w h.j.p.C '.[.h g.G.V.C.e.=.k ^ z z >.k.",
"F.V.A @X8X7XwXqXwXwX0XwX8X8XwXwXwXwXwXwXwXwXwXwXwXwXwXwXqXwXwXqX>X3X-X0X0X8.+XwX0X0X;X/.h F h v.%X} =.G.B.V.V.V.m.V.y.k.m.k.V.",
"l.l.Q (.8X8XwXwXwXwX0XwXwX*XY x m H.wXwXwXwXwXwXwXwXwXwXwXqXwXqX>XXXR 0X:Xg h &.D.:X0X8X+XL.).0X'.p s.m.m.V.V.m.m.m.m.m.m.m.m.",
"l.l. .9.8X8XwXwXwXwXwXwX|.% .       v wXwXwXwX9XwXwXwXwXwXwXwX4X4XU.E 0X(.q F.-.h *.;X0X5X0X0X6X[ #.V.m.N.i.m.m.m.m.m.m.m.m.m.",
"l.V.w.F %X8XwXwXwXwX9XwX=   = , : @   P.wXwXwXwXwXwXqXwXwXwXwX9X,XH.S.0X=.:.l.V.F.) Z  X0X0X:Xc.~ m.m.m.V.m.m.m.m.m.m.m.m.m.m.",
"m.M.n.S Y.6XwX8XwXqXwX9X  : wXwXwXOXX K 0XwXwXwXwXwXqXwXwXwXwX9X8XU {.b.Q k.V.k.F.F.;.h { 3.A ! i.V.m.m.p.N.m.m.m.m.m.m.d.m.m.",
"V.n.M.e.g %X8XwXwXwXqXXX  M 0XwX8XwX% d 8XwXwX0XwXwXwXwXwXqXqX9X#XB &.! i.m.m.k.k.V.V.m.;.;.j.l.V.p.V.m.s.V.m.m.m.m.m.m.m.m.m.",
"s.Z.s.n.2.S %XwXwXwX7XwX+ O H.$X+Xb   T wXwX8XwX0XwX0XwXwXwXwX0XT.w ) x.n.p.d.d.p.V.k.V.F.l.k.V.m.V.m.d.m.p.m.m.m.m.m.m.m.m.m.",
"m.p.N.V.i...{ @X8XwXwXqXc     .     * =XwXwXqXwXwXwXwXwXwXwXqX$XF ;.F.N.d.N.d.d.m.p.d.p.k.V.m.m.d.N.d.d.m.V.V.d.m.m.m.m.m.m.m.",
"N.a.V.m.m.V.( &.%X6XwXwXwXm &     - OXwXwXwXwXwXwXwXwXwXwXwX,XP.A l.k.V.N.s.d.d.d.d.N.m.m.n.N.s.V.p.m.N.p.V.m.p.m.m.m.m.m.m.m.",
"d.m.m.p.V.V.z...] ].0XwX8X8XwX7XwXwXwXwXwXwXqXwXqXwXwXwXwX0X+Xg q l.k.V.f.s.N.s.d.d.d.m.d.M.M.m.m.m.m.m.m.m.m.m.m.m.m.m.m.m.m.",
"d.d.m.d.m.V.l.k.;.A D.8X8XwXwXwXwXwXwXwXwXwXwXwXwXqXwXwX8X0XJ { z O.V.m.d.f.N.f.d.d.m.m.m.f.M.f.m.m.m.m.m.m.d.m.m.d.m.m.m.m.m.",
"m.d.d.m.k.k.m.F.m.q.Q | '.6X8X8XwXwXwXwXwXwXwXwXwX8X0X0X%X/ ( B.z.y y.d.N.f.d.f.m.m.m.m.m.m.m.d.m.m.d.m.m.m.m.m.k.m.m.m.m.m.m.",
"N.f.d.m.m.m.k.m.V.V.B.-.S ] `.6X0XwXwX8XwXwXwXwXwX8X%X(.A _ V.l.F.z ` V.Z.d.s.m.m.m.m.m.m.m.d.m.m.m.m.m.m.m.m.m.m.m.m.m.m.m.m.",
"M.m.m.M.V.m.m.V.N.j.G.B.v.2.S Z 6.R.@X;X6X6X8X%X@Xc.o.~ :.m.k.k.l.z +.V.p.d.m.m.m.m.l.m.k.k.m.m.m.m.m.m.m.m.m.d.m.m.m.m.m.m.m.",
"n.V.M.m.p.m.m.m.k.!.(.N.Z.Z.v.e.[ ! V Z H &.] Z A ! :.p.l.V.k.k.l.i @.m.d.m.N.d.V.m.m.m.m.m.m.m.m.m.m.m.m.m.m.m.m.m.m.m.m.m.m.",
"V.m.V.m.d.m.d.m.N.'.Q.n.'.Z.Z.G.N.V.V.i.q.q.g.n.B.B.Z.m.k.p.+.u.>.i >.m.m.d.p.d.k.m.V.m.m.m.m.d.m.m.m.m.m.m.m.m.m.m.m.m.m.d.k.",
"V.m.k.m.N.V.M.f.m.n.M.N.'.Q.N.].V.p.k.m.m.m.k.V.m.m.m.V.m.l 6 5 t +.V.m.d.m.d.V.m.V.V.n.m.m.m.m.m.m.m.m.k.m.m.m.m.m.m.m.m.m.m.",
"k.m.m.m.m.m.m.m.m.N.m.Z.^.Z.m.^.m.m.d.m.m.m.m.N.N.N.k.m.u.5 8 3 $.a.m.m.d.m.V.d.m.m.m.m.m.m.m.m.m.m.m.m.m.m.m.m.m.m.m.m.m.m.m.",
"m.m.m.m.m.m.m.m.d.V.m.m.Z.m.s.Z.m.N.N.d.m.m.n.m.m.d.m.k.l.s < r p.V.V.m.m.m.m.d.m.m.m.m.m.m.m.m.m.d.m.m.m.m.m.m.m.m.m.m.m.m.m.",
"m.m.m.m.m.m.m.m.d.N.V.d.N.m.s.m.N.m.m.m.d.N.M.V.V.m.m.m.u.O.2 y m.V.m.p.m.m.m.m.m.m.m.m.m.m.m.m.m.m.m.m.d.m.m.m.m.m.m.m.m.m.m.",
"m.m.m.m.m.m.k.m.m.m.m.m.d.m.V.d.d.m.m.m.m.m.m.m.n.m.k.V.k.u.,.,.m.k.d.m.m.m.m.m.m.m.p.m.m.m.m.m.m.m.m.m.m.m.m.m.m.d.m.m.m.m.m.",
"m.m.m.m.m.m.m.m.m.m.m.m.s.m.N.m.m.m.m.m.m.m.m.m.N.m.V.k.V.k.u.m.m.m.m.V.V.m.m.m.m.m.m.m.m.m.m.m.d.m.m.m.m.m.m.m.m.m.m.m.m.m.m.",
"m.m.m.m.m.m.m.m.m.m.m.m.m.m.m.m.m.m.m.m.m.m.m.m.V.s.m.m.m.V.k.V.m.m.m.m.d.m.m.m.m.m.m.m.m.d.m.m.m.m.m.m.m.m.m.m.m.k.m.m.m.m.d.",
"m.m.m.m.m.m.m.m.m.m.m.m.m.m.m.m.m.m.m.m.m.m.m.m.d.m.m.m.k.m.N.p.m.m.m.p.d.m.m.m.m.m.m.m.m.m.m.m.m.m.m.m.m.m.m.m.m.m.m.m.m.m.m.",
"k.m.d.m.m.m.m.m.d.V.m.d.m.V.m.d.m.m.d.m.m.m.m.m.V.d.m.d.V.n.s.N.m.m.m.m.m.V.m.p.m.m.m.m.m.m.m.m.m.m.m.m.k.m.m.m.m.m.m.m.m.m.m.",
"m.m.m.m.m.m.m.m.m.m.m.m.m.m.m.m.m.m.m.m.m.m.k.k.m.m.V.m.M.m.m.m.m.m.m.m.m.m.m.m.m.m.m.m.m.m.m.k.m.m.m.m.m.d.m.k.m.m.m.m.m.m.m.",
"m.m.m.m.m.m.m.m.d.m.m.m.m.m.m.m.m.M.m.m.m.k.m.m.m.m.m.m.m.m.M.V.m.m.m.m.m.m.m.m.m.m.m.d.m.m.m.m.m.m.m.m.m.m.m.m.m.m.m.m.m.m.m.",
"d.m.m.m.m.m.m.m.m.m.m.m.m.m.m.m.m.M.m.V.m.m.m.k.m.m.m.m.m.M.m.N.m.m.d.m.m.m.m.m.m.m.m.m.m.m.m.m.m.m.m.m.m.m.m.m.m.m.m.m.m.m.m.",
"m.m.m.m.m.m.m.m.m.m.m.m.m.m.m.k.m.m.m.m.l.m.m.m.m.m.m.M.m.M.m.m.m.m.m.m.m.m.m.m.m.m.m.m.m.m.m.m.m.m.m.m.m.m.m.m.m.m.m.m.m.m.m.",
"m.m.m.M.m.m.m.m.m.m.m.m.d.m.m.m.V.m.m.V.m.m.m.m.m.m.m.M.m.m.m.d.m.m.m.m.m.m.m.m.m.m.m.m.m.m.m.m.m.m.m.m.m.m.m.m.m.m.m.m.m.m.m.",
"m.m.m.m.m.m.m.m.m.m.m.m.m.m.m.m.V.m.m.m.m.l.m.m.M.m.m.N.m.m.d.m.m.m.m.m.m.m.m.m.m.m.m.m.m.m.m.m.m.k.m.m.m.m.m.m.m.m.m.m.m.m.m.",
"N.m.m.m.m.N.d.m.m.m.m.m.m.m.m.m.m.V.m.m.m.m.m.m.m.m.m.m.d.m.d.m.m.m.m.m.m.m.m.d.k.m.m.m.m.m.m.d.m.m.m.d.m.m.m.m.m.m.m.d.m.m.k."
};
