/* XPM */
static char *player_up_11639492962[] = {
/* columns rows colors chars-per-pixel */
"63 63 219 2 ",
"   c #020102",
".  c #0B0509",
"X  c #070807",
"o  c #100A0C",
"O  c #140E11",
"+  c #0D1114",
"@  c #141515",
"#  c #191D1C",
"$  c #201A1E",
"%  c #1C1D21",
"&  c #27282A",
"*  c #302728",
"=  c #3C3B3A",
"-  c #323733",
";  c #463C3D",
":  c #4B494A",
">  c #686765",
",  c #67706B",
"<  c #736E72",
"1  c #7A7A79",
"2  c #892331",
"3  c #952939",
"4  c #9F3A48",
"5  c #A93E4E",
"6  c #B04A57",
"7  c #AA535B",
"8  c #BA5663",
"9  c #BB5B67",
"0  c #BD6B6F",
"q  c #B76969",
"w  c #BC6E7B",
"e  c #A37379",
"r  c #B4737D",
"t  c #BA797D",
"y  c #C55B6A",
"u  c #C0666F",
"i  c #CA6873",
"p  c #D16E7A",
"a  c #D46377",
"s  c #C7747B",
"d  c #AC7D87",
"f  c #A87985",
"g  c #B57B83",
"h  c #BE7E85",
"j  c #B07C89",
"k  c #C97B84",
"l  c #DA7B86",
"z  c #D67D85",
"x  c #8A8185",
"c  c #85878A",
"v  c #8A8C8E",
"b  c #828783",
"n  c #938F8E",
"m  c #8E928F",
"M  c #98999A",
"N  c #AA8C8B",
"B  c #AE8289",
"V  c #B58284",
"C  c #B68489",
"Z  c #BB858B",
"A  c #BC8A8C",
"S  c #B78588",
"D  c #B38E91",
"F  c #BC8C96",
"G  c #A99598",
"H  c #BF9698",
"J  c #A89BA2",
"K  c #B5A0A7",
"L  c #ADB3AF",
"P  c #BBB0AE",
"I  c #A8A9B2",
"U  c #BCADB4",
"Y  c #BCBBBD",
"T  c #B6B6B8",
"R  c #ACA3A6",
"E  c #C98386",
"W  c #C2838B",
"Q  c #C28B8D",
"!  c #C8878C",
"~  c #DC8B8E",
"^  c #D78588",
"/  c #C48B92",
"(  c #CA8C94",
")  c #D28F95",
"_  c #D58B97",
"`  c #C49295",
"'  c #C4959A",
"]  c #CB959C",
"[  c #CB999C",
"{  c #CA9798",
"}  c #D2949B",
"|  c #DC959D",
" . c #D2999E",
".. c #D79297",
"X. c #E3828D",
"o. c #E48691",
"O. c #EC8C97",
"+. c #E49395",
"@. c #E4919D",
"#. c #EA959B",
"$. c #E49A9F",
"%. c #E89A9A",
"&. c #F0959E",
"*. c #C497A2",
"=. c #CC9DA3",
"-. c #D494A2",
";. c #DB9CA2",
":. c #DD9EAA",
">. c #DA9AA3",
",. c #E49CA4",
"<. c #EE9FA5",
"1. c #E09EAA",
"2. c #FA9EA8",
"3. c #F79CA4",
"4. c #CCA4A6",
"5. c #C3AEAB",
"6. c #DFA2A6",
"7. c #DEA3A8",
"8. c #D3A4A8",
"9. c #CDB3AF",
"0. c #CDA6B1",
"q. c #D8ACBA",
"w. c #C9B5BA",
"e. c #C6B8BA",
"r. c #D5B4B6",
"t. c #DCB4B5",
"y. c #E4A1A7",
"u. c #E6A1AB",
"i. c #ECA3AB",
"p. c #ECAAAD",
"a. c #E8A0A4",
"s. c #F2A3A6",
"d. c #F3A3AB",
"f. c #FCA5AC",
"g. c #F5ABAC",
"h. c #FCADAD",
"j. c #F6B1AE",
"k. c #FDB2AE",
"l. c #EBAAB1",
"z. c #EAA4B2",
"x. c #F4ACB3",
"c. c #FDAEB3",
"v. c #FFAEB9",
"b. c #F5AFB9",
"n. c #E2B8BB",
"m. c #F6B3B4",
"M. c #FEB3B3",
"N. c #F7B8B3",
"B. c #FDB8B5",
"V. c #F7B4BB",
"C. c #FEB4BA",
"Z. c #F5BABB",
"A. c #FEBABB",
"S. c #C4BFC5",
"D. c #DCBDC6",
"F. c #E7B8C2",
"G. c #FFB4C1",
"H. c #FFBCC2",
"J. c #BBC1C1",
"K. c #C8C4C3",
"L. c #D7C4C7",
"P. c #C8DDDE",
"I. c #D9D9DA",
"U. c #EBC4C6",
"Y. c #E5CBCB",
"T. c #E9CACB",
"R. c #E6C5C8",
"E. c #FFC4C4",
"W. c #FFC9C7",
"Q. c #FFC4C9",
"!. c #F1CBCE",
"~. c #FFCACD",
"^. c #F2C6C7",
"/. c #FDD1CF",
"(. c #F2D0CF",
"). c #FBCDDA",
"_. c #ECDCDE",
"`. c #E2D9D8",
"'. c #F5D2D2",
"]. c #FED3D2",
"[. c #FED6DC",
"{. c #FEDADA",
"}. c #F6D8D8",
"|. c #D6DCE6",
" X c #F4DAE3",
".X c #D8E7E7",
"XX c #DDF8F8",
"oX c #E7E5E9",
"OX c #E8EAE9",
"+X c #FDE5E5",
"@X c #FFE9E6",
"#X c #FEE6EA",
"$X c #F4EFEE",
"%X c #FFECED",
"&X c #F5E7E6",
"*X c #E8F1EC",
"=X c #F7F4ED",
"-X c #FDF1EF",
";X c #FFE6F1",
":X c #F6EEF4",
">X c #FEECF3",
",X c #FEEEF9",
"<X c #F6EEF9",
"1X c #E3F4F4",
"2X c #EBF3F1",
"3X c #E6FAF6",
"4X c #EBF5FA",
"5X c #E4FBFA",
"6X c #ECFCFC",
"7X c #E7F8F8",
"8X c #F3F3F3",
"9X c #FEF4F3",
"0X c #F2FAF6",
"qX c #FDFAF6",
"wX c #F4F5F9",
"eX c #FCF5FB",
"rX c #F5FDFC",
"tX c #FDFDFE",
"yX c #EDEBF6",
/* pixels */
"M.M.M.M.M.M.M.M.M.M.M.M.M.M.M.M.M.M.M.k.M.B.N.j.B.k.v.v.c.C.C.C.C.c.C.c.c.C.B.h.M.k.k.k.M.M.k.M.N.M.M.M.M.M.M.M.M.k.B.N.M.M.M.",
"M.M.M.M.M.M.M.M.M.M.c.M.M.M.M.M.M.h.k.M.M.k.k.k.k.B.c.c.C.c.V.V.M.C.C.M.A.c.f.M.g.k.B.k.k.k.A.M.M.M.M.M.M.M.M.M.M.B.N.M.M.M.M.",
"M.M.M.M.M.M.M.M.M.M.M.M.M.M.M.M.M.M.M.M.M.M.M.M.M.M.c.B.p.{ V A A Q { 7.m.A.C.M.A.B.k.j.B.k.M.M.M.N.M.M.M.M.M.M.M.M.N.M.M.M.M.",
"M.M.M.M.M.M.M.M.M.M.M.M.M.M.M.M.M.M.M.k.k.M.M.c.M.M.u.A A n.].{.{.(.t.' Z | C.c.k.k.B.N.k.B.h.k.M.M.M.M.M.M.M.M.M.M.M.B.M.M.M.",
"M.M.M.M.c.M.M.M.M.M.M.M.M.M.M.M.M.k.k.B.M.c.M.C.M.y.A n.9X9XqXqXqXqXqX%XT.` Q x.Z.M.M.A.g.B.M.M.M.M.M.M.M.M.M.M.M.B.k.M.M.M.M.",
"M.M.M.M.M.M.M.M.M.M.M.M.M.M.M.M.M.k.M.M.M.C.c.x.) A {.qX9XqXtXqXtXtXtXtXqX@Xt.V p.A.g.C.B.k.k.M.M.M.M.M.M.M.M.M.M.M.M.M.M.M.M.",
"M.N.M.M.M.M.M.M.M.M.M.M.M.M.M.M.k.B.M.M.C.C.x.| [ %XqXtXqX0XtXtXtXtXtXtXtXqX9XR.g i.H.c.N.B.k.k.M.M.M.v.M.M.M.M.M.M.M.M.M.M.M.",
"M.M.M.M.M.M.M.M.M.M.M.M.M.M.M.M.B.M.k.B.C.x. ./ %X9XqXtXtXtXtXtXtXtXtXtXtXtXqXtXU.r x.C.g.A.M.M.M.M.M.C.c.M.c.M.M.M.M.M.M.M.M.",
"B.M.M.M.M.M.M.M.M.M.M.M.M.M.B.M.B.B.m.A.m.;.{ #XeXqXtXtXtXtXtXtXtXtXeXtXtXtXrXqXqXt.Z C.x.M.B.m.C.M.B.M.c.c.M.M.M.M.M.M.M.M.k.",
"N.M.M.M.M.M.M.M.k.M.M.M.M.M.M.B.].A.A.x.l.Z }.qXqXtXtXtXrXtXtXtXtXtXtXtXtXtXtXrXtX9X[ ) C.c.A.W.W.A.M.C.M.M.M.M.M.M.M.M.M.M.M.",
"k.B.N.M.M.M.M.M.M.M.M.M.B.M.k.j.E.].V.A.Z U.9XtXtX0XtXtXtXwXtXtXtXtXtXtXtXeXtXtXtXqX+XS x.v.H.].A.m.x.B.C.c.c.M.M.M.M.M.k.M.M.",
"B.M.M.M.c.M.M.M.M.M.M.M.B.B.A.E.m.E.A. .{ qXqXtXtXrXrXwXtXtXtXtXtXtXtXtXeXtXtXtX6XrXqXR.k x.H.H.C.A.Z.B.M.M.C.c.M.M.M.M.B.k.M.",
"N.M.M.M.M.M.M.M.M.M.M.B.m.B.W.].Q.C.Z.j [.-XqXtXP.M v Y eXeXtXtXtXtXtXtX`.J x T rX0XqX-XH ,.C.A.~.].W.A.M.M.M.C.M.M.k.B.k.M.k.",
"M.M.M.M.M.M.M.M.M.M.M.M.M.N.B.A.E.H.=.=.eXtXtXc   + %   & oXtXtXqXtXtXv   O $   & .XqX9XY.A m.H.W.E.m.M.C.C.c.C.M.M.M.k.M.k.M.",
"M.M.M.M.M.M.M.M.M.M.h.N.N.M.N.N.c.V.Q U.eXtXK.. @ wXtXc X : tXtXqXtXK.  @ oXtXv . : tXqX-XN l.V.Z.Z.m.m.B.M.M.M.M.M.M.M.k.k.M.",
"M.M.M.M.M.M.M.M.M.M.B.M.M.N.W.{.Q.x.C -XeXeXM   < eXtX*X    tXqXqX=XM   , tXtXoX  . tXtXqXw.( G.~./.W.N.m.B.M.B.M.M.M.M.M.M.k.",
"M.k.M.k.M.M.k.M.M.M.N.M.M.A.B.C.C.-.0.qXqXtXx   1 tXtX2X    qXtXtXqXb   1 tXtX8X  . tXtXqX`.V A.A.A.C.N.M.M.M.k.B.k.B.k.k.M.k.",
"M.M.k.M.k.k.M.M.M.M.M.M.M.M.M.C.G.k T.qXtXqXR o - tXqXY   * tXtXtXtXL   = tXtXJ.  & wXtX0X=XC x.M.B.M.M.N.N.M.N.k.M.k.M.M.k.M.",
"k.B.B.k.M.k.M.M.M.M.M.k.M.M.M.M.v.( }.tXtXtXeXO   , m #   G tXtXtXtX*X#   > n #   M tXtX0X9X-.,.B.M.M.k.M.M.M.M.M.M.B.k.M.k.M.",
"M.k.k.M.k.B.M.M.M.M.M.M.M.M.M.c.c.g >XqXqXtXtX`.=     X m eXtXtXtXtXtXI.;     X v rXtXtXeX:X0.>.C.M.M.M.M.M.M.M.M.M.k.M.k.M.M.",
"M.M.M.M.M.M.M.M.M.M.M.M.M.M.M.C.<.-.9XtXtXtXtXtXtX0X*XrXqXqXtXtXtXrX0XtXqX=XOXrXrXtXtXtXrX0Xq._ C.M.M.M.M.M.M.M.M.M.M.M.M.B.N.",
"B.k.M.M.M.M.M.c.M.M.M.c.M.M.M.C.<.] 9XqXrXtXtXtXtX0XrXtXtXtXtXtXtXtXtXqXqXtX0XrXrXtXtXtX0XeXD._ C.M.M.M.M.M.c.M.M.M.M.M.M.m.M.",
"B.C.B.M.M.M.M.c.c.M.M.M.M.M.M.M.x.-.eXqXtXrXtXtXtXtXtXrXtXtXtXqXtXwXtXtXtXtXtX0XtXtXwXrXrX8Xq.-.C.k.M.M.M.M.M.M.M.M.M.M.C.M.C.",
"M.M.M.M.M.M.M.M.M.M.c.M.M.M.M.M.x.h 9XtX0XrXtXtXtXtXtXtXtXtXeXtXtXtXtXtXtXqXrXtXtXtXtXtXXXwX0.-.Z.B.M.M.M.M.M.M.M.M.M.M.M.M.B.",
"M.C.M.M.C.M.M.M.M.M.M.M.B.M.N.M.C.k +XtXrXrXtXtXtXtXtXtXtXtXtXtXtXtXtXtXtXtXtXtXtXtXrX6X1XtXF 1.m.B.m.N.M.M.M.M.M.M.M.C.M.M.M.",
"M.M.v.M.c.M.M.M.M.k.M.N.j.A.M.M.C.! F.qXtXrXtXtXtXtXtXtXtXtXtXtXtXtXtXtXtXtXtXtXtXtX3X3X6XoXF b.A.B.M.m.M.N.M.M.M.M.M.M.M.C.M.",
"M.M.M.M.M.M.C.M.M.x.A.M.h.A.x.M.H.| [ 9XtXtXtXtXtXtXtXtXtXtXrXrXtXtXtXtXtXtXtXtXtX6X5X3X*XY.W v.M.M.M.M.M.m.A.M.M.M.M.M.M.M.M.",
"c.M.M.M.M.M.C.M.M.H.g.M.A.M.C.C.c.C.g '.qXtXtXtXtXtXtXtXtXtXtXrXtXtXtXtXtXtXtXtXrX6X3X2X9XD :.C.C.x.c.A.M.g.C.B.B.M.M.M.M.M.M.",
"M.k.M.k.M.N.M.N.M.x.C.C.v.v.2.v.c.C.y.Z ;XtXtXtXtXtXtXtXtXrXrXtXrXtXtXtXtXtXtXrX7X1XwX9Xr.C x.C.v.f.v.c.C.C.g.C.M.M.M.M.k.M.M.",
"k.B.k.M.M.M.M.M.M.M.H.f.l p 9 o.c.c.C.) =.#XeXtXtXtXtXtXtXtXtXrXtXtXrXrXrX6X6X5X6X6X,XD.g V.M.M.O.p 8 l 3.c.C.M.M.N.M.M.M.k.M.",
"k.k.M.k.k.M.N.M.C.c.f.f.5 2 y 6 +.M.M.C.( *.#XtXrXrXrXrXtXrXrXtXtXtXrX6X6XXXXXXXXXwXD.Z d.C.N.k.8 a 3 2 l v.C.M.B.M.B.k.k.M.k.",
"M.M.M.k.N.M.N.M.M.C.C.#.i y 5 8 f.M.c.v.G./ d L.9X8XwX0X0XrXrXrX0X4X6X5X5X5X4X6XoXK j z.v.c.k.M.l 3 y i l v.c.M.M.M.k.M.k.M.M.",
"M.M.M.M.M.M.M.M.M.M.M.M.C.C.#.u g.k.C.C.d.z w k ' T.&X:XrX4X4X4X4X5XXXXX6X2X_.0.j r w @.v.C.c.k.s ~ f.C.M.M.M.M.M.M.M.M.M.M.c.",
"M.M.M.M.c.M.M.M.k.M.M.M.M.M.g.%.u s ~ s 0 o.f.v.1.e N P e.|.|.4X7X.XP..X2Xe.e g v.v.#.s p X.^ q ~ s.M.k.M.M.M.M.M.M.M.M.M.M.M.",
"M.M.M.M.M.M.M.M.M.M.M.M.M.M.M.M.g.+.^ +.d.v.v.C.M./ [ Y.w.U I yX|.I I S.tX#XZ ,.v.M.C.c.#.z ~ s.h.M.M.M.M.M.M.M.M.M.M.M.M.M.M.",
"M.M.M.M.M.M.M.M.M.M.M.M.M.M.M.M.M.M.M.k.C.c.f.C.C.m.S ^.eX,XeXeXwXtX,X,X;X=.W C.C.C.B.m.M.A.M.M.A.M.M.M.M.M.M.M.M.M.M.M.M.M.M.",
"M.M.M.M.M.M.M.M.M.M.M.M.M.M.M.M.M.k.M.B.h.M.A.c.M.k.l.t 7.).;XeXtX<X;X).' h C.x.M.k.N.B.M.g.x.M.x.M.M.M.M.M.M.M.M.M.M.M.M.M.M.",
"M.M.M.M.M.M.M.M.x.M.M.M.h.M.M.M.k.k.M.B.M.h.h.h.M.k.C.M.@.g f w.:XS.j f :.G.M.A.M.k.N.N.A.A.C.M.M.M.M.M.M.M.M.M.M.M.M.c.M.M.M.",
"M.M.M.M.M.M.M.M.M.M.M.M.M.M.M.M.N.A.k.g.B.A.M.M.h.B.k.C.v.x.D _.:X:X*.-.G.v.C.h.B.M.k.k.c.M.c.M.C.M.M.M.M.M.M.M.M.M.M.M.M.M.M.",
"M.M.M.M.M.M.M.M.M.k.M.M.M.M.M.M.M.h.M.B.N.k.k.M.M.M.M.h.G.,.H tXtX:X' z.b.C.x.B.k.k.k.B.M.c.v.C.M.M.M.M.M.M.M.k.M.M.M.M.M.M.M.",
"M.M.M.M.M.M.M.M.M.M.M.M.M.M.M.M.M.C.c.M.C.M.M.M.g.B.M.M.H.h R.qX9X+XC b.V.N.k.B.k.k.k.k.k.M.M.M.M.M.M.M.M.M.M.c.M.M.M.M.c.M.M.",
"M.M.M.M.M.M.M.M.M.M.M.M.M.M.M.M.M.c.C.M.B.m.m.M.B.M.B.A.} =.eX9XeX5./ H.A.j.B.k.k.k.k.k.k.M.M.C.M.M.M.M.M.M.M.M.M.M.M.M.M.M.M.",
"c.M.M.M.M.M.c.M.M.M.M.M.c.M.M.M.c.C.C.M.C.V.B.B.B.g.A.| C +XqXtXr.A y.C.B.N.B.k.k.k.k.k.M.M.B.B.M.M.M.M.M.M.M.M.M.M.M.M.M.M.M.",
"M.M.M.M.M.M.M.M.M.M.M.M.M.M.M.M.C.M.M.M.M.M.M.m.M.B.m.W '.qX9XD.C p.C.C.N.B.M.k.k.k.k.k.M.B.m.m.M.M.M.M.M.M.M.M.M.M.M.M.M.M.M.",
"M.M.M.M.M.M.M.M.M.M.M.M.M.M.M.M.M.M.M.M.M.M.B.M.M.M.<.[ 9XqX_.G 6.C.C.A.m.B.C.h.k.M.k.B.M.N.N.N.M.M.M.M.M.M.M.M.M.M.c.M.M.M.M.",
"M.M.M.M.M.M.M.M.M.c.M.M.M.M.M.M.M.B.M.M.M.M.N.M.M.c.$.=.9XqXL.D H.c.c.M.B.M.M.c.M.k.N.j.M.M.M.M.M.M.M.M.M.M.M.M.M.M.M.M.M.M.M.",
"M.M.M.M.M.M.M.M.M.M.M.M.M.M.M.M.k.k.M.M.k.M.M.M.c.M.<.( qX9X Xf g.M.C.k.B.M.f.C.M.M.N.N.M.k.M.M.M.M.M.M.M.M.M.M.M.M.M.M.M.M.M.",
"M.M.M.M.M.M.M.M.M.M.M.M.M.M.M.M.k.k.N.k.k.c.M.M.c.M.c.Q 9.qX>XZ.t | p.A.B.M.C.M.M.B.M.M.M.M.k.M.M.M.M.M.M.c.M.M.M.M.M.M.M.M.M.",
"M.M.M.M.M.M.M.M.M.M.M.M.M.M.M.M.k.M.M.k.M.k.M.M.M.M.A.i.Q ] ~.;X[.` S 7.m.H.M.B.N.k.M.M.M.M.M.M.M.M.M.M.M.M.M.M.M.M.M.M.M.M.M.",
"M.M.M.M.M.M.M.M.M.M.M.M.M.M.M.M.M.k.M.k.k.M.M.k.M.M.x.M.A.| W >.[.,XT.B >.m.V.g.M.M.M.h.M.M.C.M.M.M.M.M.M.M.M.M.M.M.M.c.M.M.M.",
"M.M.M.M.M.M.M.M.c.M.M.M.M.M.M.M.M.M.M.M.M.k.k.M.M.M.C.C.m.m.x.} g F.,X'.Q x.x.A.M.k.M.M.N.M.M.M.M.M.M.M.M.M.M.M.M.M.M.M.M.M.M.",
"M.c.M.M.M.M.M.M.M.M.M.M.M.M.M.M.M.M.M.M.k.M.M.k.M.M.C.M.m.C.H.H.b.h Y.%X` $.C.h.M.M.k.k.N.N.M.c.M.M.M.M.M.M.M.M.M.M.M.M.M.k.M.",
"M.M.M.M.c.M.M.M.M.M.M.M.M.M.M.M.M.M.M.M.M.M.M.M.M.M.c.M.A.M.p.C.C.:.5.qX[ %.C.M.M.M.k.M.m.N.M.c.c.M.M.M.M.M.M.M.M.M.M.M.M.M.M.",
"M.M.M.M.M.M.k.M.M.M.M.M.M.M.M.M.C.C.M.M.M.M.M.M.M.M.C.M.x.A.H.x.G. .9.@XQ s.C.c.M.M.M.k.N.B.C.v.M.M.M.M.c.M.M.M.M.M.M.M.M.M.M.",
"M.M.M.M.M.M.M.M.M.M.M.M.c.M.M.M.M.M.M.M.M.M.M.M.M.k.M.M.M.M.M.M.G.W U./.t v.v.A.M.N.M.k.N.M.M.M.M.M.M.M.M.M.M.M.M.M.M.M.M.M.M.",
"M.M.M.M.M.M.M.M.M.M.M.M.M.M.M.M.M.B.M.M.M.M.M.M.B.M.M.M.M.M.M.B.b.k {.Q ,.M.C.g.N.M.k.M.M.M.M.M.M.M.M.M.M.M.M.M.M.c.M.M.M.M.M.",
"c.M.M.M.M.M.c.M.M.M.M.M.M.M.M.M.C.M.M.C.C.M.M.M.c.M.M.M.B.k.M.M.} ,.Z.h M.M.C.M.M.m.M.M.c.M.M.M.M.M.M.M.M.M.M.M.M.M.M.M.M.M.M.",
"M.M.M.M.M.M.M.M.M.M.M.M.M.M.M.M.M.B.M.M.M.M.M.M.M.M.M.M.k.M.k.B.E V.k C.m.C.M.A.M.M.M.M.M.M.M.M.M.M.M.M.M.M.M.M.M.M.M.M.M.M.M.",
"M.M.M.M.M.M.M.M.M.M.M.M.M.M.M.M.M.M.M.M.M.M.M.M.M.M.M.M.M.k.k.M.k ,.~ C.m.C.h.M.c.M.B.M.M.M.M.M.M.M.M.M.M.M.M.M.M.c.M.M.M.M.M.",
"M.M.M.M.M.M.M.M.M.M.M.M.M.M.M.M.M.M.M.M.M.M.C.M.M.M.M.M.k.M.M.c.s k <.c.B.M.A.c.M.M.M.N.M.M.M.M.M.M.M.M.M.M.c.M.M.M.M.M.M.c.M.",
"M.M.c.M.M.M.M.M.M.M.M.M.M.M.M.M.M.k.k.M.M.M.M.C.c.M.M.M.M.M.M.M.z 7 s.C.A.N.M.c.M.M.N.N.M.c.c.M.M.c.M.M.M.M.M.M.M.M.M.M.M.M.M.",
"M.M.M.M.M.M.M.M.M.M.M.M.M.M.M.k.M.k.M.M.M.M.M.M.M.M.c.M.M.M.M.M.3.9 x.j.M.M.c.c.M.M.N.M.M.M.M.M.M.M.M.M.M.M.M.M.M.M.M.M.M.M.M.",
"M.M.M.M.M.M.M.M.M.M.c.M.M.M.M.k.M.k.k.k.M.M.M.M.C.M.M.M.M.M.M.M.C.2.p.B.M.c.A.c.M.M.M.N.M.M.M.M.M.M.M.M.M.M.M.M.M.M.M.M.M.M.M."
};
