/* XPM */
static char *player_right_11639492497[] = {
/* columns rows colors chars-per-pixel */
"63 63 210 2 ",
"   c #020102",
".  c #0A0104",
"X  c #0B090D",
"o  c #070709",
"O  c #1D1C1C",
"+  c #161216",
"@  c #201E1F",
"#  c #26282A",
"$  c #3E3B3C",
"%  c #4A4648",
"&  c #686264",
"*  c #726B6E",
"=  c #7F7B7C",
"-  c #943B3F",
";  c #85282F",
":  c #953840",
">  c #9E4247",
",  c #A74E54",
"<  c #AB5558",
"1  c #B2595E",
"2  c #B4555D",
"3  c #B75B61",
"4  c #9F6573",
"5  c #83787C",
"6  c #BE6266",
"7  c #A7757D",
"8  c #AF767F",
"9  c #B2757D",
"0  c #B47679",
"q  c #BD6B77",
"w  c #C1666B",
"e  c #C56B71",
"r  c #C96B73",
"t  c #D26E78",
"y  c #CC7277",
"u  c #C8777D",
"i  c #C37779",
"p  c #D07A7E",
"a  c #9C7B84",
"s  c #AB7C81",
"d  c #BA7D84",
"f  c #BA7C87",
"g  c #C27D87",
"h  c #C67D86",
"j  c #D67E84",
"k  c #DB7E89",
"l  c #D97E83",
"z  c #7E8688",
"x  c #8C8E8E",
"c  c #858787",
"v  c #9F8489",
"b  c #8F9292",
"n  c #959496",
"m  c #9A9B9B",
"M  c #AF8687",
"N  c #B48385",
"B  c #BB8286",
"V  c #B6858C",
"C  c #BD8489",
"Z  c #BD8A8C",
"A  c #B7898C",
"S  c #B68A94",
"D  c #BA8E94",
"F  c #B78591",
"G  c #BB9595",
"H  c #BEA19B",
"J  c #9C9AA0",
"K  c #BC99A0",
"L  c #ADACAE",
"P  c #A4A5A9",
"I  c #BCA5AD",
"U  c #AFB9BA",
"Y  c #BDB1B1",
"T  c #C3858C",
"R  c #C4898E",
"E  c #C98A8D",
"W  c #C9858B",
"Q  c #D08284",
"!  c #DD8386",
"~  c #DB8488",
"^  c #C3908F",
"/  c #C08C92",
"(  c #CB8C95",
")  c #C08C98",
"_  c #D68B96",
"`  c #C39295",
"'  c #CB9094",
"]  c #C3969B",
"[  c #CB9399",
"{  c #C49A9C",
"}  c #D3949A",
"|  c #D59599",
" . c #E08A8D",
".. c #E28D92",
"X. c #E69599",
"o. c #EF9398",
"O. c #EA9596",
"+. c #F2959C",
"@. c #DDA09F",
"#. c #C39DA4",
"$. c #CA9AA2",
"%. c #D696A2",
"&. c #DC9DA3",
"*. c #D49DA4",
"=. c #E29CA3",
"-. c #EB9DAA",
";. c #E89BA3",
":. c #F29AA1",
">. c #C2A7AE",
",. c #CBA9AD",
"<. c #D3A1A5",
"1. c #DEA2A5",
"2. c #DAA7AA",
"3. c #C4A9B0",
"4. c #DCAAB1",
"5. c #C6B4BA",
"6. c #D6B7BC",
"7. c #E3A2A6",
"8. c #E6A5AB",
"9. c #EAA6AB",
"0. c #EBA9AE",
"q. c #E8A7AB",
"w. c #FAA3A6",
"e. c #F5A1AA",
"r. c #FDA6AC",
"t. c #F5AAAC",
"y. c #FCACAD",
"u. c #F6A6A7",
"i. c #F4B3AD",
"p. c #FDB3AE",
"a. c #F8B8AF",
"s. c #F7B8AF",
"d. c #EEADB1",
"f. c #E9A8B1",
"g. c #F5ADB3",
"h. c #FEAEB2",
"j. c #FFADBA",
"k. c #FCA6B3",
"l. c #E6B9B9",
"z. c #F5B4B3",
"x. c #FEB3B3",
"c. c #F4BAB3",
"v. c #FEB9B5",
"b. c #F3B2B9",
"n. c #FEB5BA",
"m. c #F5BBBB",
"M. c #FEBABB",
"N. c #F6C3BE",
"B. c #CCBCC4",
"V. c #DFBFC2",
"C. c #EBBDC1",
"Z. c #E6BCC0",
"A. c #FFBBC1",
"S. c #FBB9C2",
"D. c #BEC1C2",
"F. c #C9C9C9",
"G. c #DEC7CA",
"H. c #DACBD4",
"J. c #D6D7D9",
"K. c #ECC5C7",
"L. c #EDC6CB",
"P. c #E6C7CD",
"I. c #FFC2C3",
"U. c #FFC9C7",
"Y. c #F3C4CA",
"T. c #F4CACC",
"R. c #FECBCB",
"E. c #F9D1CF",
"W. c #ECCDD5",
"Q. c #FDCED4",
"!. c #F6D1D3",
"~. c #FED4D4",
"^. c #FED5DA",
"/. c #FCDBDC",
"(. c #FADADA",
"). c #FFE0DE",
"_. c #D7DDE4",
"`. c #DADEE1",
"'. c #E7DDE3",
"]. c #FFDCE0",
"[. c #FBDFE8",
"{. c #DDE1EC",
"}. c #E5E5E5",
"|. c #EBEBEE",
" X c #E9E3E7",
".X c #FDE2E5",
"XX c #F3E7ED",
"oX c #FDE5EB",
"OX c #F2EDEC",
"+X c #FEEDED",
"@X c #F9E7E6",
"#X c #FFF0ED",
"$X c #ECEDF3",
"%X c #E1EBF2",
"&X c #FFEEF2",
"*X c #F4EDF5",
"=X c #E4F2F5",
"-X c #E4F6FC",
";X c #ECF6FB",
":X c #E4FBFD",
">X c #EDFBFD",
",X c #E9F6F5",
"<X c #F5F7F4",
"1X c #FEF3F4",
"2X c #F5FBF6",
"3X c #FCFAF6",
"4X c #F5F5FB",
"5X c #FEF6FB",
"6X c #F5FEFD",
"7X c #FDFDFE",
/* pixels */
"x.x.x.x.x.x.x.x.x.x.x.x.x.x.x.x.x.x.x.x.x.x.x.p.x.h.x.x.x.x.x.x.x.x.x.x.x.p.x.x.x.x.x.c.x.x.x.x.p.x.p.x.p.x.x.x.x.x.x.x.x.x.x.",
"x.x.x.x.x.x.x.x.x.x.p.x.x.x.x.x.x.x.p.x.x.x.x.x.x.x.x.x.x.x.x.x.x.x.x.x.x.x.x.h.x.x.x.x.x.x.x.x.x.p.x.p.x.a.x.x.x.x.x.x.x.x.x.",
"x.x.x.x.x.x.x.x.x.x.x.x.x.x.x.x.x.x.x.x.x.x.x.x.x.x.x.x.p.x.x.x.x.x.x.x.x.x.x.x.x.x.x.c.p.x.x.x.x.x.x.x.x.x.x.x.x.x.x.x.x.x.x.",
"x.x.x.x.x.x.x.x.h.x.x.x.x.x.x.x.x.x.x.x.x.x.x.x.x.x.x.x.x.x.x.x.x.x.x.x.x.x.x.x.p.x.x.x.x.x.x.x.x.x.x.x.x.x.x.x.h.x.p.x.x.x.x.",
"x.x.x.x.x.x.p.x.x.x.x.x.x.x.h.x.x.x.x.x.p.x.x.x.x.x.x.x.h.x.x.x.x.x.x.x.x.x.x.x.x.x.x.x.x.x.x.x.x.x.x.x.x.x.x.p.x.x.x.x.x.x.h.",
"x.x.x.x.x.x.x.x.x.x.x.x.x.x.x.x.x.x.x.x.h.x.x.x.x.x.x.x.x.x.x.x.x.p.x.x.x.x.x.v.x.v.x.p.x.x.x.x.h.x.x.x.x.x.x.x.x.x.x.x.x.x.x.",
"x.x.x.x.x.x.h.x.x.x.x.x.x.x.x.x.x.x.x.x.x.x.x.x.x.p.x.x.x.x.x.x.x.x.x.x.x.x.x.x.x.x.x.x.x.x.x.x.x.x.x.x.x.x.x.x.x.x.x.x.x.x.x.",
"x.x.x.x.x.x.x.x.x.x.x.x.x.p.x.x.x.x.x.x.x.x.x.x.h.x.x.x.x.x.x.x.x.x.x.x.x.x.x.x.x.x.x.x.x.x.x.x.h.n.x.x.x.x.x.x.x.x.x.x.x.x.p.",
"x.p.x.x.x.x.x.x.x.x.h.x.x.x.x.x.x.x.x.x.x.x.x.x.x.x.x.x.x.x.x.y.n.h.x.x.x.x.x.x.x.x.h.x.x.x.x.v.x.x.n.x.x.x.g.n.x.x.x.x.x.x.x.",
"x.x.x.h.x.x.x.x.p.x.x.x.x.x.x.x.x.x.x.x.x.x.x.p.x.x.x.x.x.x.x.M.h.x.M.x.x.x.M.t.x.x.x.x.x.x.x.x.x.n.n.x.x.x.x.x.x.x.x.x.x.x.x.",
"x.x.x.x.x.x.x.x.x.x.x.x.x.x.x.x.x.y.x.x.x.x.x.x.y.x.x.h.x.M.y.p j :.h.y.M.z.x.M.h.x.n.h.h.n.x.v.v.n.h.n.x.h.M.x.x.x.x.x.x.x.x.",
"x.x.x.x.x.x.x.x.x.x.x.x.x.x.x.x.x.x.x.x.x.x.x.x.x.x.v.x.h.y.M.e ; j n.h.M.x.t.x.n.n.x.x.n.x.x.z.n.g.v.n.M.z.n.x.x.x.x.x.x.x.x.",
"x.x.x.x.x.x.x.x.x.x.x.x.p.x.x.x.x.x.x.x.x.x.x.c.M.x.x.x.x.x.h.1 - 2 r.n.x.n.n.x.x.h.h.x.h.x.M.I.z.z.U.n.n.z.z.x.x.x.x.x.x.x.p.",
"x.x.x.x.x.p.x.x.x.x.x.x.x.x.x.x.x.x.x.x.x.x.x.x.x.x.x.h.y.x.p - w r r.h.x.x.x.x.n.x.n.n.n.z.I.~.z.I.^.v.z.M.g.v.n.x.x.x.x.x.x.",
"x.x.x.x.x.x.x.x.x.x.x.x.x.x.x.x.x.x.x.x.x.x.x.x.x.x.x.x.r.~ p l 2 o.n.h.x.n.n.M.n.x.x.x.x.x.A.U.b.U.~.z.I.I.v.x.v.v.x.x.x.x.p.",
"x.x.x.x.x.h.x.x.x.x.x.x.x.x.h.x.x.p.x.x.x.x.x.x.x.x.p.x.u.e r.h.r.j.h.n.M.0.7.| [ } ( } 7.d.b.m.M.S.M.M.^.U.v.z.x.x.x.x.x.x.x.",
"v.z.x.x.j.h.x.x.h.x.x.x.x.n.x.h.p.p.x.x.z.b.x.x.x.n.p.x...j y.M.h.x.n.=.d V #.>.B.5.B.>.K F F [ 8.b.S.S.M.v.v.z.x.p.p.p.x.n.p.",
"x.x.x.x.x.h.x.x.n.v.x.v.x.x.x.x.p.p.y.x.x.v.n.x.n.h.x.x.~ ~ M.k.j.t.T D W.oXOX6X;X4X*X*X5X.XW.6.D C &.n.n.v.0.v.p.r.p.v.v.t.x.",
"x.x.x.x.x.x.x.x.z.v.x.x.x.x.x.c.x.v.x.h.n.x.x.x.x.x.x.x.o.y x.A.8.V ,.&X<X=X>X,X6X7X5X5X5X7X2X2XOXP.) W =.A.n.v.v.v.x.t.v.x.x.",
"h.x.a.s.x.c.a.x.a.x.x.x.h.x.x.x.c.x.h.x.h.n.x.x.y.v.a.p.x.e X.0.s G.5X2X=X:X:X>X6X5X5X5X7X7X2X6X2X3X1Xl.C _ j.x.y.y.M.x.c.v.p.",
"p.p.p.a.a.a.a.p.p.p.x.p.x.p.x.v.v.x.n.x.n.n.x.h.x.p.s.s.x.X.u 8 G.4X6X=X>X>X>X7X7X7X7X7X2X7X2X2X6X7X7X3X).<.B h.n.h.h.I.d.c.x.",
"x.p.x.p.x.a.a.p.p.p.y.p.p.p.p.a.x.x.h.n.x.x.x.h.p.p.c.z.v.A.0 { $X:X=X=X6X7X7X7X6X6X6X7X2XP c b F.7X7X3X7X1Xl.9 e.A.k.z.z.v.x.",
"x.p.x.x.x.x.x.x.p.h.x.x.x.p.x.x.x.x.j.x.x.v.x.x.y.x.x.n.z.8.A .X4X:X6X6X7X5X5X7X7X7X7XJ.#       X c 6X6X6X2X5XY.d -.M.x.v.z.y.",
"x.x.x.x.x.x.x.x.h.h.x.h.x.x.x.x.x.x.x.x.z.x.x.h.h.x.x.A.&.7 >.5X-X-X>X6X7X7X7X7X5X7X7X$   $ = * + . _.6X6X6X7X5XZ.f n.n.h.n.x.",
"n.h.x.M.n.z.M.z.v.p.M.x.x.n.n.x.p.p.p.M.x.x.x.h.h.n.g.f ) a '.4X;X>X6X6X7X7X7X7X7X3X<X  & 7X7X7X*XX J 7X7X6X7X7X3X4.^ x.h.n.y.",
"n.h.n.h.g.n.b.M.l.@.| 9.g.g.n.j.p.v.x.t.v.g.x.n.j.n.f 4.oXB.$X;X;X2X6X7X6X6X7X3X3X7X}.o n 6X7X7X5X# n 5X7X7X7X<X3X#X` 7.x.n.h.",
"h.n.j.M.n.h.x.1.M G { D B -.j.n.x.p.u.x.v.A.h.j.A.[ #.oX5X*X;X-X2X6X7X7X7X7X7X7X7X2X7Xo + D.|.}.n   L 7X5X7X7X7X3X3XK.C n.x.y.",
"n.n.n.g.n.t.W ` T.#X+X&X^.9 0.j.x.p.v.z.z.b.b.8.%.N P.5XH.{.;X-X6X7X7X7X7X7X3X7X2X7X7Xc     o .   # 5X7X5X7X7X7X7X1X3XA 9.n.h.",
"k.t.r.r.E N l.~.S.2.f.R..XT.f b.c.x.x.n.b.{ V D #.v XX4XJ {.-X-X7X7X7X7X7X7X7X7X7X7X3X3Xm @ .   % }.6X6X7X7X5X7X7X3X1Xl.' n.n.",
"x.< , u =.m.2.B W ;.&.s Z.&X] *.n.x.n.f.N ,.(.+X X5.5X7XP %X:X:X6X7X7X7X7X7X7X7X7X5X7X7X7X7X7X7X7X3X7X6X7X7X7X7X5X7X1X(.Z z.x.",
"y.u.Q i Q h ..p.n.n.S.b./ Q./.s 9.A.8.8 6.1X7X5X5XOX7X7XJ.%X-X:X6X6X7X7X7X7X7X5X7X7X7X6X7X7X3X7X7X7X6X7X7X7X7X7X7X7X7X(.C v.h.",
"x.y.x.x.h.h.n.h.j.j.S.S.( *.1Xl.d d V G.1X7X&X5X[.5.5X6X=X:X:X:X6X6X7X7X7X7X7X7X7X7X7X7X7X<X7X7X3X<X7X6X4X7X7X7X7X7X3X/.B z.M.",
"x.v.z.x.x.x.h.h.x.x.n.A.d.f ^.&XW.H.'.5X7X&XS.%.f s &X5XL `.6X;X6X7X7X7X7X7X7X7X7X7X7X6X7X6X7X7X7X7X3X7X7X7X6X7X7X5X5X!.C v.x.",
"n.v.x.x.p.x.x.x.x.h.n.x.m.&.[ oX5X5X5X7X.X$.h -.k.g E.3XY F.;X6X7X7X7X7X7X7X7X7X7X7X7X7X<XL c n F.5X7X7X7X7X7X6X7X7X5Xl.} g.x.",
"x.x.x.x.x.p.x.x.x.x.n.z.M.b.( 4.&X1X5X!.] [ b.n.n.| <.1X6.B.;X:X7X7X7X7X7X7X7X7X7X7X6XJ.@     .   x 5X7X7X6X6X6X3X5X1XR 8.v.x.",
"x.x.x.x.p.x.p.p.x.x.h.n.b.M.d.W ` <.` B &.n.M.n.x.M.0 C.^.I ;X:X6X7X7X7X7X7X7X7X7X7X7X%   $ 5 * O   J.7X5X7X7X7X7X1XK.T z.M.i.",
"n.x.x.x.x.x.p.x.x.p.x.x.v.x.g.b.q.@.9.x.x.x.x.p.v.x.n.C %.S *X;X7X7X7X7X7X7X7X7X7X<X1X  & 7X7X7X$Xo J 7X7X7X7X3X5X(.d t.x.n.c.",
"x.x.x.x.x.x.p.v.x.p.x.v.x.n.h.M.v.p.p.y.x.x.v.a.x.u.n.g.%.4 H.4X7X7X7X7X6X7X7X7X7X5X X. m 1X3X7X6X# x 6X7X3X7X3X/.{ } A.x.y.v.",
"n.h.x.x.p.p.x.p.a.p.t.M.x.x.n.t.y.v.v.x.x.y.i.v.p.M.y.n.S.-.] oX7X6X7X7X7X7X7X7X7X5X7XX + D.,X}.z   U 7X7X7X3X+X<.E M.x.h.h.x.",
"x.x.x.x.x.x.p.x.p.v.p.x.x.x.x.x.x.p.p.p.p.x.x.y.p.x.x.x.j.k.f W.5X7X7X7X7X7X7X7X7X7X6Xx           # 2X7X7X3X#X[ W M.t.x.x.h.h.",
"x.x.x.x.p.x.p.x.p.x.x.a.x.p.x.p.x.x.x.x.x.x.h.x.p.x.i.v.k.j.q s oX<X7X5X5X7X7X7X7X7X6X2Xm #     % *X<X7X5X(.` ' v.x.x.x.x.h.p.",
"x.x.x.x.x.p.x.x.x.p.x.p.p.x.p.x.x.n.x.v.x.x.n.x.x.i.s.v.j.k k _ ] 1X5X5X5X7X7X7X7X7X7X7X6X7X7X5X5X5X5X1XK.N &.g.x.x.x.x.x.p.x.",
"x.x.x.x.x.x.x.p.a.x.p.x.x.x.x.p.x.x.x.n.j.x.n.x.p.i.c.c.w.r :.n.( $.oX5X5X7X<X7X7X7X7X7X5X3X7X3X5X5X].D T 8.M.n.x.x.x.x.p.x.x.",
"x.x.p.x.v.x.p.x.x.p.x.a.p.p.x.x.x.h.n.x.j.j.h.x.x.a.c.x. .l n.n.g.} R T.3X3X7X1X7X7X5X7X5X5X1X&XY.%.s 1.n.n.h.n.x.x.x.a.x.a.s.",
"x.p.x.x.x.x.x.x.x.x.x.x.x.x.x.x.x.x.x.x.h.n.n.x.x.v.i.c.! k x.h.n.S.8.d [ K./.1X#X3X1X+X).T.<.R ' &.M.M.n.n.h.n.n.x.x.x.c.x.s.",
"x.x.x.x.x.x.x.x.x.x.x.x.x.x.x.x.p.p.p.x.n.h.n.x.x.x.c.p.o.r j.A.h.r.j.x.=.E V B { { G M N ' | 0.9.A.z.M.^.I.A.h.x.x.x.x.x.x.x.",
"x.a.x.x.x.x.h.x.h.n.x.x.x.x.x.x.p.p.p.s.x.x.x.j.h.x.x.x.r.t :.r.O.y.h.y.x.n.n.g.9.9.d.g.M.b.c.I.N.M.U.N.Y.R.M.h.h.h.x.n.x.x.p.",
"a.x.x.c.x.x.n.n.x.h.n.x.x.v.x.x.p.p.s.s.c.v.x.x.x.h.x.v.j.o.r 3 ,  .x.x.n.x.h.n.h.x.n.h.v.x.M.~.x.v.(.N.c.c.x.x.j.j.x.h.x.x.h.",
"x.x.x.x.x.x.x.p.x.x.x.x.h.x.x.x.p.x.p.x.x.c.x.x.x.h.x.x.x.y.:.: 2 w r.h.x.x.x.x.x.x.n.n.h.x.M.U.x.M.N.N.x.x.x.x.h.x.x.x.x.x.x.",
"x.x.x.x.x.x.x.x.x.x.x.x.x.x.x.x.x.x.x.x.x.x.x.x.v.x.x.x.n.x.h.6 ; w x.x.y.v.v.x.x.x.x.x.x.x.x.v.p.v.M.x.x.x.x.x.x.x.x.x.x.x.x.",
"x.x.x.x.x.x.x.x.x.x.x.x.x.x.p.x.x.x.x.x.x.v.x.p.v.y.x.x.h.h.r.y >  .p.p.x.v.t.x.x.x.h.x.x.x.x.z.x.x.x.x.x.x.x.x.x.x.x.x.x.x.x.",
"x.x.x.x.x.x.x.x.x.x.x.x.x.x.x.x.x.x.x.x.x.x.x.x.x.x.x.x.x.x.x.O.o.w.r.p.M.x.i.v.x.x.x.x.x.x.v.v.x.x.x.x.x.x.v.x.x.x.x.x.p.x.x.",
"x.x.x.x.x.x.x.x.x.x.x.x.x.x.x.x.x.x.x.x.x.x.x.x.v.x.x.x.x.x.M.h.x.n.x.x.x.c.x.x.x.x.x.x.p.x.x.x.x.x.x.x.x.x.x.x.x.x.x.x.x.x.x.",
"x.x.x.x.x.x.x.x.p.x.x.x.x.x.x.x.x.x.x.p.x.x.p.x.x.x.x.p.y.y.x.x.h.h.y.v.z.x.v.x.x.x.x.x.x.a.x.x.x.x.x.x.x.x.p.x.x.x.x.x.x.x.x.",
"x.x.x.x.x.x.x.x.x.x.x.h.x.x.x.x.x.x.x.x.x.x.x.v.x.x.x.x.x.n.x.x.x.h.y.M.z.x.s.x.x.x.x.x.x.x.x.x.x.x.x.x.x.x.x.x.p.x.x.x.x.x.x.",
"x.x.x.x.p.x.x.x.x.x.x.x.x.x.x.x.x.x.x.x.x.x.x.x.x.v.x.x.x.x.y.x.x.x.x.x.i.v.z.v.x.x.x.x.x.x.x.x.x.x.x.x.x.x.x.x.x.x.x.x.x.h.x.",
"x.x.x.x.x.x.x.x.x.x.x.x.p.x.x.x.x.x.x.x.x.x.x.x.x.x.x.x.x.x.x.x.x.x.x.x.x.x.x.x.x.v.x.x.p.x.x.x.x.x.x.x.x.x.x.x.x.x.x.x.x.x.x.",
"x.x.x.h.x.x.x.x.x.x.x.x.x.x.x.x.x.x.x.x.x.x.x.x.x.x.x.x.x.x.x.x.x.x.x.x.c.x.c.p.x.x.x.x.x.x.x.x.x.x.x.x.x.x.x.h.x.x.x.p.x.x.x.",
"p.x.x.x.x.x.x.x.x.x.x.x.x.x.h.x.p.x.x.x.x.x.x.x.x.x.p.x.h.x.x.x.x.x.x.x.x.x.x.x.x.x.x.x.x.x.x.x.x.x.x.x.x.x.x.x.x.x.x.x.x.x.x.",
"x.x.x.x.p.x.x.x.x.x.h.x.x.x.x.x.x.x.x.x.x.x.x.x.x.x.x.x.x.x.x.x.x.v.x.x.x.x.x.x.x.x.p.x.x.x.x.x.x.x.x.x.x.x.x.x.x.x.x.x.x.x.x.",
"x.x.x.x.x.x.x.x.x.x.x.x.x.x.x.x.x.x.x.x.x.x.p.x.x.x.x.x.x.x.x.x.x.x.x.x.x.x.x.x.x.x.v.p.x.x.x.x.x.x.x.x.x.x.x.x.x.x.x.x.h.x.p.",
"x.x.x.x.x.x.h.x.x.x.x.x.x.x.x.x.x.x.x.x.x.x.x.x.x.x.x.x.x.x.x.x.c.x.x.x.x.p.x.x.x.x.x.x.x.x.x.x.x.x.x.x.p.x.x.x.x.x.x.x.x.x.x.",
"x.x.x.x.x.x.x.x.p.x.x.x.x.x.x.x.x.x.x.x.x.c.x.x.x.x.x.x.x.p.x.x.x.x.x.x.x.x.x.x.x.x.x.x.x.x.x.x.x.x.x.h.x.x.x.x.x.x.x.x.x.x.x."
};
