/* XPM */
static char *_b139097a49d480cbab5674e1d8a0f9cyKmdE8fnsfp9o8bn[] = {
/* columns rows colors chars-per-pixel */
"63 63 168 2 ",
"   c #7E3735",
".  c #7B3937",
"X  c #733C3C",
"o  c #7D3D3C",
"O  c #77413F",
"+  c #7D413F",
"@  c #7C3F42",
"#  c #7D4443",
"$  c #7D4947",
"%  c #7D4649",
"&  c #823F37",
"*  c #823E3D",
"=  c #893F3E",
"-  c #84413E",
";  c #88453F",
":  c #853F40",
">  c #854140",
",  c #894444",
"<  c #844846",
"1  c #8B4946",
"2  c #814648",
"3  c #8A4748",
"4  c #844C4C",
"5  c #8B4A4B",
"6  c #904E4F",
"7  c #82514F",
"8  c #91514F",
"9  c #854E51",
"0  c #914F50",
"q  c #825051",
"w  c #8E5856",
"e  c #945454",
"r  c #905857",
"t  c #995758",
"y  c #9C5C5B",
"u  c #9A6766",
"i  c #976A69",
"p  c #9E6969",
"a  c #9D706D",
"s  c #A46565",
"d  c #A86668",
"f  c #A36C6F",
"g  c #AB6C6C",
"h  c #AD706F",
"j  c #A36F71",
"k  c #A57272",
"l  c #AA7473",
"z  c #A77679",
"x  c #A87B78",
"c  c #B47474",
"v  c #B67979",
"b  c #BB7C7B",
"n  c #AF8682",
"m  c #B48584",
"M  c #B9878A",
"N  c #BD8B8A",
"B  c #BE9694",
"V  c #BF9893",
"C  c #B59998",
"Z  c #BC9C9C",
"A  c #B7A29F",
"S  c #BEA19E",
"D  c #BE9EA0",
"F  c #BDA3A3",
"G  c #BFA6A9",
"H  c #C38383",
"J  c #C78788",
"K  c #C58B8B",
"L  c #CB8D8D",
"P  c #D08F8D",
"I  c #CD908F",
"U  c #D1918F",
"Y  c #C78F90",
"T  c #CE8F90",
"R  c #C39493",
"E  c #CE9292",
"W  c #C89699",
"Q  c #C49D9D",
"!  c #CB9D9D",
"~  c #D29494",
"^  c #D29897",
"/  c #D49799",
"(  c #D59A9A",
")  c #DB9E9E",
"_  c #C3A19F",
"`  c #CAA19F",
"'  c #D6A19F",
"]  c #D8A09F",
"[  c #DCA09F",
"{  c #E1A19F",
"}  c #C49EA1",
"|  c #C99FA3",
" . c #CF9DA0",
".. c #CC9EA1",
"X. c #DD9FA0",
"o. c #DD9FA0",
"O. c #C4A2A1",
"+. c #C7A3A3",
"@. c #C6A4A3",
"#. c #C2A3A3",
"$. c #CAA2A3",
"%. c #CCA3A1",
"&. c #CDA1A2",
"*. c #CDA0A3",
"=. c #CBA3A3",
"-. c #C2A8A7",
";. c #C3A6A8",
":. c #CEA7A8",
">. c #C4A9AA",
",. c #C9A9AA",
"<. c #D3A4A3",
"1. c #D9A1A2",
"2. c #DBA3A2",
"3. c #DDA1A1",
"4. c #DDA3A1",
"5. c #DFA1A2",
"6. c #DEA2A2",
"7. c #DEA4A3",
"8. c #DBA3A4",
"9. c #DFA5A4",
"0. c #DDA7A5",
"q. c #DEA6A5",
"w. c #DEA6A7",
"e. c #DFA7A6",
"r. c #DDA4A3",
"t. c #D4A8A7",
"y. c #DFA8A5",
"u. c #DDA8A6",
"i. c #DCA5A8",
"p. c #DFA7A8",
"a. c #DEA7AA",
"s. c #DFA7A8",
"d. c #D0A9AC",
"f. c #DEA8A8",
"g. c #DEAAA9",
"h. c #E1A5A4",
"j. c #E0A4A4",
"k. c #E0A6A5",
"l. c #E2A6A5",
"z. c #E3A6A5",
"x. c #E1A7A6",
"c. c #E3A7A7",
"v. c #E4A4A4",
"b. c #E2A5A4",
"n. c #E8A7A5",
"m. c #E0A8A7",
"M. c #E2A8A7",
"N. c #E1A8A7",
"B. c #E9A9A7",
"V. c #E2A7A9",
"C. c #E5A7A8",
"Z. c #E0A8A9",
"A. c #E3A9A8",
"S. c #E1A9AA",
"D. c #E3ABAA",
"F. c #E6A8A9",
"G. c #E4AAA9",
"H. c #E2ACAA",
"J. c #E6ACAB",
"K. c #E7ADAB",
"L. c #E5AFAF",
"P. c #E3AAAA",
"I. c #E9ACAB",
"U. c #E8ACAC",
"Y. c #E9ACAB",
"T. c #E6B0AE",
"R. c #ECB0AF",
"E. c #EDB1B1",
/* pixels */
"> > > > > > > - > > > > - - - - > > > > , : : : o.k.5.G.U.2.9.0.i.a.D.D.9.i.k.G.[ < - > - > * > > > , : 2 : > , > - > > - : = ",
"> - > - - > > > - > > - - - - - > - - > > > 2 : H v.F.X.9.9.H.H.L.f.1.a.S.9.k.k.v # > > - - > = > > > > : : 2 : > - > > > : = ",
"> - > > > > > > > > > > > > > - > > > > > > > > < T U.k.K.u.1.u.2.9.D.7.D.U.5.E 8 o > > - = ; * > > > - + > * > - - > > > > > ",
"> > > > - > > - - > > = > - > > > = > > > : , > , , h X.k.7.D.9.m.K.m.h.k.) c 5 + - > > - = - - > - : > > > > > < > + > - > > ",
"= > : : : = = : > - > > > = > : - - : : > > > > + > > < s L ] 2.0.] ~ H d 5 : > - 3 = : > = ; - > > - > - - - - - - - - > - - ",
"> : > = : , > : > > > > > > > : - - : = > = > - ; + - > > o o < 4 > > < , : * : : > * > > - - - - > > > - - - - ; + + > > - # ",
": > , = > : : > > > > > > > : 2 - - - ; = - : > > > ; o < < o > + - > - * > , , = > = > - < * - , = - > - - - - - - - - # - # ",
"> : : - : : > = : : , : : 2 : : - - - - - = > : 1 o , 1 . - < + > - + > , : o : = : , : o > o > > - > > = - - - ; - - - > + # ",
"= > > = > > - = < : : # : @ : 2 > - = > < * : > - - - ; = - - - - - * - - - : : 2 > > # + # # # > > : * : , : = * = = * > - > ",
"= : : : > * , , * : , , , , : : o > 3 o * > = , : > - - - - - - ; & 1 - * < 5 : o # 4 $ $ < $ O # @ > 2 : * 5 & = = = = : > > ",
"> > > > > o < > : 3 t h J ~ T H v e > 3 o , > : > : > : > - - - * , * * > o # # 4 u m K ! ! R m j 9 % < o 3 * , = - - * : > > ",
"- > > = * < : > t c ~ / T L T / L E b 6 3 * > : : - : > > - - - * = > : # < % k ! &.&.! ! ` %.! W ..p @ 4 o > * : = - - : : , ",
"- > > - + 1 . t J T ~ T E / ~ T L X.L ~ 6 : : : : , > : - > > - , & > 2 4 $ Y Q $.O.+.@.@._ Q _ :.| | M 9 4 O - > = : = > > > ",
"- ; - < - < < H ~ ~ ~ L T T E E ~ T L L T : : , , > : > > > > > - > * < 4 W } :.@.D F #.#.S F @.D } } *.W q o 4 > : > > > : > ",
"- + > > + - s E L E ~ ~ E T E / E L / E L s 3 * : : , > - > > > * 3 + > K $.<.Z #.F G G #.F #.#.F >.;.| ! m 4 O > > > > > > > ",
"- - < - - > H E ~ ~ E E E ~ E E E ~ L ~ ~ H @ 2 : , > > > > > - > > < j ! :.C ,.F G F F A F G F D >.D D :.` l # > > > > = > > ",
", * > > > . / P E ~ E I E E ~ W ~ Y / E L ~ , : : : : , : > - # > # 4 &.Q @.@.F #.#.#.#.#.F F F #.@._ -.@._ Q q % : : : : > - ",
"- - > - > , P L I E E ^ E L R E E ( E L ) L * : : : : , # > - - # # u =.Q F #.F #.@.O.} #.#.F #.#.@.S _ S _ _ i % 3 : : : : > ",
"= - > * > 1 H ~ ~ ~ E Y I ^ ^ Y E E K / J J , , : : 3 : - # + - > $ m =.#.F G G #.#.} O.#.#.D ;.@.@.-.S -._ %.n # : , : = : = ",
"- - > > - * d / L I E E E E E E E E ~ L / d : : : : : : > - - - > # R ! O.#.F F #.#.O.O.} #.G G #.F -.S F _ _ R % # : : : > = ",
"= > > , > * 5 b / I L ~ E L L ^ E K / T J 5 @ : > > > > - - - # > # ! Q F F F F G F #.#.#.#.G D #.D ;.F -.S _ ` % # : : : : ; ",
"= > - > - > > e L U ~ U L ~ ~ E ~ E L L 5 : 3 : , > > > > # < - # > ! &.S F F G F F -.F #.#.} ;.;.F G D #._ ` ! % @ , : : : = ",
"- > > > - < - + 8 c ~ ~ L ~ E K E E b e , * : : : > > - > > - - - $ Y ` #.F F F F F G #.#.} ;.D ;.F G A #.#.| B % # : : = : = ",
"> - = , > - - > > > e c L E I L c r : # : 2 : : > > > > - ; > + # > m ` _ -.G F F F F F F #.} ;.G F F F #._ ! m # > 2 : : : - ",
"> > > - > > - > > - > > # > # > : # > > > > > - > > > > = > > - + > p ! _ ,.F F A F -.#.;.;.;.D D G ;.;.Q _ <.p # # > > > > > ",
"> > > > > > > > > > > 2 > > > > # : 2 > , > > > > - > - > > > > ; + 4 <.W _ #.-.-.-.F A D } } } G >.C Z =.$.R 4 # > > > > - : ",
"> > > > > - > - - > > - > # - # : - > > : : > > > - > > > > > # - + O l &.} } @.S A F #.#.#.#.#.D Z ,.@.` ` k + > > - > : > = ",
"- > > - > > > > > > > > > > > > > > > > > > > - > > > > - > - - ; - < + N <.} } -.@.#.#.#.F #.#.>.@.@.Q ` N + < > > > - > : > ",
"- > > - > > > > > > - > > - > - > > > > : - > > - > > - > > - - - - - 4 4 W | :._ S S _ _ _ F #._ _ S t.N r o + - - - ; > > > ",
"> > > > > - - > > - > > > > > > > - - > > > > > > > > > > > > - - & 1 . 5 9 M ! ` %._ -.#.-.@.#._ %.` m r + ; - - - - - > > > ",
"> > > > > > > > > > - : = = = - - - - - - > > > > > > > > > > - & 1 * 2 @ @ 9 z ` _ _ S S S #.S ` Q x O + < . > = - - - > : > ",
"- > > - > - > > > > : > = - - = - - - - = , - > > - > - > > - - ; . - : : 4 X $ 7 i n R ` %.V n a $ + < + - 1 * - - - - > > : ",
"- - - - > > > > > > > > > > > = - > # - > # > # ; > > - > > : : - - > - > > , > # # # # # > # # > > > > > # > - > > - > - - ; ",
"- - - - - > > - > - > - - > > > > > - > - - - > - > > > - > > = > > > > > - : > > > > > - - > > = , > : > - > > > > # > - - = ",
"> > > - : : > > > - > > > > : > > > > - > > - > > > > ; = : > : - > > > : > > > > > > > > - > - > : > > > > > - - > - - > > > ",
"> - = , ; > > > > > > > > > = > - > > > > > > > > - > > = , : > > > > - > > - > - > > = > > > > = : > - > - > > > > > > > > > ",
": > : > : : : > : > - = - > > - > - > > > > > > > - - : > : > = > > = > - > - > - > > - > > > > > > ; > > > : : > > , = : : > ",
": = : : : > > : > = > , > > > > > > > : > - > > > : : > = , : : - > = , > > > > > > > > > - - > > > : : > - : = > - : > > : : ",
"> : , : > : : > : > : : - > > - = = = : : ; > = : = > : = > = > > > - > > > > > > > > > > > > > > - > > > = : , : : , : > , : ",
"> , : , : , : : > = > : > > > > , : > : : : : : > : : > : : > : > > > > - > > - - > > - > - > > > > - > : > > : : > : : > > : ",
"@ 5 @ , : : : @ : > : : - > > - > : > : : > > > - > * - > > , - > - = , > > > > > > > > - > > - > > > > > - : > : , : 3 : > > ",
", . 2 , : : , 3 > : : = > > > > > - = > > : - > < - > ; - . * - > > - > : > - > - > > - > > > > > - - > > > : : : : o o 3 5 b ",
"V./ v 5 , 2 : o : : : , > - > > > > > > - > > > * = 4 o - 3 1 - : > > > > - > - > = > > > > > : > > > > > : > : : 3 3 : d 2.) ",
"8.v.U.i.c : : 5 : , : : > > > ; > > - ; > > - > 3 o > > - - + + - > - > > > > > , = > > - > > - > > - > > - : , , @ < s G.9.D.",
"9.H.1.u.v.c o : , > > - > > - - > - > > # > # ; o - - > - < - - > - > > > > > > > > > > > > - > - - - > : : : : , o 0 o.2.7.m.",
"9.1.L.m.5.F.s . : > : > - > - - - ; > > - - - > e U n.J e . + 1 > > > > - : > - > > - > > > > > - - > - : : , : : @ J 8.2.u.T.",
"H.t.u.7.k.G.v 3 , : > > > > - - > # > - - > + - L { B.v.I < o - > - - > , = > - - > = > > - > - - - > > > > : 2 @ 5 H L.T.2.t.",
"g.g.2.H.8.v.v.@ , : - > > - - - > - > + - < - - n.n.v.{ { > + < > > > > - > > > > > > > > > > > - - > > - > , > : o U.8.9.g.f.",
"t.H.0.0.g.h.h.> 2 : : > - > + ; - > : , : 2 : : L { v.B.H 1 - > - - - + ; > > > > : , : > > > > - - > - > > > > , o U.8.k.f.g.",
"T.<.g.H.x.A.( > : : > > : > - - > > : > , : 2 @ 8 U n.P y . 3 * - - - - - - > - = : = = - > > - - - > ; > > 2 > @ 3 M B.L.] 0.",
"t.' H.7.o.G.H > > , > > > > - - > > > - - > = > + - o > - * > > - > > - > > > > : : > : > > - > - - - > : > : : 2 o H v.7.u.T.",
"m.m.2.m.E.k.y . > > > > > - - - > : > > > > + > 1 > + - - = = > > > + < - > > - : ; : > > > > > - - > > > : > > , o e 8.7.9.D.",
"9.U.1.U.) c > 5 > , : > > - > + - > > - > - > > = * > = : , = * > : > > : : , = - > > - > > - # > > > > : > : > : @ : d F.k.V.",
"o.F.V.o.h 3 o : > > > > > > > > > > > - > > > > , - > < : & o 3 > > > > > : : = > > > > > > - > > - > - > : : , : 5 3 @ d X.) ",
"9.~ v t o : 3 : > > ; > > - > > - - - - - - - - * > : : > 1 3 * > , , : > > > - > > > > - > - > > - > > = : : : : : o o 3 5 H ",
"2 > : : , : o , - > > > > > > - - - - - - - - - = , > > : * > > 2 : : : , > > > - > > - > > > - > > > > : , : : : , : 3 * : : ",
": , : : > , > : > : > - > - > > , - - - - - - - > 3 + * < > * > * : > 2 # > > > # - > + 3 - o , > > > > = > : > = > : > : > > ",
": > : 2 > > : > : > > > > > > > - - - ; - * > - * * > - * @ > 2 , 2 > : > > # > 3 - > * - > , > > - - > > : > : > : , : , > , ",
"> - : > > > > > - > > > > - > - - - - - > > > > 3 , > < 5 h E / c.k.8./ J h e - # o - 3 > - > = > > > > > > : - , : : : > : > ",
"> > > > - > > - > > > - : > > = - - - = > > > > o o t K v.G.F.9.5.9.F.U.K.k.( U y 3 . < > * > - > > - > = = , : = > : : : - > ",
": > - > > > > > > > > > > - - , - ; > * 3 > : > # b F.v.o.a.a.1.G.D.k.7.9.k.m.A.] v 1 . - ; - - - > - > > > > > : > > - > > > ",
"> - > > - > > - - > > - > > > > > > * = > = @ 3 J X.F.V.S.f.0.g.1.0.u.f.m.m.h.m.R.[ v 1 > > = - > > > > - > > - > - > > > > - ",
"- - - - > > # - > > > > > > - > - , = - < : , t v.F.F.i.f.f.a.g.f.g.f.u.9.u.u.m.7.m.h.y 3 - - = > = > : > > > > > > > - - - - "
};
